<?xml version="1.0" encoding="UTF-8"?>
<svg xmlns="http://www.w3.org/2000/svg" xmlns:xlink="http://www.w3.org/1999/xlink" version="1.2" >
<font id="Averta Std Bold">
<font-face  font-family="Averta Std" units-per-em="1000" ascent="772" descent="-228" font-style="normal" font-weight="700" font-stretch="normal" cap-height="710" x-height="487" underline-position="-65" underline-thickness="53" />
<missing-glyph  horiz-adv-x="449" d="" />
<glyph glyph-name="NULL" d="" />
<glyph glyph-name="CR" unicode="&#xd;" horiz-adv-x="249" d="" />
<glyph glyph-name="space" unicode="&#x20;" horiz-adv-x="263" d="" />
<glyph glyph-name="exclam" unicode="&#x21;" horiz-adv-x="281" d="M94 233 L190 233 L214 736 L71 736 L94 233 Z M140 -8 C184 -8 221 27 221 71 C221 115 184 151 140 151 C95 151 59 115 59 71 C59 27 95 -8 140 -8 L140 -8 Z " />
<glyph glyph-name="quotedbl" unicode="&#x22;" horiz-adv-x="415" d="M33 450 L134 450 L197 710 L63 710 L33 450 Z M221 450 L322 450 L386 710 L251 710 L221 450 Z " />
<glyph glyph-name="numbersign" unicode="&#x23;" horiz-adv-x="645" d="M110 -44 L200 -44 L229 144 L366 144 L337 -44 L427 -44 L455 144 L590 144 L591 241 L470 241 L492 380 L616 380 L616 477 L507 477 L534 656 L445 656 L417 477 L280 477 L308 656 L219 656 L191 477 L59 477 L59 380 L176 380 L155 241 L34 241 L34 144 L140 144 L110 -44 Z M244 241 L266 380 L403 380 L382 241 L244 241 Z " />
<glyph glyph-name="dollar" unicode="&#x24;" horiz-adv-x="572" d="M533 195 C533 327 445 362 311 402 C239 425 205 444 205 481 C205 517 234 538 285 538 C329 538 383 521 439 482 L518 581 C473 617 410 646 348 659 L348 783 L243 783 L243 665 C125 651 58 574 58 472 C58 345 158 307 271 272 C353 248 385 228 385 185 C385 146 352 122 302 122 C248 122 180 146 124 199 L42 101 C101 43 170 10 243 -1 L243 -113 L348 -113 L348 -1 C462 15 533 88 533 195 L533 195 Z " />
<glyph glyph-name="percent" unicode="&#x25;" horiz-adv-x="1019" d="M402 -23 L717 683 L619 725 L304 19 L402 -23 Z M240 320 C361 320 442 410 442 520 C442 639 352 718 240 718 C120 718 39 629 39 520 C39 400 129 320 240 320 L240 320 Z M241 413 C187 413 143 456 143 519 C143 577 183 624 241 624 C296 624 340 582 340 519 C340 460 300 413 241 413 L241 413 Z M777 -8 C899 -8 979 82 979 191 C979 310 889 390 777 390 C657 390 576 300 576 191 C576 72 667 -8 777 -8 L777 -8 Z M778 85 C724 85 680 127 680 190 C680 248 719 295 778 295 C833 295 877 253 877 190 C877 132 837 85 778 85 L778 85 Z " />
<glyph glyph-name="ampersand" unicode="&#x26;" horiz-adv-x="667" d="M496 0 L644 0 L546 126 C591 193 608 274 608 343 L485 340 C485 306 477 269 462 234 L461 234 L232 528 C238 564 265 606 326 605 C383 605 413 569 431 532 L539 572 C507 640 444 719 313 719 C193 719 104 635 92 517 L170 417 C98 375 41 306 41 209 C41 79 144 -8 274 -8 C350 -8 408 11 455 50 L457 50 L496 0 Z M172 217 C172 259 194 300 242 326 L385 142 L385 139 C358 122 326 111 288 111 C220 111 172 153 172 217 L172 217 Z " />
<glyph glyph-name="quotesingle" unicode="&#x27;" horiz-adv-x="227" d="M33 450 L134 450 L197 710 L63 710 L33 450 Z " />
<glyph glyph-name="parenleft" unicode="&#x28;" horiz-adv-x="311" d="M173 -157 L270 -114 C208 5 171 144 171 295 C171 444 207 588 271 704 L175 748 C96 629 52 468 52 295 C52 119 96 -36 173 -157 L173 -157 Z " />
<glyph glyph-name="parenright" unicode="&#x29;" horiz-adv-x="311" d="M138 -157 C215 -36 259 119 259 295 C259 468 215 629 136 748 L40 704 C104 588 140 444 140 295 C140 144 103 5 41 -114 L138 -157 Z " />
<glyph glyph-name="asterisk" unicode="&#x2a;" horiz-adv-x="403" d="M162 383 L241 383 L238 486 L323 431 L363 500 L272 547 L363 594 L323 662 L236 608 L241 710 L162 710 L167 608 L81 663 L40 594 L130 546 L41 500 L81 432 L167 486 L162 383 Z " />
<glyph glyph-name="plus" unicode="&#x2b;" horiz-adv-x="580" d="M232 41 L348 41 L348 220 L527 220 L527 334 L348 334 L348 514 L232 514 L232 334 L53 334 L53 220 L232 220 L232 41 Z " />
<glyph glyph-name="comma" unicode="&#x2c;" horiz-adv-x="244" d="M25 -133 L121 -133 L190 127 L56 127 L25 -133 Z " />
<glyph glyph-name="hyphen" unicode="&#x2d;" horiz-adv-x="400" d="M49 248 L352 248 L352 370 L49 370 L49 248 Z " />
<glyph glyph-name="period" unicode="&#x2e;" horiz-adv-x="270" d="M135 -8 C179 -8 216 27 216 71 C216 115 179 151 135 151 C90 151 54 115 54 71 C54 27 90 -8 135 -8 L135 -8 Z " />
<glyph glyph-name="slash" unicode="&#x2f;" horiz-adv-x="438" d="M66 -112 L447 742 L350 787 L-32 -67 L66 -112 Z " />
<glyph glyph-name="zero" unicode="0" horiz-adv-x="631" d="M315 -8 C482 -8 583 133 583 343 C583 565 475 695 315 695 C149 695 48 553 48 343 C48 121 157 -8 315 -8 L315 -8 Z M316 118 C235 118 187 205 187 343 C187 489 237 568 316 568 C397 568 444 482 444 343 C444 198 396 118 316 118 L316 118 Z " />
<glyph glyph-name="one" unicode="1" horiz-adv-x="411" d="M194 0 L331 0 L331 687 L222 687 L14 538 L79 437 L194 523 L194 0 Z " />
<glyph glyph-name="two" unicode="2" horiz-adv-x="531" d="M236 124 L236 126 L366 260 C455 352 480 413 480 491 C480 619 376 695 262 695 C147 695 74 638 34 565 L132 495 C162 545 203 569 251 569 C305 569 343 529 343 476 C343 421 306 374 251 315 L37 89 L39 0 L487 0 L487 124 L236 124 Z " />
<glyph glyph-name="three" unicode="3" horiz-adv-x="543" d="M390 355 L390 357 C445 389 479 445 479 511 C479 629 380 695 258 695 C157 695 78 644 46 573 L155 515 C175 550 205 572 255 572 C306 572 346 539 346 489 C346 444 318 408 257 408 L196 408 L196 297 L246 297 C321 297 359 255 359 206 C359 148 312 114 257 114 C195 114 157 143 139 192 L21 143 C54 56 145 -8 267 -8 C400 -8 499 68 499 187 C499 267 456 324 390 355 L390 355 Z " />
<glyph glyph-name="four" unicode="4" horiz-adv-x="574" d="M316 0 L450 0 L450 112 L542 112 L542 229 L450 229 L450 687 L340 687 L25 199 L25 112 L316 112 L316 0 Z M173 222 L326 468 L326 222 L173 222 Z " />
<glyph glyph-name="five" unicode="5" horiz-adv-x="554" d="M295 443 C272 443 241 438 209 428 L217 563 L474 563 L474 687 L99 687 L78 324 L150 297 C184 324 217 332 253 332 C309 332 371 296 371 224 C371 163 322 116 256 116 C196 116 152 142 124 179 L26 100 C83 28 169 -8 263 -8 C402 -8 509 86 509 222 C509 358 412 443 295 443 L295 443 Z " />
<glyph glyph-name="six" unicode="6" horiz-adv-x="586" d="M331 440 C286 440 241 429 204 408 L203 409 C242 507 326 566 449 601 L410 710 C194 670 47 490 47 267 C47 102 153 -8 294 -8 C435 -8 542 84 542 219 C542 361 446 440 331 440 L331 440 Z M298 114 C231 114 177 170 177 255 L177 265 C205 299 249 326 296 326 C365 326 409 282 409 222 C409 164 364 114 298 114 L298 114 Z " />
<glyph glyph-name="seven" unicode="7" horiz-adv-x="488" d="M22 687 L22 564 L300 564 L75 10 L210 -15 L449 598 L449 687 L22 687 Z " />
<glyph glyph-name="eight" unicode="8" horiz-adv-x="573" d="M414 371 L414 373 C457 390 500 446 500 516 C500 629 410 695 286 695 C167 695 73 632 73 516 C73 446 117 390 159 373 L159 371 C91 346 38 284 38 190 C38 71 144 -8 286 -8 C426 -8 536 67 536 190 C536 284 482 346 414 371 L414 371 Z M286 583 C336 583 374 549 374 503 C374 458 338 426 286 426 C235 426 199 458 199 503 C199 546 235 583 286 583 L286 583 Z M286 108 C224 108 175 151 175 208 C175 266 221 308 286 308 C352 308 397 266 397 208 C397 154 353 108 286 108 L286 108 Z " />
<glyph glyph-name="nine" unicode="9" horiz-adv-x="582" d="M287 695 C148 695 41 602 41 466 C41 326 136 246 250 246 C295 246 340 257 378 278 L379 277 C338 178 253 119 128 85 L168 -25 C384 16 535 193 535 419 C535 584 430 695 287 695 L287 695 Z M174 464 C174 522 219 572 289 572 C355 572 405 516 405 430 L405 421 C377 387 333 360 286 360 C216 360 174 403 174 464 L174 464 Z " />
<glyph glyph-name="colon" unicode="&#x3a;" horiz-adv-x="271" d="M134 337 C178 337 215 372 215 416 C215 460 178 496 134 496 C89 496 53 460 53 416 C53 372 89 337 134 337 L134 337 Z M134 -8 C178 -8 215 27 215 71 C215 115 178 151 134 151 C89 151 53 115 53 71 C53 27 89 -8 134 -8 L134 -8 Z " />
<glyph glyph-name="semicolon" unicode="&#x3b;" horiz-adv-x="252" d="M121 336 C165 336 202 371 202 415 C202 459 165 495 121 495 C76 495 40 459 40 415 C40 371 76 336 121 336 L121 336 Z M25 -133 L121 -133 L190 127 L56 127 L25 -133 Z " />
<glyph glyph-name="less" unicode="&#x3c;" horiz-adv-x="580" d="M517 26 L517 149 L222 274 L517 397 L517 523 L53 320 L53 226 L517 26 Z " />
<glyph glyph-name="equal" unicode="&#x3d;" horiz-adv-x="590" d="M64 335 L538 335 L538 449 L64 449 L64 335 Z M64 105 L538 105 L538 219 L64 219 L64 105 Z " />
<glyph glyph-name="greater" unicode="&#x3e;" horiz-adv-x="580" d="M63 26 L527 226 L527 320 L63 523 L63 397 L358 274 L63 149 L63 26 Z " />
<glyph glyph-name="question" unicode="&#x3f;" horiz-adv-x="468" d="M140 231 L256 231 L259 273 C262 309 301 339 342 377 C386 420 430 472 430 550 C430 681 331 745 219 745 C136 745 59 709 14 653 L107 566 C132 600 170 620 208 620 C255 620 288 592 288 542 C288 497 256 461 224 428 C184 384 138 344 139 281 L140 231 Z M200 -8 C244 -8 281 27 281 71 C281 115 244 151 200 151 C155 151 119 115 119 71 C119 27 155 -8 200 -8 L200 -8 Z " />
<glyph glyph-name="at" unicode="&#x40;" horiz-adv-x="898" d="M667 466 L539 466 L532 409 L531 409 C505 451 466 474 415 474 C275 474 226 324 226 240 C226 126 292 50 391 50 C437 50 491 79 516 116 L519 116 C523 99 530 84 542 74 C564 51 597 40 633 40 C813 40 856 201 856 293 C856 501 714 661 482 661 C158 661 43 408 43 239 C43 15 204 -148 416 -148 C505 -148 589 -121 661 -73 L620 -5 C561 -35 491 -57 416 -57 C270 -57 140 74 140 238 C140 382 236 571 482 571 C652 571 759 443 759 292 C759 235 728 138 673 138 C650 138 638 149 638 184 C638 191 639 199 639 208 L667 466 Z M430 163 C388 163 354 198 354 251 C354 312 398 361 454 361 C496 361 528 326 528 274 C528 215 486 163 430 163 L430 163 Z " />
<glyph glyph-name="A" unicode="A" horiz-adv-x="698" d="M535 0 L682 0 L417 710 L282 710 L19 0 L166 0 L214 142 L487 142 L535 0 Z M255 262 L349 541 L351 541 L446 262 L255 262 Z " />
<glyph glyph-name="B" unicode="B" horiz-adv-x="644" d="M459 377 L459 378 C537 408 566 473 566 537 C566 650 485 710 334 710 L78 710 L78 0 L372 0 C527 0 603 83 603 196 C603 290 551 354 459 377 L459 377 Z M216 586 L308 586 C390 586 424 553 424 503 C424 445 373 419 317 419 L216 419 L216 586 Z M330 124 L216 124 L216 306 L331 306 C415 306 456 270 456 214 C456 153 405 124 330 124 L330 124 Z " />
<glyph glyph-name="C" unicode="C" horiz-adv-x="726" d="M411 -7 C537 -7 633 51 694 127 L591 216 C549 164 485 126 411 126 C284 126 196 221 196 353 C196 495 288 585 411 585 C485 585 549 544 591 495 L694 583 C616 678 509 719 411 719 C179 719 49 556 49 353 C49 119 217 -7 411 -7 L411 -7 Z " />
<glyph glyph-name="D" unicode="D" horiz-adv-x="730" d="M78 0 L316 0 C544 0 682 145 682 354 C682 564 538 710 313 710 L78 710 L78 0 Z M217 125 L217 584 L316 584 C444 584 536 487 536 354 C536 224 445 125 307 125 L217 125 Z " />
<glyph glyph-name="E" unicode="E" horiz-adv-x="600" d="M78 0 L553 0 L553 125 L216 125 L216 290 L469 290 L469 414 L216 414 L216 584 L532 584 L532 710 L78 710 L78 0 Z " />
<glyph glyph-name="F" unicode="F" horiz-adv-x="588" d="M78 0 L217 0 L217 269 L494 269 L494 395 L217 395 L217 584 L549 584 L549 710 L78 710 L78 0 Z " />
<glyph glyph-name="G" unicode="G" horiz-adv-x="753" d="M412 -7 C521 -7 627 29 691 81 L691 387 L396 387 L396 267 L556 267 L556 162 C510 134 463 122 412 122 C278 122 196 224 196 354 C196 499 289 586 406 586 C484 586 544 555 588 513 L688 597 C615 680 506 719 406 719 C184 719 49 562 49 354 C49 126 207 -7 412 -7 L412 -7 Z " />
<glyph glyph-name="H" unicode="H" horiz-adv-x="729" d="M78 0 L219 0 L219 277 L510 277 L510 0 L651 0 L651 710 L510 710 L510 403 L219 403 L219 710 L78 710 L78 0 Z " />
<glyph glyph-name="I" unicode="I" horiz-adv-x="307" d="M83 0 L224 0 L224 710 L83 710 L83 0 Z " />
<glyph glyph-name="J" unicode="J" horiz-adv-x="506" d="M219 -7 C378 -7 437 93 437 250 L437 710 L296 710 L296 248 C296 153 259 124 209 124 C170 124 129 151 104 185 L24 86 C72 23 148 -7 219 -7 L219 -7 Z " />
<glyph glyph-name="K" unicode="K" horiz-adv-x="666" d="M289 285 L478 0 L651 0 L381 397 L643 710 L465 710 L219 397 L218 397 L218 710 L78 710 L78 0 L218 0 L218 202 L288 285 L289 285 Z " />
<glyph glyph-name="L" unicode="L" horiz-adv-x="566" d="M78 0 L535 0 L535 125 L219 125 L219 710 L78 710 L78 0 Z " />
<glyph glyph-name="M" unicode="M" horiz-adv-x="876" d="M657 710 L440 306 L438 306 L220 710 L78 710 L78 0 L218 0 L218 441 L220 441 L393 135 L484 135 L657 441 L659 441 L659 0 L798 0 L798 710 L657 710 Z " />
<glyph glyph-name="N" unicode="N" horiz-adv-x="755" d="M536 710 L536 230 L535 230 L218 710 L78 710 L78 0 L218 0 L218 471 L220 471 L533 0 L677 0 L677 710 L536 710 Z " />
<glyph glyph-name="O" unicode="O" horiz-adv-x="821" d="M411 -8 C620 -8 772 138 772 355 C772 572 620 719 411 719 C196 719 49 566 49 355 C49 145 196 -8 411 -8 L411 -8 Z M412 123 C284 123 195 226 195 355 C195 484 284 587 412 587 C534 587 626 489 626 355 C626 222 534 123 412 123 L412 123 Z " />
<glyph glyph-name="P" unicode="P" horiz-adv-x="624" d="M78 0 L217 0 L217 243 L328 243 C484 243 588 318 588 474 C588 610 513 710 341 710 L78 710 L78 0 Z M217 368 L217 585 L316 585 C398 585 442 542 442 477 C442 411 398 368 310 368 L217 368 Z " />
<glyph glyph-name="Q" unicode="Q" horiz-adv-x="837" d="M792 73 L713 143 C751 201 773 273 773 355 C773 572 620 719 412 719 C197 719 49 566 49 355 C49 145 197 -8 412 -8 C496 -8 571 16 631 59 L718 -21 L792 73 Z M412 123 C288 123 195 222 195 355 C195 489 288 587 412 587 C539 587 626 484 626 355 C626 314 617 276 601 242 L533 303 L460 214 L525 155 C493 135 455 123 412 123 L412 123 Z " />
<glyph glyph-name="R" unicode="R" horiz-adv-x="657" d="M624 0 L448 260 C539 290 594 360 594 474 C594 610 518 710 347 710 L78 710 L78 0 L217 0 L217 243 L299 243 L458 0 L624 0 Z M217 585 L321 585 C403 585 449 542 449 477 C449 411 402 367 315 367 L217 367 L217 585 Z " />
<glyph glyph-name="S" unicode="S" horiz-adv-x="584" d="M292 -8 C408 -8 543 55 543 210 C543 347 446 379 323 427 C242 459 203 478 204 522 C204 567 240 593 289 593 C333 593 385 572 444 523 L525 629 C456 687 374 720 286 719 C158 717 58 630 58 516 C58 382 165 332 272 294 C358 265 396 246 396 194 C396 150 362 119 294 119 C238 119 170 146 117 208 L33 104 C107 27 200 -8 292 -8 L292 -8 Z " />
<glyph glyph-name="T" unicode="T" horiz-adv-x="591" d="M225 0 L365 0 L365 584 L562 584 L562 710 L29 710 L29 584 L225 584 L225 0 Z " />
<glyph glyph-name="U" unicode="U" horiz-adv-x="713" d="M355 -8 C538 -8 644 109 644 294 L644 710 L503 710 L503 303 C503 190 441 124 355 124 C262 124 210 201 210 303 L210 710 L69 710 L69 294 C69 100 185 -8 355 -8 L355 -8 Z " />
<glyph glyph-name="V" unicode="V" horiz-adv-x="692" d="M522 710 L349 200 L347 200 L175 710 L22 710 L286 0 L410 0 L673 710 L522 710 Z " />
<glyph glyph-name="W" unicode="W" horiz-adv-x="1033" d="M857 710 L718 230 L717 230 L591 710 L442 710 L316 230 L314 230 L176 710 L26 710 L250 0 L379 0 L517 505 L520 505 L653 0 L783 0 L1007 710 L857 710 Z " />
<glyph glyph-name="X" unicode="X" horiz-adv-x="702" d="M512 0 L676 0 L444 357 L669 710 L508 710 L352 465 L350 465 L194 710 L33 710 L258 357 L26 0 L190 0 L350 249 L352 249 L512 0 Z " />
<glyph glyph-name="Y" unicode="Y" horiz-adv-x="632" d="M460 710 L317 451 L315 451 L170 710 L9 710 L244 312 L244 0 L386 0 L386 312 L623 710 L460 710 Z " />
<glyph glyph-name="Z" unicode="Z" horiz-adv-x="624" d="M230 125 L230 127 L569 603 L569 710 L65 710 L65 584 L383 584 L383 583 L51 110 L51 0 L570 0 L570 125 L230 125 Z " />
<glyph glyph-name="bracketleft" unicode="&#x5b;" horiz-adv-x="345" d="M62 -148 L299 -148 L299 -50 L174 -50 L174 636 L299 636 L299 733 L62 733 L62 -148 Z " />
<glyph glyph-name="backslash" unicode="&#x5c;" horiz-adv-x="443" d="M372 -112 L470 -67 L88 787 L-9 742 L372 -112 Z " />
<glyph glyph-name="bracketright" unicode="&#x5d;" horiz-adv-x="345" d="M283 -148 L283 733 L46 733 L46 636 L171 636 L171 -50 L46 -50 L46 -148 L283 -148 Z " />
<glyph glyph-name="asciicircum" unicode="&#x5e;" horiz-adv-x="467" d="M51 500 L153 500 L233 628 L310 500 L417 500 L279 710 L187 710 L51 500 Z " />
<glyph glyph-name="underscore" unicode="&#x5f;" horiz-adv-x="533" d="M-2 -115 L535 -115 L535 -27 L-2 -27 L-2 -115 Z " />
<glyph glyph-name="grave" unicode="&#x60;" horiz-adv-x="498" d="M229 535 L356 535 L243 682 L106 683 L229 535 Z " />
<glyph glyph-name="a" unicode="a" horiz-adv-x="607" d="M415 488 L415 433 L412 433 C377 475 327 496 269 496 C138 496 39 391 39 243 C39 92 137 -8 272 -8 C335 -8 385 16 418 59 L421 59 L421 0 L545 0 L545 488 L415 488 Z M296 109 C223 109 171 163 171 242 C171 326 227 379 297 379 C368 379 420 320 420 242 C420 162 364 109 296 109 L296 109 Z " />
<glyph glyph-name="b" unicode="b" horiz-adv-x="617" d="M347 496 C287 496 236 475 200 433 L197 433 L197 736 L66 736 L66 0 L191 0 L191 59 L194 59 C228 16 278 -8 343 -8 C479 -8 577 92 577 243 C577 391 478 496 347 496 L347 496 Z M319 109 C248 109 191 162 191 242 C191 320 244 379 319 379 C389 379 444 326 444 242 C444 163 393 109 319 109 L319 109 Z " />
<glyph glyph-name="c" unicode="c" horiz-adv-x="531" d="M291 -8 C389 -8 464 31 506 80 L417 159 C394 133 355 109 303 109 C226 109 172 165 172 245 C172 324 224 379 302 379 C352 379 390 357 416 327 L504 403 C455 465 375 496 297 496 C146 496 40 394 40 244 C40 94 146 -8 291 -8 L291 -8 Z " />
<glyph glyph-name="d" unicode="d" horiz-adv-x="616" d="M419 736 L419 433 L416 433 C380 475 329 496 269 496 C138 496 39 391 39 243 C39 92 138 -8 273 -8 C338 -8 389 16 423 59 L425 59 L425 0 L550 0 L550 736 L419 736 Z M297 109 C224 109 172 163 172 242 C172 326 227 379 297 379 C372 379 426 320 426 242 C426 162 369 109 297 109 L297 109 Z " />
<glyph glyph-name="e" unicode="e" horiz-adv-x="560" d="M521 249 C521 392 425 496 282 496 C143 496 40 393 40 245 C40 92 148 -8 291 -8 C389 -8 460 31 502 84 L417 163 C390 130 352 107 300 108 C237 108 191 144 175 202 L518 202 C521 210 521 233 521 249 L521 249 Z M286 381 C343 381 378 347 391 296 L176 296 C191 352 233 381 286 381 L286 381 Z " />
<glyph glyph-name="f" unicode="f" horiz-adv-x="348" d="M84 0 L215 0 L215 380 L324 380 L324 488 L215 488 L215 563 C215 610 234 628 265 628 C283 628 310 621 338 607 L364 709 C342 724 297 745 238 745 C141 745 84 686 84 572 L84 488 L33 488 L33 380 L84 380 L84 0 Z " />
<glyph glyph-name="g" unicode="g" horiz-adv-x="605" d="M413 488 L413 438 L410 438 C371 477 319 496 264 496 C133 496 38 393 38 249 C38 107 136 9 271 9 C330 9 379 29 413 66 L416 66 L416 17 C416 -43 369 -92 277 -92 C215 -92 167 -73 119 -46 L88 -157 C146 -189 212 -206 289 -206 C476 -206 543 -96 543 56 L543 488 L413 488 Z M295 127 C225 127 171 176 171 253 C171 327 222 377 295 377 C364 377 418 329 418 254 C418 180 367 127 295 127 L295 127 Z " />
<glyph glyph-name="h" unicode="h" horiz-adv-x="597" d="M358 496 C296 496 239 474 199 429 L197 429 L197 736 L66 736 L66 0 L197 0 L197 248 C197 335 242 379 312 379 C374 379 407 350 407 260 L407 0 L538 0 L538 293 C538 442 463 496 358 496 L358 496 Z " />
<glyph glyph-name="i" unicode="i" horiz-adv-x="275" d="M138 557 C183 557 220 593 220 637 C220 681 183 717 138 717 C94 717 57 681 57 637 C57 593 94 557 138 557 L138 557 Z M72 0 L203 0 L203 488 L72 488 L72 0 Z " />
<glyph glyph-name="j" unicode="j" horiz-adv-x="257" d="M129 560 C174 560 211 596 211 640 C211 684 174 720 129 720 C85 720 48 684 48 640 C48 596 85 560 129 560 L129 560 Z M52 -206 C138 -206 196 -147 196 -29 L196 488 L65 488 L65 -24 C65 -69 46 -92 15 -92 C0 -92 -15 -87 -28 -80 L-50 -188 C-18 -201 8 -206 52 -206 L52 -206 Z " />
<glyph glyph-name="k" unicode="k" horiz-adv-x="539" d="M267 194 L383 0 L529 0 L354 294 L526 488 L373 488 L198 291 L197 291 L197 736 L66 736 L66 0 L197 0 L197 117 L265 194 L267 194 Z " />
<glyph glyph-name="l" unicode="l" horiz-adv-x="275" d="M72 0 L203 0 L203 736 L72 736 L72 0 Z " />
<glyph glyph-name="m" unicode="m" horiz-adv-x="892" d="M661 496 C591 496 531 469 491 418 L489 418 C459 472 408 496 344 496 C289 496 236 471 198 423 L197 423 L197 488 L66 488 L66 0 L197 0 L197 244 C197 332 241 379 300 379 C361 379 386 330 386 252 L386 0 L517 0 L517 244 C517 332 562 379 617 379 C678 379 702 330 702 252 L702 0 L833 0 L833 284 C833 433 767 496 661 496 L661 496 Z " />
<glyph glyph-name="n" unicode="n" horiz-adv-x="592" d="M355 496 C295 496 239 472 199 425 L197 425 L197 488 L66 488 L66 0 L197 0 L197 246 C197 333 242 379 308 379 C369 379 402 350 402 257 L402 0 L533 0 L533 290 C533 440 460 496 355 496 L355 496 Z " />
<glyph glyph-name="o" unicode="o" horiz-adv-x="598" d="M299 -8 C451 -8 559 94 559 244 C559 394 451 496 299 496 C144 496 40 390 40 244 C40 98 144 -8 299 -8 L299 -8 Z M299 109 C225 109 172 168 172 244 C172 321 223 379 299 379 C372 379 426 324 426 244 C426 165 370 109 299 109 L299 109 Z " />
<glyph glyph-name="p" unicode="p" horiz-adv-x="617" d="M347 496 C287 496 236 474 199 432 L197 432 L197 488 L66 488 L66 -198 L197 -198 L197 55 L199 55 C233 15 281 -8 343 -8 C479 -8 577 92 577 243 C577 391 478 496 347 496 L347 496 Z M319 109 C248 109 192 162 192 242 C192 320 244 379 319 379 C389 379 444 326 444 242 C444 163 393 109 319 109 L319 109 Z " />
<glyph glyph-name="q" unicode="q" horiz-adv-x="614" d="M420 488 L420 432 L418 432 C381 474 330 496 270 496 C139 496 40 391 40 243 C40 92 138 -8 273 -8 C335 -8 384 15 419 56 L420 56 L420 -198 L551 -198 L551 488 L420 488 Z M297 109 C224 109 172 163 172 242 C172 326 228 379 298 379 C373 379 425 320 425 242 C425 162 369 109 297 109 L297 109 Z " />
<glyph glyph-name="r" unicode="r" horiz-adv-x="375" d="M346 496 C288 496 235 468 198 416 L197 416 L197 488 L66 488 L66 0 L197 0 L197 227 C197 299 241 354 322 354 C329 354 343 354 356 353 L356 495 C354 496 350 496 346 496 L346 496 Z " />
<glyph glyph-name="s" unicode="s" horiz-adv-x="448" d="M224 -8 C352 -8 414 57 414 144 C414 240 352 263 246 302 C198 320 172 334 172 354 C172 380 199 391 220 391 C256 391 299 375 337 339 L400 435 C345 478 290 496 222 496 C122 496 46 438 46 350 C46 256 116 218 196 191 C260 171 285 160 285 137 C285 113 263 97 225 97 C172 97 130 116 90 154 L26 63 C80 17 146 -8 224 -8 L224 -8 Z " />
<glyph glyph-name="t" unicode="t" horiz-adv-x="373" d="M218 -8 C284 -8 316 5 348 22 L314 127 C292 116 268 110 252 110 C222 110 209 130 209 172 L209 380 L342 380 L342 488 L209 488 L209 662 L79 648 L79 488 L21 488 L21 380 L79 380 L79 154 C79 44 134 -8 218 -8 L218 -8 Z " />
<glyph glyph-name="u" unicode="u" horiz-adv-x="577" d="M384 488 L384 251 C384 157 333 109 276 109 C215 109 188 139 188 229 L188 488 L58 488 L58 194 C58 45 132 -8 237 -8 C292 -8 345 15 382 60 L384 60 L384 0 L515 0 L515 488 L384 488 Z " />
<glyph glyph-name="v" unicode="v" horiz-adv-x="540" d="M384 488 L271 160 L270 160 L155 488 L17 488 L209 0 L332 0 L523 488 L384 488 Z " />
<glyph glyph-name="w" unicode="w" horiz-adv-x="772" d="M621 488 L526 191 L524 191 L438 488 L333 488 L248 191 L246 191 L151 488 L20 488 L187 0 L299 0 L385 301 L387 301 L473 0 L586 0 L752 488 L621 488 Z " />
<glyph glyph-name="x" unicode="x" horiz-adv-x="528" d="M364 0 L507 0 L338 250 L504 488 L356 488 L264 348 L263 348 L172 488 L23 488 L190 249 L21 0 L164 0 L263 140 L265 140 L364 0 Z " />
<glyph glyph-name="y" unicode="y" horiz-adv-x="539" d="M386 488 L274 186 L273 186 L153 488 L17 488 L211 30 L125 -198 L259 -198 L522 488 L386 488 Z " />
<glyph glyph-name="z" unicode="z" horiz-adv-x="486" d="M448 400 L448 488 L54 488 L54 381 L272 381 L272 380 L37 89 L37 0 L443 0 L443 107 L209 107 L209 109 L448 400 Z " />
<glyph glyph-name="braceleft" unicode="&#x7b;" horiz-adv-x="358" d="M238 399 L238 582 C238 607 250 646 295 646 L317 646 L317 733 L245 733 C173 733 127 676 127 606 L127 418 C127 383 126 343 44 340 L44 243 C126 241 127 206 127 165 L127 -20 C127 -98 180 -146 245 -146 L317 -146 L317 -60 L295 -60 C248 -60 238 -34 238 10 L238 184 C238 262 223 277 184 291 L184 293 C223 308 238 339 238 399 L238 399 Z " />
<glyph glyph-name="bar" unicode="&#x7c;" horiz-adv-x="317" d="M105 -115 L212 -115 L212 737 L105 737 L105 -115 Z " />
<glyph glyph-name="braceright" unicode="&#x7d;" horiz-adv-x="358" d="M231 418 L231 606 C231 676 185 733 113 733 L41 733 L41 646 L63 646 C108 646 120 607 120 582 L120 399 C120 339 135 308 174 293 L174 291 C135 277 120 262 120 184 L120 10 C120 -34 110 -60 63 -60 L41 -60 L41 -146 L113 -146 C178 -146 231 -98 231 -20 L231 165 C231 206 232 241 314 243 L314 340 C232 343 231 383 231 418 L231 418 Z " />
<glyph glyph-name="asciitilde" unicode="&#x7e;" horiz-adv-x="570" d="M142 195 C158 223 180 242 210 242 C232 242 253 233 276 223 C304 211 337 196 380 196 C445 196 495 254 519 330 L429 360 C415 334 391 314 361 314 C337 314 317 323 296 333 C271 345 241 359 193 359 C125 359 76 304 52 232 L142 195 Z " />
<glyph glyph-name="exclamdown" unicode="&#xa1;" horiz-adv-x="281" d="M140 495 C95 495 59 460 59 416 C59 372 95 336 140 336 C184 336 221 372 221 416 C221 460 184 495 140 495 L140 495 Z M94 254 L71 -249 L214 -249 L190 254 L94 254 Z " />
<glyph glyph-name="cent" unicode="&#xa2;" horiz-adv-x="543" d="M511 133 L421 213 C398 187 358 164 306 164 C227 164 173 220 173 299 C173 378 226 433 305 433 C355 433 394 412 421 381 L509 457 C470 506 412 536 351 547 L351 638 L250 638 L250 547 C124 526 41 430 41 298 C41 164 127 66 250 48 L250 -45 L351 -45 L351 50 C423 62 478 95 511 133 L511 133 Z " />
<glyph glyph-name="sterling" unicode="&#xa3;" horiz-adv-x="568" d="M44 0 L540 0 L540 125 L251 125 L251 315 L403 315 L403 411 L250 411 L250 444 C250 543 292 567 339 567 C377 567 419 545 450 506 L519 596 C472 659 396 694 320 694 C208 694 110 629 110 454 L110 411 L55 411 L55 315 L110 315 L110 125 L44 125 L44 0 Z " />
<glyph glyph-name="currency" unicode="&#xa4;" horiz-adv-x="513" d="M439 387 C439 423 428 456 411 484 L491 564 L432 624 L351 543 C323 561 290 571 255 571 C220 571 187 561 159 544 L79 623 L19 563 L99 483 C83 455 73 422 73 387 C73 352 82 320 99 292 L19 212 L79 152 L159 232 C187 215 220 205 255 205 C290 205 323 215 351 232 L432 151 L490 211 L411 291 C429 319 439 352 439 387 L439 387 Z M256 296 C205 297 163 338 163 389 C163 440 205 481 255 482 C306 482 348 440 349 389 C348 338 306 297 256 296 L256 296 Z " />
<glyph glyph-name="yen" unicode="&#xa5;" horiz-adv-x="596" d="M590 686 L426 686 L298 425 L168 686 L6 686 L156 415 L73 415 L73 349 L193 349 L220 299 L73 299 L73 233 L227 233 L227 0 L369 0 L369 233 L514 233 L514 299 L376 299 L403 349 L514 349 L514 415 L440 415 L590 686 Z " />
<glyph glyph-name="brokenbar" unicode="&#xa6;" horiz-adv-x="317" d="M105 385 L212 385 L212 737 L105 737 L105 385 Z M105 -114 L212 -114 L212 238 L105 238 L105 -114 Z " />
<glyph glyph-name="section" unicode="&#xa7;" horiz-adv-x="550" d="M427 141 C473 169 500 214 500 265 C500 372 425 396 295 450 C236 475 211 487 211 519 C211 546 234 567 276 567 C310 567 354 554 404 518 L478 609 C423 655 340 688 269 688 C147 688 72 614 72 517 C72 464 93 428 125 402 C78 375 51 330 51 270 C51 173 140 134 251 92 C317 67 342 53 342 19 C342 -14 313 -35 274 -35 C230 -35 175 -15 127 34 L51 -57 C114 -122 192 -153 276 -153 C399 -153 482 -86 482 21 C482 77 462 113 427 141 L427 141 Z M180 294 C180 315 195 338 229 346 L259 334 C349 299 371 284 371 248 C371 225 356 202 323 194 C312 199 300 203 288 208 C205 239 180 259 180 294 L180 294 Z " />
<glyph glyph-name="dieresis" unicode="&#xa8;" horiz-adv-x="523" d="M157 536 C201 536 238 572 238 616 C238 660 201 696 157 696 C112 696 76 660 76 616 C76 572 112 536 157 536 L157 536 Z M367 537 C410 537 447 573 447 616 C447 659 410 695 367 695 C322 695 286 659 286 616 C286 573 322 537 367 537 L367 537 Z " />
<glyph glyph-name="copyright" unicode="&#xa9;" horiz-adv-x="718" d="M358 0 C536 0 674 147 674 318 C674 490 537 635 360 635 C182 635 43 490 43 318 C43 146 181 0 358 0 L358 0 Z M358 84 C228 84 128 188 128 317 C128 445 228 551 360 551 C490 551 590 447 590 318 C590 190 489 84 358 84 L358 84 Z M368 153 C426 153 469 180 497 214 L442 261 C426 240 397 225 368 225 C315 225 281 263 281 316 C281 374 318 408 368 408 C399 408 426 391 442 371 L497 418 C461 462 412 480 368 480 C261 480 203 406 203 316 C203 208 279 153 368 153 L368 153 Z " />
<glyph glyph-name="ordfeminine" unicode="&#xaa;" horiz-adv-x="385" d="M261 687 L261 647 L260 647 C235 677 199 692 162 692 C83 692 27 630 27 540 C27 449 83 387 167 387 C205 387 237 400 259 425 L261 425 L261 393 L351 393 L351 687 L261 687 Z M190 473 C150 473 121 500 121 540 C121 580 151 607 191 607 C229 607 258 580 258 540 C258 499 229 473 190 473 L190 473 Z " />
<glyph glyph-name="guillemotleft" unicode="&#xab;" horiz-adv-x="512" d="M283 39 L163 247 L284 458 L158 458 L38 247 L156 39 L283 39 Z M488 39 L368 247 L490 458 L363 458 L243 247 L361 39 L488 39 Z " />
<glyph glyph-name="logicalnot" unicode="&#xac;" horiz-adv-x="552" d="M389 146 L503 146 L503 421 L49 421 L49 309 L389 309 L389 146 Z " />
<glyph glyph-name="registered" unicode="&#xae;" horiz-adv-x="723" d="M362 639 C183 639 43 492 43 319 C43 145 183 0 360 0 C540 0 679 146 679 319 C679 493 541 639 362 639 L362 639 Z M360 83 C229 83 128 188 128 318 C128 448 229 555 362 555 C493 555 594 449 594 319 C594 190 493 83 360 83 L360 83 Z M487 373 C487 436 452 483 373 483 L247 483 L247 160 L320 160 L320 266 L350 266 L417 160 L502 160 L426 276 C464 291 487 323 487 373 L487 373 Z M320 417 L357 417 C392 417 410 398 410 374 C410 348 391 331 356 331 L320 331 L320 417 Z " />
<glyph glyph-name="macron" unicode="&#xaf;" horiz-adv-x="443" d="M70 562 L374 562 L374 667 L70 667 L70 562 Z " />
<glyph glyph-name="degree" unicode="&#xb0;" horiz-adv-x="387" d="M193 440 C271 440 335 502 335 578 C335 655 269 719 193 719 C119 719 51 655 51 579 C51 502 116 440 193 440 L193 440 Z M193 519 C160 519 133 545 133 579 C133 612 161 640 193 640 C226 640 253 612 253 579 C253 545 228 519 193 519 L193 519 Z " />
<glyph glyph-name="plusminus" unicode="&#xb1;" horiz-adv-x="605" d="M237 177 L353 177 L353 356 L532 356 L532 470 L353 470 L353 650 L237 650 L237 470 L58 470 L58 356 L237 356 L237 177 Z M72 -3 L546 -3 L546 111 L72 111 L72 -3 Z " />
<glyph glyph-name="uni00B2" unicode="&#xb2;" horiz-adv-x="341" d="" />
<glyph glyph-name="uni00B3" unicode="&#xb3;" horiz-adv-x="348" d="" />
<glyph glyph-name="acute" unicode="&#xb4;" horiz-adv-x="499" d="M142 535 L268 535 L392 683 L255 682 L142 535 Z " />
<glyph glyph-name="uni00B5" unicode="&#xb5;" horiz-adv-x="582" d="M390 488 L390 244 C390 157 345 109 287 109 C226 109 193 148 193 238 L193 488 L63 488 L63 -198 L193 -198 L193 -97 C193 -61 190 -21 184 14 L185 15 C203 -1 226 -8 258 -8 C310 -8 357 17 391 61 L393 61 L400 0 L521 0 L521 488 L390 488 Z " />
<glyph glyph-name="paragraph" unicode="&#xb6;" horiz-adv-x="538" d="M379 -152 L456 -152 L456 671 L255 671 C118 671 37 596 37 483 C37 371 119 307 236 298 L236 0 L316 0 L316 587 L379 587 L379 -152 Z " />
<glyph glyph-name="periodcentered" unicode="&#xb7;" horiz-adv-x="276" d="M140 164 C184 164 221 199 221 243 C221 287 184 323 140 323 C95 323 59 287 59 243 C59 199 95 164 140 164 L140 164 Z " />
<glyph glyph-name="cedilla" unicode="&#xb8;" horiz-adv-x="370" d="M184 -31 L183 -30 L203 6 L131 6 L110 -36 L110 -73 C164 -73 192 -87 192 -105 C192 -126 167 -133 145 -133 C121 -133 106 -131 93 -126 L93 -185 C108 -188 125 -191 154 -191 C241 -191 277 -157 277 -112 C277 -61 244 -33 184 -31 L184 -31 Z " />
<glyph glyph-name="uni00B9" unicode="&#xb9;" horiz-adv-x="284" d="" />
<glyph glyph-name="ordmasculine" unicode="&#xba;" horiz-adv-x="384" d="M187 387 C280 387 348 450 348 540 C348 630 280 692 187 692 C93 692 27 629 27 540 C27 451 93 387 187 387 L187 387 Z M187 472 C149 472 123 501 123 540 C123 580 149 608 187 608 C225 608 252 581 252 540 C252 500 223 472 187 472 L187 472 Z " />
<glyph glyph-name="guillemotright" unicode="&#xbb;" horiz-adv-x="511" d="M24 39 L151 39 L269 247 L149 458 L22 458 L144 247 L24 39 Z M229 39 L356 39 L474 247 L354 458 L228 458 L349 247 L229 39 Z " />
<glyph glyph-name="onequarter" unicode="&#xbc;" horiz-adv-x="817" d="M300 -23 L614 683 L516 725 L201 19 L300 -23 Z M127 299 L229 299 L229 711 L150 711 L14 619 L64 540 L127 584 L127 299 Z M641 0 L743 0 L743 63 L797 63 L797 150 L743 150 L743 412 L663 412 L473 125 L473 63 L641 63 L641 0 Z M573 144 L649 262 L649 144 L573 144 Z " />
<glyph glyph-name="onehalf" unicode="&#xbd;" horiz-adv-x="851" d="M516 725 L201 19 L300 -23 L614 683 L516 725 Z M229 299 L229 711 L150 711 L14 619 L64 540 L127 584 L127 299 L229 299 Z M681 93 L681 95 L748 156 C809 211 821 246 821 293 C821 372 754 418 679 418 C608 418 555 383 530 340 L605 286 C624 313 651 323 670 323 C697 323 716 307 716 281 C716 255 698 233 662 197 L533 68 L534 0 L824 0 L824 93 L681 93 Z " />
<glyph glyph-name="threequarters" unicode="&#xbe;" horiz-adv-x="859" d="M557 725 L242 19 L341 -23 L655 683 L557 725 Z M324 412 C324 459 300 492 260 511 L260 512 C292 532 311 564 311 604 C311 677 247 717 167 717 C103 717 49 684 31 637 L116 592 C125 617 144 627 167 627 C195 627 213 610 213 585 C213 563 194 547 165 547 L130 547 L130 471 L158 471 C196 471 218 453 218 426 C218 400 198 382 167 382 C134 382 116 396 106 426 L14 389 C35 335 95 292 174 292 C263 292 324 338 324 412 L324 412 Z M785 150 L785 412 L705 412 L515 125 L515 63 L683 63 L683 0 L785 0 L785 63 L839 63 L839 150 L785 150 Z M691 144 L615 144 L691 262 L691 144 Z " />
<glyph glyph-name="questiondown" unicode="&#xbf;" horiz-adv-x="452" d="M266 496 C222 496 185 461 185 417 C185 373 222 337 266 337 C311 337 347 373 347 417 C347 461 311 496 266 496 L266 496 Z M326 257 L210 257 L207 215 C204 179 165 149 124 111 C80 68 36 16 36 -62 C36 -193 135 -257 247 -257 C330 -257 407 -221 452 -165 L359 -78 C334 -112 296 -132 258 -132 C211 -132 178 -104 178 -54 C178 -9 210 27 242 60 C282 104 328 144 327 207 L326 257 Z " />
<glyph glyph-name="Agrave" unicode="&#xc0;" horiz-adv-x="698" d="M407 784 L294 931 L157 932 L280 784 L407 784 Z M535 0 L682 0 L417 710 L282 710 L19 0 L166 0 L214 142 L487 142 L535 0 Z M255 262 L349 541 L351 541 L446 262 L255 262 Z " />
<glyph glyph-name="Aacute" unicode="&#xc1;" horiz-adv-x="698" d="M543 932 L406 931 L293 784 L419 784 L543 932 Z M535 0 L682 0 L417 710 L282 710 L19 0 L166 0 L214 142 L487 142 L535 0 Z M255 262 L349 541 L351 541 L446 262 L255 262 Z " />
<glyph glyph-name="Acircumflex" unicode="&#xc2;" horiz-adv-x="698" d="M348 857 L350 857 L401 782 L522 782 L405 932 L289 932 L178 782 L298 782 L348 857 Z M535 0 L682 0 L417 710 L282 710 L19 0 L166 0 L214 142 L487 142 L535 0 Z M255 262 L349 541 L351 541 L446 262 L255 262 Z " />
<glyph glyph-name="Atilde" unicode="&#xc3;" horiz-adv-x="698" d="M290 831 C309 831 326 821 345 810 C368 795 396 780 432 780 C488 780 529 831 549 905 L473 931 C460 901 440 882 416 882 C396 882 380 893 362 904 C340 916 317 931 276 931 C217 931 176 882 156 815 L234 781 C247 812 265 831 290 831 L290 831 Z M535 0 L682 0 L417 710 L282 710 L19 0 L166 0 L214 142 L487 142 L535 0 Z M255 262 L349 541 L351 541 L446 262 L255 262 Z " />
<glyph glyph-name="Adieresis" unicode="&#xc4;" horiz-adv-x="698" d="M244 785 C288 785 325 821 325 865 C325 909 288 945 244 945 C199 945 163 909 163 865 C163 821 199 785 244 785 L244 785 Z M454 786 C497 786 534 822 534 865 C534 908 497 944 454 944 C409 944 373 908 373 865 C373 822 409 786 454 786 L454 786 Z M535 0 L682 0 L417 710 L282 710 L19 0 L166 0 L214 142 L487 142 L535 0 Z M255 262 L349 541 L351 541 L446 262 L255 262 Z " />
<glyph glyph-name="Aring" unicode="&#xc5;" horiz-adv-x="698" d="M349 761 C414 761 458 808 458 865 C458 926 410 970 349 970 C287 970 242 922 242 865 C242 805 291 761 349 761 L349 761 Z M349 904 C370 904 387 887 387 867 C387 846 370 829 349 829 C328 829 312 845 312 866 C312 886 328 904 349 904 L349 904 Z M535 0 L682 0 L417 710 L282 710 L19 0 L166 0 L214 142 L487 142 L535 0 Z M255 262 L349 541 L351 541 L446 262 L255 262 Z " />
<glyph glyph-name="AE" unicode="&#xc6;" horiz-adv-x="956" d="M572 125 L572 291 L830 291 L830 415 L572 415 L572 584 L889 584 L889 710 L362 710 L6 0 L154 0 L224 142 L434 142 L434 0 L909 0 L909 125 L572 125 Z M283 262 L432 562 L434 562 L434 262 L283 262 Z " />
<glyph glyph-name="Ccedilla" unicode="&#xc7;" horiz-adv-x="726" d="M411 126 C284 126 196 221 196 353 C196 495 288 585 411 585 C485 585 549 544 591 495 L694 583 C616 678 509 719 411 719 C179 719 49 556 49 353 C49 145 182 22 348 -2 L348 -6 L333 -36 L333 -73 C387 -73 415 -87 415 -105 C415 -126 390 -133 368 -133 C344 -133 329 -131 316 -126 L316 -185 C331 -188 348 -191 377 -191 C464 -191 500 -157 500 -112 C500 -61 467 -33 407 -31 L406 -30 L419 -7 C541 -5 634 53 694 127 L591 216 C549 164 485 126 411 126 L411 126 Z " />
<glyph glyph-name="Egrave" unicode="&#xc8;" horiz-adv-x="600" d="M295 783 L422 783 L309 930 L172 931 L295 783 Z M78 0 L553 0 L553 125 L216 125 L216 290 L469 290 L469 414 L216 414 L216 584 L532 584 L532 710 L78 710 L78 0 Z " />
<glyph glyph-name="Eacute" unicode="&#xc9;" horiz-adv-x="600" d="M205 783 L331 783 L455 931 L318 930 L205 783 Z M78 0 L553 0 L553 125 L216 125 L216 290 L469 290 L469 414 L216 414 L216 584 L532 584 L532 710 L78 710 L78 0 Z " />
<glyph glyph-name="Ecircumflex" unicode="&#xca;" horiz-adv-x="600" d="M309 856 L311 856 L362 781 L483 781 L366 931 L250 931 L139 781 L259 781 L309 856 Z M216 125 L216 290 L469 290 L469 414 L216 414 L216 584 L532 584 L532 710 L78 710 L78 0 L553 0 L553 125 L216 125 Z " />
<glyph glyph-name="Edieresis" unicode="&#xcb;" horiz-adv-x="600" d="M205 784 C249 784 286 820 286 864 C286 908 249 944 205 944 C160 944 124 908 124 864 C124 820 160 784 205 784 L205 784 Z M415 785 C458 785 495 821 495 864 C495 907 458 943 415 943 C370 943 334 907 334 864 C334 821 370 785 415 785 L415 785 Z M78 0 L553 0 L553 125 L216 125 L216 290 L469 290 L469 414 L216 414 L216 584 L532 584 L532 710 L78 710 L78 0 Z " />
<glyph glyph-name="Igrave" unicode="&#xcc;" horiz-adv-x="307" d="M91 783 L218 783 L105 930 L-32 931 L91 783 Z M83 0 L224 0 L224 710 L83 710 L83 0 Z " />
<glyph glyph-name="Iacute" unicode="&#xcd;" horiz-adv-x="307" d="M95 783 L221 783 L345 931 L208 930 L95 783 Z M83 0 L224 0 L224 710 L83 710 L83 0 Z " />
<glyph glyph-name="Icircumflex" unicode="&#xce;" horiz-adv-x="307" d="M150 856 L152 856 L203 781 L324 781 L207 931 L91 931 L-20 781 L100 781 L150 856 Z M83 0 L224 0 L224 710 L83 710 L83 0 Z " />
<glyph glyph-name="Idieresis" unicode="&#xcf;" horiz-adv-x="307" d="M46 784 C90 784 127 820 127 864 C127 908 90 944 46 944 C1 944 -35 908 -35 864 C-35 820 1 784 46 784 L46 784 Z M256 785 C299 785 336 821 336 864 C336 907 299 943 256 943 C211 943 175 907 175 864 C175 821 211 785 256 785 L256 785 Z M83 0 L224 0 L224 710 L83 710 L83 0 Z " />
<glyph glyph-name="Eth" unicode="&#xd0;" horiz-adv-x="730" d="M313 710 L78 710 L78 410 L25 410 L25 293 L78 293 L78 0 L316 0 C544 0 682 145 682 354 C682 564 538 710 313 710 L313 710 Z M307 125 L217 125 L217 293 L328 293 L328 410 L217 410 L217 584 L316 584 C444 584 536 487 536 354 C536 224 445 125 307 125 L307 125 Z " />
<glyph glyph-name="Ntilde" unicode="&#xd1;" horiz-adv-x="755" d="M319 831 C338 831 355 821 374 810 C397 795 425 780 461 780 C517 780 558 831 578 905 L502 931 C489 901 469 882 445 882 C425 882 409 893 391 904 C369 916 346 931 305 931 C246 931 205 882 185 815 L263 781 C276 812 294 831 319 831 L319 831 Z M536 710 L536 230 L535 230 L218 710 L78 710 L78 0 L218 0 L218 471 L220 471 L533 0 L677 0 L677 710 L536 710 Z " />
<glyph glyph-name="Ograve" unicode="&#xd2;" horiz-adv-x="821" d="M355 784 L482 784 L369 931 L232 932 L355 784 Z M411 -8 C620 -8 772 138 772 355 C772 572 620 719 411 719 C196 719 49 566 49 355 C49 145 196 -8 411 -8 L411 -8 Z M412 123 C284 123 195 226 195 355 C195 484 284 587 412 587 C534 587 626 489 626 355 C626 222 534 123 412 123 L412 123 Z " />
<glyph glyph-name="Oacute" unicode="&#xd3;" horiz-adv-x="821" d="M353 784 L479 784 L603 932 L466 931 L353 784 Z M411 -8 C620 -8 772 138 772 355 C772 572 620 719 411 719 C196 719 49 566 49 355 C49 145 196 -8 411 -8 L411 -8 Z M412 123 C284 123 195 226 195 355 C195 484 284 587 412 587 C534 587 626 489 626 355 C626 222 534 123 412 123 L412 123 Z " />
<glyph glyph-name="Ocircumflex" unicode="&#xd4;" horiz-adv-x="821" d="M410 857 L412 857 L463 782 L584 782 L467 932 L351 932 L240 782 L360 782 L410 857 Z M411 719 C196 719 49 566 49 355 C49 145 196 -8 411 -8 C620 -8 772 138 772 355 C772 572 620 719 411 719 L411 719 Z M412 123 C284 123 195 226 195 355 C195 484 284 587 412 587 C534 587 626 489 626 355 C626 222 534 123 412 123 L412 123 Z " />
<glyph glyph-name="Otilde" unicode="&#xd5;" horiz-adv-x="821" d="M494 780 C550 780 591 831 611 905 L535 931 C522 901 502 882 478 882 C458 882 442 893 424 904 C402 916 379 931 338 931 C279 931 238 882 218 815 L296 781 C309 812 327 831 352 831 C371 831 388 821 407 810 C430 795 458 780 494 780 L494 780 Z M411 -8 C620 -8 772 138 772 355 C772 572 620 719 411 719 C196 719 49 566 49 355 C49 145 196 -8 411 -8 L411 -8 Z M412 123 C284 123 195 226 195 355 C195 484 284 587 412 587 C534 587 626 489 626 355 C626 222 534 123 412 123 L412 123 Z " />
<glyph glyph-name="Odieresis" unicode="&#xd6;" horiz-adv-x="821" d="M306 785 C350 785 387 821 387 865 C387 909 350 945 306 945 C261 945 225 909 225 865 C225 821 261 785 306 785 L306 785 Z M516 786 C559 786 596 822 596 865 C596 908 559 944 516 944 C471 944 435 908 435 865 C435 822 471 786 516 786 L516 786 Z M411 -8 C620 -8 772 138 772 355 C772 572 620 719 411 719 C196 719 49 566 49 355 C49 145 196 -8 411 -8 L411 -8 Z M412 123 C284 123 195 226 195 355 C195 484 284 587 412 587 C534 587 626 489 626 355 C626 222 534 123 412 123 L412 123 Z " />
<glyph glyph-name="multiply" unicode="&#xd7;" horiz-adv-x="527" d="M127 61 L264 197 L400 61 L480 140 L343 276 L480 414 L400 495 L263 357 L127 494 L47 414 L184 278 L47 141 L127 61 Z " />
<glyph glyph-name="Oslash" unicode="&#xd8;" horiz-adv-x="821" d="M778 677 L711 738 L631 651 C572 695 496 719 411 719 C196 719 49 566 49 355 C49 259 80 174 134 111 L58 28 L125 -35 L203 51 C261 13 331 -8 411 -8 C620 -8 772 138 772 355 C772 447 744 527 697 588 L778 677 Z M195 355 C195 484 284 587 412 587 C459 587 501 573 536 547 L234 219 C209 257 195 304 195 355 L195 355 Z M626 355 C626 222 534 123 412 123 C369 123 331 134 299 155 L596 478 C615 443 626 401 626 355 L626 355 Z " />
<glyph glyph-name="Ugrave" unicode="&#xd9;" horiz-adv-x="713" d="M311 784 L438 784 L325 931 L188 932 L311 784 Z M355 -8 C538 -8 644 109 644 294 L644 710 L503 710 L503 303 C503 190 441 124 355 124 C262 124 210 201 210 303 L210 710 L69 710 L69 294 C69 100 185 -8 355 -8 L355 -8 Z " />
<glyph glyph-name="Uacute" unicode="&#xda;" horiz-adv-x="713" d="M277 784 L403 784 L527 932 L390 931 L277 784 Z M355 -8 C538 -8 644 109 644 294 L644 710 L503 710 L503 303 C503 190 441 124 355 124 C262 124 210 201 210 303 L210 710 L69 710 L69 294 C69 100 185 -8 355 -8 L355 -8 Z " />
<glyph glyph-name="Ucircumflex" unicode="&#xdb;" horiz-adv-x="713" d="M354 857 L356 857 L407 782 L528 782 L411 932 L295 932 L184 782 L304 782 L354 857 Z M503 710 L503 303 C503 190 441 124 355 124 C262 124 210 201 210 303 L210 710 L69 710 L69 294 C69 100 185 -8 355 -8 C538 -8 644 109 644 294 L644 710 L503 710 Z " />
<glyph glyph-name="Udieresis" unicode="&#xdc;" horiz-adv-x="713" d="M250 785 C294 785 331 821 331 865 C331 909 294 945 250 945 C205 945 169 909 169 865 C169 821 205 785 250 785 L250 785 Z M460 786 C503 786 540 822 540 865 C540 908 503 944 460 944 C415 944 379 908 379 865 C379 822 415 786 460 786 L460 786 Z M355 -8 C538 -8 644 109 644 294 L644 710 L503 710 L503 303 C503 190 441 124 355 124 C262 124 210 201 210 303 L210 710 L69 710 L69 294 C69 100 185 -8 355 -8 L355 -8 Z " />
<glyph glyph-name="Yacute" unicode="&#xdd;" horiz-adv-x="632" d="M493 932 L356 931 L243 784 L369 784 L493 932 Z M460 710 L317 451 L315 451 L170 710 L9 710 L244 312 L244 0 L386 0 L386 312 L623 710 L460 710 Z " />
<glyph glyph-name="Thorn" unicode="&#xde;" horiz-adv-x="646" d="M78 0 L217 0 L217 120 L348 120 C504 120 608 195 608 348 C608 484 534 584 362 584 L217 584 L217 710 L78 710 L78 0 Z M217 244 L217 459 L336 459 C418 459 462 417 462 351 C462 288 418 244 330 244 L217 244 Z " />
<glyph glyph-name="germandbls" unicode="&#xdf;" horiz-adv-x="638" d="M485 422 L485 423 C545 459 562 515 562 560 C562 659 481 745 322 745 C161 745 67 661 67 485 L67 0 L198 0 L198 491 C198 593 247 629 326 629 C398 629 433 589 433 547 C433 515 416 457 331 456 L297 456 L297 351 L337 351 C420 351 471 294 471 227 C471 158 419 108 348 108 L284 108 L284 -8 L380 -8 C515 -8 604 81 604 222 C604 309 559 386 485 422 L485 422 Z " />
<glyph glyph-name="agrave" unicode="&#xe0;" horiz-adv-x="607" d="M388 556 L275 703 L138 704 L261 556 L388 556 Z M415 488 L415 433 L412 433 C377 475 327 496 269 496 C138 496 39 391 39 243 C39 92 137 -8 272 -8 C335 -8 385 16 418 59 L421 59 L421 0 L545 0 L545 488 L415 488 Z M296 109 C223 109 171 163 171 242 C171 326 227 379 297 379 C368 379 420 320 420 242 C420 162 364 109 296 109 L296 109 Z " />
<glyph glyph-name="aacute" unicode="&#xe1;" horiz-adv-x="607" d="M473 704 L336 703 L223 556 L349 556 L473 704 Z M415 488 L415 433 L412 433 C377 475 327 496 269 496 C138 496 39 391 39 243 C39 92 137 -8 272 -8 C335 -8 385 16 418 59 L421 59 L421 0 L545 0 L545 488 L415 488 Z M296 109 C223 109 171 163 171 242 C171 326 227 379 297 379 C368 379 420 320 420 242 C420 162 364 109 296 109 L296 109 Z " />
<glyph glyph-name="acircumflex" unicode="&#xe2;" horiz-adv-x="607" d="M300 629 L302 629 L353 554 L474 554 L357 704 L241 704 L130 554 L250 554 L300 629 Z M415 488 L415 433 L412 433 C377 475 327 496 269 496 C138 496 39 391 39 243 C39 92 137 -8 272 -8 C335 -8 385 16 418 59 L421 59 L421 0 L545 0 L545 488 L415 488 Z M296 109 C223 109 171 163 171 242 C171 326 227 379 297 379 C368 379 420 320 420 242 C420 162 364 109 296 109 L296 109 Z " />
<glyph glyph-name="atilde" unicode="&#xe3;" horiz-adv-x="607" d="M242 603 C261 603 278 593 297 582 C320 567 348 552 384 552 C440 552 481 603 501 677 L425 703 C412 673 392 654 368 654 C348 654 332 665 314 676 C292 688 269 703 228 703 C169 703 128 654 108 587 L186 553 C199 584 217 603 242 603 L242 603 Z M415 488 L415 433 L412 433 C377 475 327 496 269 496 C138 496 39 391 39 243 C39 92 137 -8 272 -8 C335 -8 385 16 418 59 L421 59 L421 0 L545 0 L545 488 L415 488 Z M296 109 C223 109 171 163 171 242 C171 326 227 379 297 379 C368 379 420 320 420 242 C420 162 364 109 296 109 L296 109 Z " />
<glyph glyph-name="adieresis" unicode="&#xe4;" horiz-adv-x="607" d="M196 557 C240 557 277 593 277 637 C277 681 240 717 196 717 C151 717 115 681 115 637 C115 593 151 557 196 557 L196 557 Z M406 558 C449 558 486 594 486 637 C486 680 449 716 406 716 C361 716 325 680 325 637 C325 594 361 558 406 558 L406 558 Z M415 488 L415 433 L412 433 C377 475 327 496 269 496 C138 496 39 391 39 243 C39 92 137 -8 272 -8 C335 -8 385 16 418 59 L421 59 L421 0 L545 0 L545 488 L415 488 Z M296 109 C223 109 171 163 171 242 C171 326 227 379 297 379 C368 379 420 320 420 242 C420 162 364 109 296 109 L296 109 Z " />
<glyph glyph-name="aring" unicode="&#xe5;" horiz-adv-x="607" d="M301 533 C366 533 410 580 410 637 C410 698 362 742 301 742 C239 742 194 694 194 637 C194 577 243 533 301 533 L301 533 Z M301 676 C322 676 339 659 339 639 C339 618 322 601 301 601 C280 601 264 617 264 638 C264 658 280 676 301 676 L301 676 Z M415 488 L415 433 L412 433 C377 475 327 496 269 496 C138 496 39 391 39 243 C39 92 137 -8 272 -8 C335 -8 385 16 418 59 L421 59 L421 0 L545 0 L545 488 L415 488 Z M296 109 C223 109 171 163 171 242 C171 326 227 379 297 379 C368 379 420 320 420 242 C420 162 364 109 296 109 L296 109 Z " />
<glyph glyph-name="ae" unicode="&#xe6;" horiz-adv-x="793" d="M766 249 C766 392 676 496 550 496 C486 496 433 472 396 430 L393 430 C364 479 314 496 250 496 C166 496 90 465 64 451 L117 354 C157 375 204 386 242 386 C288 386 313 367 313 303 L313 296 L226 296 C93 295 30 236 30 142 C30 57 86 -8 211 -8 C290 -8 351 25 384 63 L387 63 C425 20 482 -8 551 -8 C636 -8 705 31 747 84 L656 160 C634 133 600 108 559 108 C499 108 457 145 442 201 L762 202 C764 206 766 233 766 249 L766 249 Z M544 381 C590 381 624 347 637 296 L443 296 C457 351 495 381 544 381 L544 381 Z M225 95 C181 95 158 119 158 150 C158 186 188 204 240 204 L313 205 L313 167 C313 137 277 95 225 95 L225 95 Z " />
<glyph glyph-name="ccedilla" unicode="&#xe7;" horiz-adv-x="531" d="M307 -8 C397 -4 466 34 506 80 L417 159 C394 133 355 109 303 109 C226 109 172 165 172 245 C172 324 224 379 302 379 C352 379 390 357 416 327 L504 403 C455 465 375 496 297 496 C146 496 40 394 40 244 C40 113 120 19 237 -3 L237 -4 L221 -36 L221 -73 C275 -73 303 -87 303 -105 C303 -126 278 -133 256 -133 C232 -133 217 -131 204 -126 L204 -185 C219 -188 236 -191 265 -191 C352 -191 388 -157 388 -112 C388 -61 355 -33 295 -31 L294 -30 L307 -8 Z " />
<glyph glyph-name="egrave" unicode="&#xe8;" horiz-adv-x="560" d="M377 556 L264 703 L127 704 L250 556 L377 556 Z M521 249 C521 392 425 496 282 496 C143 496 40 393 40 245 C40 92 148 -8 291 -8 C389 -8 460 31 502 84 L417 163 C390 130 352 107 300 108 C237 108 191 144 175 202 L518 202 C521 210 521 233 521 249 L521 249 Z M286 381 C343 381 378 347 391 296 L176 296 C191 352 233 381 286 381 L286 381 Z " />
<glyph glyph-name="eacute" unicode="&#xe9;" horiz-adv-x="560" d="M472 704 L335 703 L222 556 L348 556 L472 704 Z M521 249 C521 392 425 496 282 496 C143 496 40 393 40 245 C40 92 148 -8 291 -8 C389 -8 460 31 502 84 L417 163 C390 130 352 107 300 108 C237 108 191 144 175 202 L518 202 C521 210 521 233 521 249 L521 249 Z M286 381 C343 381 378 347 391 296 L176 296 C191 352 233 381 286 381 L286 381 Z " />
<glyph glyph-name="ecircumflex" unicode="&#xea;" horiz-adv-x="560" d="M287 629 L289 629 L340 554 L461 554 L344 704 L228 704 L117 554 L237 554 L287 629 Z M521 249 C521 392 425 496 282 496 C143 496 40 393 40 245 C40 92 148 -8 291 -8 C389 -8 460 31 502 84 L417 163 C390 130 352 107 300 108 C237 108 191 144 175 202 L518 202 C521 210 521 233 521 249 L521 249 Z M286 381 C343 381 378 347 391 296 L176 296 C191 352 233 381 286 381 L286 381 Z " />
<glyph glyph-name="edieresis" unicode="&#xeb;" horiz-adv-x="560" d="M183 557 C227 557 264 593 264 637 C264 681 227 717 183 717 C138 717 102 681 102 637 C102 593 138 557 183 557 L183 557 Z M393 558 C436 558 473 594 473 637 C473 680 436 716 393 716 C348 716 312 680 312 637 C312 594 348 558 393 558 L393 558 Z M521 249 C521 392 425 496 282 496 C143 496 40 393 40 245 C40 92 148 -8 291 -8 C389 -8 460 31 502 84 L417 163 C390 130 352 107 300 108 C237 108 191 144 175 202 L518 202 C521 210 521 233 521 249 L521 249 Z M286 381 C343 381 378 347 391 296 L176 296 C191 352 233 381 286 381 L286 381 Z " />
<glyph glyph-name="igrave" unicode="&#xec;" horiz-adv-x="275" d="M74 556 L200 556 L125 703 L-12 704 L74 556 Z M72 0 L203 0 L203 488 L72 488 L72 0 Z " />
<glyph glyph-name="iacute" unicode="&#xed;" horiz-adv-x="275" d="M79 556 L205 556 L329 704 L192 703 L79 556 Z M72 0 L203 0 L203 488 L72 488 L72 0 Z " />
<glyph glyph-name="icircumflex" unicode="&#xee;" horiz-adv-x="275" d="M136 629 L138 629 L189 554 L310 554 L193 704 L77 704 L-34 554 L86 554 L136 629 Z M72 0 L203 0 L203 488 L72 488 L72 0 Z " />
<glyph glyph-name="idieresis" unicode="&#xef;" horiz-adv-x="275" d="M45 557 C89 557 126 593 126 637 C126 681 89 717 45 717 C2 717 -34 681 -34 637 C-34 593 2 557 45 557 L45 557 Z M229 558 C270 558 306 594 306 637 C306 680 270 716 229 716 C185 716 148 680 148 637 C148 594 185 558 229 558 L229 558 Z M72 0 L203 0 L203 488 L72 488 L72 0 Z " />
<glyph glyph-name="eth" unicode="&#xf0;" horiz-adv-x="592" d="M552 255 C552 417 479 549 363 641 L411 678 L355 746 L286 691 C251 711 213 728 173 741 L116 649 C142 640 167 629 192 617 L146 581 L202 517 L268 568 C310 535 346 495 373 447 L373 446 C341 459 305 467 273 467 C144 467 40 376 40 229 C40 93 150 -8 292 -8 C445 -8 552 98 552 253 L552 255 Z M295 109 C225 109 173 164 173 238 C173 305 225 360 294 360 C367 360 418 308 418 238 C418 164 367 109 295 109 L295 109 Z " />
<glyph glyph-name="ntilde" unicode="&#xf1;" horiz-adv-x="592" d="M240 603 C259 603 276 593 295 582 C318 567 346 552 382 552 C438 552 479 603 499 677 L423 703 C410 673 390 654 366 654 C346 654 330 665 312 676 C290 688 267 703 226 703 C167 703 126 654 106 587 L184 553 C197 584 215 603 240 603 L240 603 Z M355 496 C295 496 239 472 199 425 L197 425 L197 488 L66 488 L66 0 L197 0 L197 246 C197 333 242 379 308 379 C369 379 402 350 402 257 L402 0 L533 0 L533 290 C533 440 460 496 355 496 L355 496 Z " />
<glyph glyph-name="ograve" unicode="&#xf2;" horiz-adv-x="598" d="M251 556 L378 556 L265 703 L128 704 L251 556 Z M299 -8 C451 -8 559 94 559 244 C559 394 451 496 299 496 C144 496 40 390 40 244 C40 98 144 -8 299 -8 L299 -8 Z M299 109 C225 109 172 168 172 244 C172 321 223 379 299 379 C372 379 426 324 426 244 C426 165 370 109 299 109 L299 109 Z " />
<glyph glyph-name="oacute" unicode="&#xf3;" horiz-adv-x="598" d="M235 556 L361 556 L485 704 L348 703 L235 556 Z M299 -8 C451 -8 559 94 559 244 C559 394 451 496 299 496 C144 496 40 390 40 244 C40 98 144 -8 299 -8 L299 -8 Z M299 109 C225 109 172 168 172 244 C172 321 223 379 299 379 C372 379 426 324 426 244 C426 165 370 109 299 109 L299 109 Z " />
<glyph glyph-name="ocircumflex" unicode="&#xf4;" horiz-adv-x="598" d="M298 629 L300 629 L351 554 L472 554 L355 704 L239 704 L128 554 L248 554 L298 629 Z M299 496 C144 496 40 390 40 244 C40 98 144 -8 299 -8 C451 -8 559 94 559 244 C559 394 451 496 299 496 L299 496 Z M299 109 C225 109 172 168 172 244 C172 321 223 379 299 379 C372 379 426 324 426 244 C426 165 370 109 299 109 L299 109 Z " />
<glyph glyph-name="otilde" unicode="&#xf5;" horiz-adv-x="598" d="M382 552 C438 552 479 603 499 677 L423 703 C410 673 390 654 366 654 C346 654 330 665 312 676 C290 688 267 703 226 703 C167 703 126 654 106 587 L184 553 C197 584 215 603 240 603 C259 603 276 593 295 582 C318 567 346 552 382 552 L382 552 Z M299 -8 C451 -8 559 94 559 244 C559 394 451 496 299 496 C144 496 40 390 40 244 C40 98 144 -8 299 -8 L299 -8 Z M299 109 C225 109 172 168 172 244 C172 321 223 379 299 379 C372 379 426 324 426 244 C426 165 370 109 299 109 L299 109 Z " />
<glyph glyph-name="odieresis" unicode="&#xf6;" horiz-adv-x="598" d="M194 557 C238 557 275 593 275 637 C275 681 238 717 194 717 C149 717 113 681 113 637 C113 593 149 557 194 557 L194 557 Z M404 558 C447 558 484 594 484 637 C484 680 447 716 404 716 C359 716 323 680 323 637 C323 594 359 558 404 558 L404 558 Z M299 -8 C451 -8 559 94 559 244 C559 394 451 496 299 496 C144 496 40 390 40 244 C40 98 144 -8 299 -8 L299 -8 Z M299 109 C225 109 172 168 172 244 C172 321 223 379 299 379 C372 379 426 324 426 244 C426 165 370 109 299 109 L299 109 Z " />
<glyph glyph-name="divide" unicode="&#xf7;" horiz-adv-x="571" d="M286 395 C330 395 366 430 366 473 C366 516 330 550 286 550 C244 550 208 516 208 473 C208 430 244 395 286 395 L286 395 Z M54 220 L528 220 L528 334 L54 334 L54 220 Z M286 -4 C330 -4 366 31 366 74 C366 117 330 151 286 151 C244 151 208 117 208 74 C208 31 244 -4 286 -4 L286 -4 Z " />
<glyph glyph-name="oslash" unicode="&#xf8;" horiz-adv-x="598" d="M560 461 L503 514 L449 455 C407 482 356 496 299 496 C144 496 40 390 40 244 C40 179 61 122 98 78 L49 26 L106 -28 L158 28 C197 5 245 -8 299 -8 C451 -8 559 94 559 244 C559 307 540 361 507 404 L560 461 Z M172 244 C172 321 223 379 299 379 C323 379 344 373 362 363 L188 176 C178 196 172 219 172 244 L172 244 Z M426 244 C426 165 370 109 299 109 C279 109 261 113 244 121 L414 304 C422 286 426 266 426 244 L426 244 Z " />
<glyph glyph-name="ugrave" unicode="&#xf9;" horiz-adv-x="577" d="M373 556 L260 703 L123 704 L246 556 L373 556 Z M384 488 L384 251 C384 157 333 109 276 109 C215 109 188 139 188 229 L188 488 L58 488 L58 194 C58 45 132 -8 237 -8 C292 -8 345 15 382 60 L384 60 L384 0 L515 0 L515 488 L384 488 Z " />
<glyph glyph-name="uacute" unicode="&#xfa;" horiz-adv-x="577" d="M471 704 L334 703 L221 556 L347 556 L471 704 Z M384 488 L384 251 C384 157 333 109 276 109 C215 109 188 139 188 229 L188 488 L58 488 L58 194 C58 45 132 -8 237 -8 C292 -8 345 15 382 60 L384 60 L384 0 L515 0 L515 488 L384 488 Z " />
<glyph glyph-name="ucircumflex" unicode="&#xfb;" horiz-adv-x="577" d="M286 629 L288 629 L339 554 L460 554 L343 704 L227 704 L116 554 L236 554 L286 629 Z M384 488 L384 251 C384 157 333 109 276 109 C215 109 188 139 188 229 L188 488 L58 488 L58 194 C58 45 132 -8 237 -8 C292 -8 345 15 382 60 L384 60 L384 0 L515 0 L515 488 L384 488 Z " />
<glyph glyph-name="udieresis" unicode="&#xfc;" horiz-adv-x="577" d="M182 557 C226 557 263 593 263 637 C263 681 226 717 182 717 C137 717 101 681 101 637 C101 593 137 557 182 557 L182 557 Z M392 558 C435 558 472 594 472 637 C472 680 435 716 392 716 C347 716 311 680 311 637 C311 594 347 558 392 558 L392 558 Z M384 488 L384 251 C384 157 333 109 276 109 C215 109 188 139 188 229 L188 488 L58 488 L58 194 C58 45 132 -8 237 -8 C292 -8 345 15 382 60 L384 60 L384 0 L515 0 L515 488 L384 488 Z " />
<glyph glyph-name="yacute" unicode="&#xfd;" horiz-adv-x="539" d="M442 704 L305 703 L192 556 L318 556 L442 704 Z M386 488 L274 186 L273 186 L153 488 L17 488 L211 30 L125 -198 L259 -198 L522 488 L386 488 Z " />
<glyph glyph-name="thorn" unicode="&#xfe;" horiz-adv-x="617" d="M347 496 C287 496 236 474 199 432 L197 432 L197 736 L66 736 L66 -198 L197 -198 L197 55 L199 55 C233 15 281 -8 343 -8 C479 -8 577 92 577 243 C577 391 478 496 347 496 L347 496 Z M319 109 C248 109 192 162 192 242 C192 320 244 379 319 379 C389 379 444 326 444 242 C444 163 393 109 319 109 L319 109 Z " />
<glyph glyph-name="ydieresis" unicode="&#xff;" horiz-adv-x="539" d="M165 557 C209 557 246 593 246 637 C246 681 209 717 165 717 C120 717 84 681 84 637 C84 593 120 557 165 557 L165 557 Z M375 558 C418 558 455 594 455 637 C455 680 418 716 375 716 C330 716 294 680 294 637 C294 594 330 558 375 558 L375 558 Z M386 488 L274 186 L273 186 L153 488 L17 488 L211 30 L125 -198 L259 -198 L522 488 L386 488 Z " />
<glyph glyph-name="Amacron" unicode="&#x100;" horiz-adv-x="698" d="M502 916 L198 916 L198 811 L502 811 L502 916 Z M535 0 L682 0 L417 710 L282 710 L19 0 L166 0 L214 142 L487 142 L535 0 Z M255 262 L349 541 L351 541 L446 262 L255 262 Z " />
<glyph glyph-name="amacron" unicode="&#x101;" horiz-adv-x="607" d="M454 688 L150 688 L150 583 L454 583 L454 688 Z M415 488 L415 433 L412 433 C377 475 327 496 269 496 C138 496 39 391 39 243 C39 92 137 -8 272 -8 C335 -8 385 16 418 59 L421 59 L421 0 L545 0 L545 488 L415 488 Z M296 109 C223 109 171 163 171 242 C171 326 227 379 297 379 C368 379 420 320 420 242 C420 162 364 109 296 109 L296 109 Z " />
<glyph glyph-name="Abreve" unicode="&#x102;" horiz-adv-x="698" d="M350 779 C446 779 507 843 514 929 L414 929 C412 890 386 866 350 866 C311 866 288 894 286 929 L187 929 C195 832 267 779 350 779 L350 779 Z M535 0 L682 0 L417 710 L282 710 L19 0 L166 0 L214 142 L487 142 L535 0 Z M255 262 L349 541 L351 541 L446 262 L255 262 Z " />
<glyph glyph-name="abreve" unicode="&#x103;" horiz-adv-x="607" d="M302 551 C398 551 459 615 466 701 L366 701 C364 662 338 638 302 638 C263 638 240 666 238 701 L139 701 C147 604 219 551 302 551 L302 551 Z M415 488 L415 433 L412 433 C377 475 327 496 269 496 C138 496 39 391 39 243 C39 92 137 -8 272 -8 C335 -8 385 16 418 59 L421 59 L421 0 L545 0 L545 488 L415 488 Z M296 109 C223 109 171 163 171 242 C171 326 227 379 297 379 C368 379 420 320 420 242 C420 162 364 109 296 109 L296 109 Z " />
<glyph glyph-name="Aogonek" unicode="&#x104;" horiz-adv-x="698" d="M613 -113 C586 -113 572 -97 572 -72 C572 -42 602 -9 653 0 L682 0 L417 710 L282 710 L19 0 L166 0 L214 142 L487 142 L535 1 C494 -27 473 -66 473 -98 C473 -152 516 -189 586 -189 C612 -189 639 -186 659 -177 L652 -106 C642 -110 638 -113 613 -113 L613 -113 Z M255 262 L349 541 L351 541 L446 262 L255 262 Z " />
<glyph glyph-name="aogonek" unicode="&#x105;" horiz-adv-x="607" d="M531 0 L545 0 L545 488 L415 488 L415 433 L412 433 C377 475 327 496 269 496 C138 496 39 391 39 243 C39 92 137 -8 272 -8 C335 -8 385 16 418 59 L421 59 L421 6 C374 -21 351 -64 351 -98 C351 -152 394 -189 464 -189 C490 -189 517 -186 537 -177 L530 -106 C520 -110 516 -113 491 -113 C464 -113 450 -97 450 -72 C450 -42 480 -9 531 0 L531 0 Z M296 109 C223 109 171 163 171 242 C171 326 227 379 297 379 C368 379 420 320 420 242 C420 162 364 109 296 109 L296 109 Z " />
<glyph glyph-name="Cacute" unicode="&#x106;" horiz-adv-x="726" d="M340 784 L466 784 L590 932 L453 931 L340 784 Z M411 -7 C537 -7 633 51 694 127 L591 216 C549 164 485 126 411 126 C284 126 196 221 196 353 C196 495 288 585 411 585 C485 585 549 544 591 495 L694 583 C616 678 509 719 411 719 C179 719 49 556 49 353 C49 119 217 -7 411 -7 L411 -7 Z " />
<glyph glyph-name="cacute" unicode="&#x107;" horiz-adv-x="531" d="M224 556 L350 556 L474 704 L337 703 L224 556 Z M291 -8 C389 -8 464 31 506 80 L417 159 C394 133 355 109 303 109 C226 109 172 165 172 245 C172 324 224 379 302 379 C352 379 390 357 416 327 L504 403 C455 465 375 496 297 496 C146 496 40 394 40 244 C40 94 146 -8 291 -8 L291 -8 Z " />
<glyph glyph-name="Ccircumflex" unicode="&#x108;" horiz-adv-x="726" d="M408 857 L410 857 L461 782 L582 782 L465 932 L349 932 L238 782 L358 782 L408 857 Z M411 126 C284 126 196 221 196 353 C196 495 288 585 411 585 C485 585 549 544 591 495 L694 583 C616 678 509 719 411 719 C179 719 49 556 49 353 C49 119 217 -7 411 -7 C537 -7 633 51 694 127 L591 216 C549 164 485 126 411 126 L411 126 Z " />
<glyph glyph-name="ccircumflex" unicode="&#x109;" horiz-adv-x="531" d="M295 629 L297 629 L348 554 L469 554 L352 704 L236 704 L125 554 L245 554 L295 629 Z M417 159 C394 133 355 109 303 109 C226 109 172 165 172 245 C172 324 224 379 302 379 C352 379 390 357 416 327 L504 403 C455 465 375 496 297 496 C146 496 40 394 40 244 C40 94 146 -8 291 -8 C389 -8 464 31 506 80 L417 159 Z " />
<glyph glyph-name="Cdotaccent" unicode="&#x10a;" horiz-adv-x="726" d="M410 785 C455 785 492 821 492 865 C492 909 455 945 410 945 C366 945 329 909 329 865 C329 821 366 785 410 785 L410 785 Z M411 -7 C537 -7 633 51 694 127 L591 216 C549 164 485 126 411 126 C284 126 196 221 196 353 C196 495 288 585 411 585 C485 585 549 544 591 495 L694 583 C616 678 509 719 411 719 C179 719 49 556 49 353 C49 119 217 -7 411 -7 L411 -7 Z " />
<glyph glyph-name="cdotaccent" unicode="&#x10b;" horiz-adv-x="531" d="M297 557 C342 557 379 593 379 637 C379 681 342 717 297 717 C253 717 216 681 216 637 C216 593 253 557 297 557 L297 557 Z M291 -8 C389 -8 464 31 506 80 L417 159 C394 133 355 109 303 109 C226 109 172 165 172 245 C172 324 224 379 302 379 C352 379 390 357 416 327 L504 403 C455 465 375 496 297 496 C146 496 40 394 40 244 C40 94 146 -8 291 -8 L291 -8 Z " />
<glyph glyph-name="Ccaron" unicode="&#x10c;" horiz-adv-x="726" d="M467 782 L582 932 L462 932 L411 856 L409 856 L359 932 L238 932 L352 782 L467 782 Z M411 126 C284 126 196 221 196 353 C196 495 288 585 411 585 C485 585 549 544 591 495 L694 583 C616 678 509 719 411 719 C179 719 49 556 49 353 C49 119 217 -7 411 -7 C537 -7 633 51 694 127 L591 216 C549 164 485 126 411 126 L411 126 Z " />
<glyph glyph-name="ccaron" unicode="&#x10d;" horiz-adv-x="531" d="M354 554 L469 704 L349 704 L298 628 L296 628 L246 704 L125 704 L239 554 L354 554 Z M417 159 C394 133 355 109 303 109 C226 109 172 165 172 245 C172 324 224 379 302 379 C352 379 390 357 416 327 L504 403 C455 465 375 496 297 496 C146 496 40 394 40 244 C40 94 146 -8 291 -8 C389 -8 464 31 506 80 L417 159 Z " />
<glyph glyph-name="Dcaron" unicode="&#x10e;" horiz-adv-x="730" d="M415 781 L530 931 L410 931 L359 855 L357 855 L307 931 L186 931 L300 781 L415 781 Z M313 710 L78 710 L78 0 L316 0 C544 0 682 145 682 354 C682 564 538 710 313 710 L313 710 Z M307 125 L217 125 L217 584 L316 584 C444 584 536 487 536 354 C536 224 445 125 307 125 L307 125 Z " />
<glyph glyph-name="dcaron" unicode="&#x10f;" horiz-adv-x="668" d="M637 787 L606 580 L698 580 L762 787 L637 787 Z M419 433 L416 433 C380 475 329 496 269 496 C138 496 39 391 39 243 C39 92 138 -8 273 -8 C338 -8 389 16 423 59 L425 59 L425 0 L550 0 L550 736 L419 736 L419 433 Z M297 109 C224 109 172 163 172 242 C172 326 227 379 297 379 C372 379 426 320 426 242 C426 162 369 109 297 109 L297 109 Z " />
<glyph glyph-name="Dcroat" unicode="&#x110;" horiz-adv-x="730" d="M313 710 L78 710 L78 410 L25 410 L25 293 L78 293 L78 0 L316 0 C544 0 682 145 682 354 C682 564 538 710 313 710 L313 710 Z M307 125 L217 125 L217 293 L328 293 L328 410 L217 410 L217 584 L316 584 C444 584 536 487 536 354 C536 224 445 125 307 125 L307 125 Z " />
<glyph glyph-name="dcroat" unicode="&#x111;" horiz-adv-x="609" d="M609 638 L550 638 L550 736 L419 736 L419 638 L320 638 L320 554 L419 554 L419 433 L416 433 C380 475 329 496 269 496 C138 496 39 391 39 243 C39 92 138 -8 273 -8 C338 -8 389 16 423 59 L425 59 L425 0 L550 0 L550 554 L609 554 L609 638 Z M297 109 C224 109 172 163 172 242 C172 326 227 379 297 379 C372 379 426 320 426 242 C426 162 369 109 297 109 L297 109 Z " />
<glyph glyph-name="Emacron" unicode="&#x112;" horiz-adv-x="600" d="M159 810 L463 810 L463 915 L159 915 L159 810 Z M78 0 L553 0 L553 125 L216 125 L216 290 L469 290 L469 414 L216 414 L216 584 L532 584 L532 710 L78 710 L78 0 Z " />
<glyph glyph-name="emacron" unicode="&#x113;" horiz-adv-x="560" d="M441 688 L137 688 L137 583 L441 583 L441 688 Z M521 249 C521 392 425 496 282 496 C143 496 40 393 40 245 C40 92 148 -8 291 -8 C389 -8 460 31 502 84 L417 163 C390 130 352 107 300 108 C237 108 191 144 175 202 L518 202 C521 210 521 233 521 249 L521 249 Z M286 381 C343 381 378 347 391 296 L176 296 C191 352 233 381 286 381 L286 381 Z " />
<glyph glyph-name="Ebreve" unicode="&#x114;" horiz-adv-x="600" d="M311 778 C407 778 468 842 475 928 L375 928 C373 889 347 865 311 865 C272 865 249 893 247 928 L148 928 C156 831 228 778 311 778 L311 778 Z M78 0 L553 0 L553 125 L216 125 L216 290 L469 290 L469 414 L216 414 L216 584 L532 584 L532 710 L78 710 L78 0 Z " />
<glyph glyph-name="ebreve" unicode="&#x115;" horiz-adv-x="560" d="M289 551 C385 551 446 615 453 701 L353 701 C351 662 325 638 289 638 C250 638 227 666 225 701 L126 701 C134 604 206 551 289 551 L289 551 Z M521 249 C521 392 425 496 282 496 C143 496 40 393 40 245 C40 92 148 -8 291 -8 C389 -8 460 31 502 84 L417 163 C390 130 352 107 300 108 C237 108 191 144 175 202 L518 202 C521 210 521 233 521 249 L521 249 Z M286 381 C343 381 378 347 391 296 L176 296 C191 352 233 381 286 381 L286 381 Z " />
<glyph glyph-name="Edotaccent" unicode="&#x116;" horiz-adv-x="600" d="M311 784 C356 784 393 820 393 864 C393 908 356 944 311 944 C267 944 230 908 230 864 C230 820 267 784 311 784 L311 784 Z M78 0 L553 0 L553 125 L216 125 L216 290 L469 290 L469 414 L216 414 L216 584 L532 584 L532 710 L78 710 L78 0 Z " />
<glyph glyph-name="edotaccent" unicode="&#x117;" horiz-adv-x="560" d="M289 557 C334 557 371 593 371 637 C371 681 334 717 289 717 C245 717 208 681 208 637 C208 593 245 557 289 557 L289 557 Z M521 249 C521 392 425 496 282 496 C143 496 40 393 40 245 C40 92 148 -8 291 -8 C389 -8 460 31 502 84 L417 163 C390 130 352 107 300 108 C237 108 191 144 175 202 L518 202 C521 210 521 233 521 249 L521 249 Z M286 381 C343 381 378 347 391 296 L176 296 C191 352 233 381 286 381 L286 381 Z " />
<glyph glyph-name="Eogonek" unicode="&#x118;" horiz-adv-x="600" d="M541 0 L553 0 L553 125 L216 125 L216 290 L469 290 L469 414 L216 414 L216 584 L532 584 L532 710 L78 710 L78 0 L419 0 L419 -1 C380 -29 361 -67 361 -98 C361 -152 404 -189 474 -189 C500 -189 527 -186 547 -177 L540 -106 C530 -110 526 -113 501 -113 C474 -113 460 -97 460 -72 C460 -42 490 -9 541 0 L541 0 Z " />
<glyph glyph-name="eogonek" unicode="&#x119;" horiz-adv-x="560" d="M521 249 C521 392 425 496 282 496 C143 496 40 393 40 245 C40 110 124 17 241 -4 L241 -5 C208 -33 191 -67 191 -95 C191 -149 234 -187 311 -187 C336 -187 364 -183 383 -174 L377 -101 C366 -105 362 -108 337 -108 C311 -108 296 -92 296 -70 C296 -39 330 -14 377 3 C432 18 473 48 502 84 L417 163 C390 130 352 107 300 108 C237 108 191 144 175 202 L518 202 C521 210 521 233 521 249 L521 249 Z M286 381 C343 381 378 347 391 296 L176 296 C191 352 233 381 286 381 L286 381 Z " />
<glyph glyph-name="Ecaron" unicode="&#x11a;" horiz-adv-x="600" d="M368 781 L483 931 L363 931 L312 855 L310 855 L260 931 L139 931 L253 781 L368 781 Z M216 125 L216 290 L469 290 L469 414 L216 414 L216 584 L532 584 L532 710 L78 710 L78 0 L553 0 L553 125 L216 125 Z " />
<glyph glyph-name="ecaron" unicode="&#x11b;" horiz-adv-x="560" d="M346 554 L461 704 L341 704 L290 628 L288 628 L238 704 L117 704 L231 554 L346 554 Z M521 249 C521 392 425 496 282 496 C143 496 40 393 40 245 C40 92 148 -8 291 -8 C389 -8 460 31 502 84 L417 163 C390 130 352 107 300 108 C237 108 191 144 175 202 L518 202 C521 210 521 233 521 249 L521 249 Z M286 381 C343 381 378 347 391 296 L176 296 C191 352 233 381 286 381 L286 381 Z " />
<glyph glyph-name="Gcircumflex" unicode="&#x11c;" horiz-adv-x="753" d="M397 856 L399 856 L450 781 L571 781 L454 931 L338 931 L227 781 L347 781 L397 856 Z M396 387 L396 267 L556 267 L556 162 C510 134 463 122 412 122 C278 122 196 224 196 354 C196 499 289 586 406 586 C484 586 544 555 588 513 L688 597 C615 680 506 719 406 719 C184 719 49 562 49 354 C49 126 207 -7 412 -7 C521 -7 627 29 691 81 L691 387 L396 387 Z " />
<glyph glyph-name="gcircumflex" unicode="&#x11d;" horiz-adv-x="605" d="M295 629 L297 629 L348 554 L469 554 L352 704 L236 704 L125 554 L245 554 L295 629 Z M413 488 L413 438 L410 438 C371 477 319 496 264 496 C133 496 38 393 38 249 C38 107 136 9 271 9 C330 9 379 29 413 66 L416 66 L416 17 C416 -43 369 -92 277 -92 C215 -92 167 -73 119 -46 L88 -157 C146 -189 212 -206 289 -206 C476 -206 543 -96 543 56 L543 488 L413 488 Z M295 127 C225 127 171 176 171 253 C171 327 222 377 295 377 C364 377 418 329 418 254 C418 180 367 127 295 127 L295 127 Z " />
<glyph glyph-name="Gbreve" unicode="&#x11e;" horiz-adv-x="753" d="M399 778 C495 778 556 842 563 928 L463 928 C461 889 435 865 399 865 C360 865 337 893 335 928 L236 928 C244 831 316 778 399 778 L399 778 Z M412 -7 C521 -7 627 29 691 81 L691 387 L396 387 L396 267 L556 267 L556 162 C510 134 463 122 412 122 C278 122 196 224 196 354 C196 499 289 586 406 586 C484 586 544 555 588 513 L688 597 C615 680 506 719 406 719 C184 719 49 562 49 354 C49 126 207 -7 412 -7 L412 -7 Z " />
<glyph glyph-name="gbreve" unicode="&#x11f;" horiz-adv-x="605" d="M297 551 C393 551 454 615 461 701 L361 701 C359 662 333 638 297 638 C258 638 235 666 233 701 L134 701 C142 604 214 551 297 551 L297 551 Z M413 488 L413 438 L410 438 C371 477 319 496 264 496 C133 496 38 393 38 249 C38 107 136 9 271 9 C330 9 379 29 413 66 L416 66 L416 17 C416 -43 369 -92 277 -92 C215 -92 167 -73 119 -46 L88 -157 C146 -189 212 -206 289 -206 C476 -206 543 -96 543 56 L543 488 L413 488 Z M295 127 C225 127 171 176 171 253 C171 327 222 377 295 377 C364 377 418 329 418 254 C418 180 367 127 295 127 L295 127 Z " />
<glyph glyph-name="Gdotaccent" unicode="&#x120;" horiz-adv-x="753" d="M399 784 C444 784 481 820 481 864 C481 908 444 944 399 944 C355 944 318 908 318 864 C318 820 355 784 399 784 L399 784 Z M412 -7 C521 -7 627 29 691 81 L691 387 L396 387 L396 267 L556 267 L556 162 C510 134 463 122 412 122 C278 122 196 224 196 354 C196 499 289 586 406 586 C484 586 544 555 588 513 L688 597 C615 680 506 719 406 719 C184 719 49 562 49 354 C49 126 207 -7 412 -7 L412 -7 Z " />
<glyph glyph-name="gdotaccent" unicode="&#x121;" horiz-adv-x="605" d="M297 557 C342 557 379 593 379 637 C379 681 342 717 297 717 C253 717 216 681 216 637 C216 593 253 557 297 557 L297 557 Z M413 488 L413 438 L410 438 C371 477 319 496 264 496 C133 496 38 393 38 249 C38 107 136 9 271 9 C330 9 379 29 413 66 L416 66 L416 17 C416 -43 369 -92 277 -92 C215 -92 167 -73 119 -46 L88 -157 C146 -189 212 -206 289 -206 C476 -206 543 -96 543 56 L543 488 L413 488 Z M295 127 C225 127 171 176 171 253 C171 327 222 377 295 377 C364 377 418 329 418 254 C418 180 367 127 295 127 L295 127 Z " />
<glyph glyph-name="Gcommaaccent" unicode="&#x122;" horiz-adv-x="753" d="M412 -7 C521 -7 627 29 691 81 L691 387 L396 387 L396 267 L556 267 L556 162 C510 134 463 122 412 122 C278 122 196 224 196 354 C196 499 289 586 406 586 C484 586 544 555 588 513 L688 597 C615 680 506 719 406 719 C184 719 49 562 49 354 C49 126 207 -7 412 -7 L412 -7 Z M320 -220 C401 -224 459 -180 459 -98 C459 -80 458 -67 455 -53 L342 -53 C346 -69 348 -77 348 -91 C348 -120 333 -135 293 -146 L320 -220 Z " />
<glyph glyph-name="gcommaaccent" unicode="&#x123;" horiz-adv-x="605" d="M357 562 C353 578 351 586 351 600 C351 629 366 644 406 655 L379 729 C298 733 240 689 240 607 C240 589 241 576 244 562 L357 562 Z M413 488 L413 438 L410 438 C371 477 319 496 264 496 C133 496 38 393 38 249 C38 107 136 9 271 9 C330 9 379 29 413 66 L416 66 L416 17 C416 -43 369 -92 277 -92 C215 -92 167 -73 119 -46 L88 -157 C146 -189 212 -206 289 -206 C476 -206 543 -96 543 56 L543 488 L413 488 Z M295 127 C225 127 171 176 171 253 C171 327 222 377 295 377 C364 377 418 329 418 254 C418 180 367 127 295 127 L295 127 Z " />
<glyph glyph-name="Hcircumflex" unicode="&#x124;" horiz-adv-x="729" d="M366 857 L368 857 L419 782 L540 782 L423 932 L307 932 L196 782 L316 782 L366 857 Z M510 710 L510 403 L219 403 L219 710 L78 710 L78 0 L219 0 L219 277 L510 277 L510 0 L651 0 L651 710 L510 710 Z " />
<glyph glyph-name="hcircumflex" unicode="&#x125;" horiz-adv-x="597" d="M250 868 L252 868 L303 793 L424 793 L307 943 L191 943 L80 793 L200 793 L250 868 Z M358 496 C296 496 239 474 199 429 L197 429 L197 736 L66 736 L66 0 L197 0 L197 248 C197 335 242 379 312 379 C374 379 407 350 407 260 L407 0 L538 0 L538 293 C538 442 463 496 358 496 L358 496 Z " />
<glyph glyph-name="Hbar" unicode="&#x126;" horiz-adv-x="731" d="M701 600 L652 600 L652 710 L511 710 L511 600 L220 600 L220 710 L79 710 L79 600 L31 600 L31 517 L79 517 L79 0 L220 0 L220 277 L511 277 L511 0 L652 0 L652 517 L701 517 L701 600 Z M511 403 L220 403 L220 517 L511 517 L511 403 Z " />
<glyph glyph-name="hbar" unicode="&#x127;" horiz-adv-x="597" d="M358 496 C296 496 239 474 199 429 L197 429 L197 554 L295 554 L295 638 L197 638 L197 736 L66 736 L66 638 L6 638 L6 554 L66 554 L66 0 L197 0 L197 248 C197 335 242 379 312 379 C374 379 407 350 407 260 L407 0 L538 0 L538 293 C538 442 463 496 358 496 L358 496 Z " />
<glyph glyph-name="Itilde" unicode="&#x128;" horiz-adv-x="307" d="M234 779 C290 779 331 830 351 904 L275 930 C262 900 242 881 218 881 C198 881 182 892 164 903 C142 915 119 930 78 930 C19 930 -22 881 -42 814 L36 780 C49 811 67 830 92 830 C111 830 128 820 147 809 C170 794 198 779 234 779 L234 779 Z M83 0 L224 0 L224 710 L83 710 L83 0 Z " />
<glyph glyph-name="itilde" unicode="&#x129;" horiz-adv-x="275" d="M221 552 C276 552 318 603 338 677 L261 703 C248 673 228 654 205 654 C184 654 168 665 150 676 C129 688 111 703 69 703 C20 703 -20 654 -40 587 L38 553 C51 584 68 603 85 603 C104 603 114 593 133 582 C157 567 184 552 221 552 L221 552 Z M72 0 L203 0 L203 488 L72 488 L72 0 Z " />
<glyph glyph-name="Imacron" unicode="&#x12a;" horiz-adv-x="307" d="M0 810 L304 810 L304 915 L0 915 L0 810 Z M83 0 L224 0 L224 710 L83 710 L83 0 Z " />
<glyph glyph-name="imacron" unicode="&#x12b;" horiz-adv-x="275" d="M-14 583 L290 583 L290 688 L-14 688 L-14 583 Z M72 0 L203 0 L203 488 L72 488 L72 0 Z " />
<glyph glyph-name="Ibreve" unicode="&#x12c;" horiz-adv-x="307" d="M152 778 C248 778 309 842 316 928 L216 928 C214 889 188 865 152 865 C113 865 90 893 88 928 L-11 928 C-3 831 69 778 152 778 L152 778 Z M83 0 L224 0 L224 710 L83 710 L83 0 Z " />
<glyph glyph-name="ibreve" unicode="&#x12d;" horiz-adv-x="275" d="M138 551 C227 551 277 615 283 701 L186 701 C184 662 166 638 138 638 C107 638 93 666 90 701 L-7 701 C0 604 61 551 138 551 L138 551 Z M72 0 L203 0 L203 488 L72 488 L72 0 Z " />
<glyph glyph-name="Iogonek" unicode="&#x12e;" horiz-adv-x="307" d="M201 0 L224 0 L224 710 L83 710 L83 1 C42 -26 21 -66 21 -98 C21 -152 64 -189 134 -189 C160 -189 187 -186 207 -177 L200 -106 C190 -110 186 -113 161 -113 C134 -113 120 -97 120 -72 C120 -42 150 -9 201 0 L201 0 Z " />
<glyph glyph-name="iogonek" unicode="&#x12f;" horiz-adv-x="275" d="M138 557 C183 557 220 593 220 637 C220 681 183 717 138 717 C94 717 57 681 57 637 C57 593 94 557 138 557 L138 557 Z M72 1 C31 -26 10 -66 10 -98 C10 -152 53 -189 123 -189 C149 -189 176 -186 196 -177 L189 -106 C179 -110 175 -113 150 -113 C123 -113 109 -97 109 -72 C109 -42 139 -9 190 0 L203 0 L203 488 L72 488 L72 1 Z " />
<glyph glyph-name="Idotaccent" unicode="&#x130;" horiz-adv-x="307" d="M152 784 C197 784 234 820 234 864 C234 908 197 944 152 944 C108 944 71 908 71 864 C71 820 108 784 152 784 L152 784 Z M83 0 L224 0 L224 710 L83 710 L83 0 Z " />
<glyph glyph-name="dotlessi" unicode="&#x131;" horiz-adv-x="275" d="M72 0 L203 0 L203 488 L72 488 L72 0 Z " />
<glyph glyph-name="IJ" unicode="&#x132;" horiz-adv-x="813" d="M83 0 L224 0 L224 710 L83 710 L83 0 Z M526 -7 C685 -7 744 93 744 250 L744 710 L603 710 L603 248 C603 153 566 124 516 124 C477 124 436 151 411 185 L331 86 C379 23 455 -7 526 -7 L526 -7 Z " />
<glyph glyph-name="ij" unicode="&#x133;" horiz-adv-x="532" d="M404 560 C449 560 486 596 486 640 C486 684 449 720 404 720 C360 720 323 684 323 640 C323 596 360 560 404 560 L404 560 Z M138 557 C183 557 220 593 220 637 C220 681 183 717 138 717 C94 717 57 681 57 637 C57 593 94 557 138 557 L138 557 Z M72 0 L203 0 L203 488 L72 488 L72 0 Z M327 -206 C413 -206 471 -147 471 -29 L471 488 L340 488 L340 -24 C340 -69 321 -92 290 -92 C275 -92 260 -87 247 -80 L225 -188 C257 -201 283 -206 327 -206 L327 -206 Z " />
<glyph glyph-name="Jcircumflex" unicode="&#x134;" horiz-adv-x="506" d="M365 857 L367 857 L418 782 L539 782 L422 932 L306 932 L195 782 L315 782 L365 857 Z M296 248 C296 153 259 124 209 124 C170 124 129 151 104 185 L24 86 C72 23 148 -7 219 -7 C378 -7 437 93 437 250 L437 710 L296 710 L296 248 Z " />
<glyph glyph-name="jcircumflex" unicode="&#x135;" horiz-adv-x="257" d="M127 632 L129 632 L180 557 L301 557 L184 707 L68 707 L-43 557 L77 557 L127 632 Z M65 -24 C65 -69 46 -92 15 -92 C0 -92 -15 -87 -28 -80 L-50 -188 C-18 -201 8 -206 52 -206 C138 -206 196 -147 196 -29 L196 488 L65 488 L65 -24 Z " />
<glyph glyph-name="Kcommaaccent" unicode="&#x136;" horiz-adv-x="666" d="M381 397 L643 710 L465 710 L219 397 L218 397 L218 710 L78 710 L78 0 L218 0 L218 202 L288 285 L289 285 L478 0 L651 0 L381 397 Z M282 -53 C286 -69 288 -77 288 -91 C288 -120 273 -135 233 -146 L260 -220 C341 -224 399 -180 399 -98 C399 -80 398 -67 395 -53 L282 -53 Z " />
<glyph glyph-name="kcommaaccent" unicode="&#x137;" horiz-adv-x="539" d="M354 294 L526 488 L373 488 L198 291 L197 291 L197 736 L66 736 L66 0 L197 0 L197 117 L265 194 L267 194 L383 0 L529 0 L354 294 Z M224 -53 C228 -69 230 -77 230 -91 C230 -120 215 -135 175 -146 L202 -220 C283 -224 341 -180 341 -98 C341 -80 340 -67 337 -53 L224 -53 Z " />
<glyph glyph-name="kgreenlandic" unicode="&#x138;" horiz-adv-x="540" d="M267 194 L384 0 L530 0 L354 293 L527 488 L373 488 L198 290 L197 290 L197 488 L66 488 L66 0 L197 0 L197 117 L266 194 L267 194 Z " />
<glyph glyph-name="Lacute" unicode="&#x139;" horiz-adv-x="566" d="M186 784 L312 784 L436 932 L299 931 L186 784 Z M78 0 L535 0 L535 125 L219 125 L219 710 L78 710 L78 0 Z " />
<glyph glyph-name="lacute" unicode="&#x13a;" horiz-adv-x="275" d="M74 797 L200 797 L324 945 L187 944 L74 797 Z M72 0 L203 0 L203 736 L72 736 L72 0 Z " />
<glyph glyph-name="Lcommaaccent" unicode="&#x13b;" horiz-adv-x="566" d="M78 0 L535 0 L535 125 L219 125 L219 710 L78 710 L78 0 Z M224 -220 C305 -224 363 -180 363 -98 C363 -80 362 -67 359 -53 L246 -53 C250 -69 252 -77 252 -91 C252 -120 237 -135 197 -146 L224 -220 Z " />
<glyph glyph-name="lcommaaccent" unicode="&#x13c;" horiz-adv-x="275" d="M72 0 L203 0 L203 736 L72 736 L72 0 Z M57 -220 C138 -224 196 -180 196 -98 C196 -80 195 -67 192 -53 L79 -53 C83 -69 85 -77 85 -91 C85 -120 70 -135 30 -146 L57 -220 Z " />
<glyph glyph-name="Lcaron" unicode="&#x13d;" horiz-adv-x="566" d="M329 580 L421 580 L485 787 L360 787 L329 580 Z M78 0 L535 0 L535 125 L219 125 L219 710 L78 710 L78 0 Z " />
<glyph glyph-name="lcaron" unicode="&#x13e;" horiz-adv-x="320" d="M258 580 L351 580 L414 787 L290 787 L258 580 Z M72 0 L203 0 L203 736 L72 736 L72 0 Z " />
<glyph glyph-name="Ldot" unicode="&#x13f;" horiz-adv-x="566" d="M78 0 L535 0 L535 125 L219 125 L219 710 L78 710 L78 0 Z M431 261 C475 261 512 296 512 340 C512 384 475 420 431 420 C386 420 350 384 350 340 C350 296 386 261 431 261 L431 261 Z " />
<glyph glyph-name="ldot" unicode="&#x140;" horiz-adv-x="465" d="M72 0 L203 0 L203 736 L72 736 L72 0 Z M371 177 C415 177 452 212 452 256 C452 300 415 336 371 336 C326 336 290 300 290 256 C290 212 326 177 371 177 L371 177 Z " />
<glyph glyph-name="Lslash" unicode="&#x141;" horiz-adv-x="575" d="M228 125 L228 333 L307 370 L307 485 L228 448 L228 710 L87 710 L87 381 L18 348 L18 233 L87 266 L87 0 L544 0 L544 125 L228 125 Z " />
<glyph glyph-name="lslash" unicode="&#x142;" horiz-adv-x="302" d="M276 442 L220 415 L220 736 L89 736 L89 353 L30 325 L30 208 L89 236 L89 0 L220 0 L220 298 L276 324 L276 442 Z " />
<glyph glyph-name="Nacute" unicode="&#x143;" horiz-adv-x="755" d="M523 932 L386 931 L273 784 L399 784 L523 932 Z M536 710 L536 230 L535 230 L218 710 L78 710 L78 0 L218 0 L218 471 L220 471 L533 0 L677 0 L677 710 L536 710 Z " />
<glyph glyph-name="nacute" unicode="&#x144;" horiz-adv-x="592" d="M460 704 L323 703 L210 556 L336 556 L460 704 Z M355 496 C295 496 239 472 199 425 L197 425 L197 488 L66 488 L66 0 L197 0 L197 246 C197 333 242 379 308 379 C369 379 402 350 402 257 L402 0 L533 0 L533 290 C533 440 460 496 355 496 L355 496 Z " />
<glyph glyph-name="Ncommaaccent" unicode="&#x145;" horiz-adv-x="755" d="M536 710 L536 230 L535 230 L218 710 L78 710 L78 0 L218 0 L218 471 L220 471 L533 0 L677 0 L677 710 L536 710 Z M318 -53 C322 -69 324 -77 324 -91 C324 -120 309 -135 269 -146 L296 -220 C377 -224 435 -180 435 -98 C435 -80 434 -67 431 -53 L318 -53 Z " />
<glyph glyph-name="ncommaaccent" unicode="&#x146;" horiz-adv-x="592" d="M355 496 C295 496 239 472 199 425 L197 425 L197 488 L66 488 L66 0 L197 0 L197 246 C197 333 242 379 308 379 C369 379 402 350 402 257 L402 0 L533 0 L533 290 C533 440 460 496 355 496 L355 496 Z M236 -53 C240 -69 242 -77 242 -91 C242 -120 227 -135 187 -146 L214 -220 C295 -224 353 -180 353 -98 C353 -80 352 -67 349 -53 L236 -53 Z " />
<glyph glyph-name="Ncaron" unicode="&#x147;" horiz-adv-x="755" d="M436 782 L551 932 L431 932 L380 856 L378 856 L328 932 L207 932 L321 782 L436 782 Z M536 710 L536 230 L535 230 L218 710 L78 710 L78 0 L218 0 L218 471 L220 471 L533 0 L677 0 L677 710 L536 710 Z " />
<glyph glyph-name="ncaron" unicode="&#x148;" horiz-adv-x="592" d="M357 554 L472 704 L352 704 L301 628 L299 628 L249 704 L128 704 L242 554 L357 554 Z M355 496 C295 496 239 472 199 425 L197 425 L197 488 L66 488 L66 0 L197 0 L197 246 C197 333 242 379 308 379 C369 379 402 350 402 257 L402 0 L533 0 L533 290 C533 440 460 496 355 496 L355 496 Z " />
<glyph glyph-name="napostrophe" unicode="&#x149;" horiz-adv-x="694" d="M-15 494 L78 494 L141 710 L17 710 L-15 494 Z M458 496 C398 496 342 472 302 425 L300 425 L300 488 L169 488 L169 0 L300 0 L300 246 C300 333 345 379 411 379 C472 379 505 350 505 257 L505 0 L636 0 L636 290 C636 440 563 496 458 496 L458 496 Z " />
<glyph glyph-name="Eng" unicode="&#x14a;" horiz-adv-x="755" d="M537 710 L537 230 L535 230 L217 710 L78 710 L78 0 L218 0 L218 471 L220 471 L537 -7 L537 -29 C537 -69 518 -97 487 -97 C472 -97 457 -92 443 -84 L421 -188 C453 -200 480 -206 524 -206 C618 -206 677 -144 677 -27 L677 710 L537 710 Z " />
<glyph glyph-name="eng" unicode="&#x14b;" horiz-adv-x="574" d="M349 496 C298 496 238 471 198 425 L197 425 L197 488 L66 488 L66 0 L197 0 L197 244 C197 332 246 379 301 379 C362 379 385 346 385 256 L385 -29 C385 -69 366 -97 335 -97 C320 -97 305 -92 292 -84 L270 -188 C302 -201 328 -206 372 -206 C458 -206 516 -144 516 -27 L516 289 C516 438 448 496 349 496 L349 496 Z " />
<glyph glyph-name="Omacron" unicode="&#x14c;" horiz-adv-x="821" d="M260 811 L564 811 L564 916 L260 916 L260 811 Z M411 -8 C620 -8 772 138 772 355 C772 572 620 719 411 719 C196 719 49 566 49 355 C49 145 196 -8 411 -8 L411 -8 Z M412 123 C284 123 195 226 195 355 C195 484 284 587 412 587 C534 587 626 489 626 355 C626 222 534 123 412 123 L412 123 Z " />
<glyph glyph-name="omacron" unicode="&#x14d;" horiz-adv-x="598" d="M148 583 L452 583 L452 688 L148 688 L148 583 Z M299 -8 C451 -8 559 94 559 244 C559 394 451 496 299 496 C144 496 40 390 40 244 C40 98 144 -8 299 -8 L299 -8 Z M299 109 C225 109 172 168 172 244 C172 321 223 379 299 379 C372 379 426 324 426 244 C426 165 370 109 299 109 L299 109 Z " />
<glyph glyph-name="Obreve" unicode="&#x14e;" horiz-adv-x="821" d="M412 779 C508 779 569 843 576 929 L476 929 C474 890 448 866 412 866 C373 866 350 894 348 929 L249 929 C257 832 329 779 412 779 L412 779 Z M411 -8 C620 -8 772 138 772 355 C772 572 620 719 411 719 C196 719 49 566 49 355 C49 145 196 -8 411 -8 L411 -8 Z M412 123 C284 123 195 226 195 355 C195 484 284 587 412 587 C534 587 626 489 626 355 C626 222 534 123 412 123 L412 123 Z " />
<glyph glyph-name="obreve" unicode="&#x14f;" horiz-adv-x="598" d="M300 551 C396 551 457 615 464 701 L364 701 C362 662 336 638 300 638 C261 638 238 666 236 701 L137 701 C145 604 217 551 300 551 L300 551 Z M299 -8 C451 -8 559 94 559 244 C559 394 451 496 299 496 C144 496 40 390 40 244 C40 98 144 -8 299 -8 L299 -8 Z M299 109 C225 109 172 168 172 244 C172 321 223 379 299 379 C372 379 426 324 426 244 C426 165 370 109 299 109 L299 109 Z " />
<glyph glyph-name="Ohungarumlaut" unicode="&#x150;" horiz-adv-x="821" d="M250 784 L371 784 L495 932 L363 931 L250 784 Z M454 784 L575 784 L699 932 L567 931 L454 784 Z M411 -8 C620 -8 772 138 772 355 C772 572 620 719 411 719 C196 719 49 566 49 355 C49 145 196 -8 411 -8 L411 -8 Z M412 123 C284 123 195 226 195 355 C195 484 284 587 412 587 C534 587 626 489 626 355 C626 222 534 123 412 123 L412 123 Z " />
<glyph glyph-name="ohungarumlaut" unicode="&#x151;" horiz-adv-x="598" d="M124 556 L245 556 L369 704 L237 703 L124 556 Z M328 556 L449 556 L573 704 L441 703 L328 556 Z M299 -8 C451 -8 559 94 559 244 C559 394 451 496 299 496 C144 496 40 390 40 244 C40 98 144 -8 299 -8 L299 -8 Z M299 109 C225 109 172 168 172 244 C172 321 223 379 299 379 C372 379 426 324 426 244 C426 165 370 109 299 109 L299 109 Z " />
<glyph glyph-name="OE" unicode="&#x152;" horiz-adv-x="961" d="M579 125 L579 291 L835 291 L835 413 L579 413 L579 585 L895 585 L895 710 L412 710 C196 711 49 558 49 355 C49 154 196 0 412 0 L915 0 L915 125 L579 125 Z M412 131 C289 129 195 229 195 355 C195 483 289 580 412 580 L444 580 L444 131 L412 131 Z " />
<glyph glyph-name="oe" unicode="&#x153;" horiz-adv-x="810" d="M783 249 C783 392 695 496 574 496 C507 496 451 469 411 424 L410 424 C371 470 318 496 257 496 C128 496 30 391 30 244 C30 97 120 -8 252 -8 C316 -8 371 19 410 65 L412 65 C451 19 508 -8 576 -8 C657 -8 725 31 763 84 L673 160 C654 131 622 108 584 108 C530 108 496 145 485 201 L779 201 C781 210 783 228 783 249 L783 249 Z M571 381 C615 381 644 349 655 297 L486 297 C497 351 526 381 571 381 L571 381 Z M253 109 C199 109 163 167 163 244 C163 322 206 379 257 379 C311 379 349 324 349 244 C349 165 306 109 253 109 L253 109 Z " />
<glyph glyph-name="Racute" unicode="&#x154;" horiz-adv-x="657" d="M466 932 L329 931 L216 784 L342 784 L466 932 Z M624 0 L448 260 C539 290 594 360 594 474 C594 610 518 710 347 710 L78 710 L78 0 L217 0 L217 243 L299 243 L458 0 L624 0 Z M217 585 L321 585 C403 585 449 542 449 477 C449 411 402 367 315 367 L217 367 L217 585 Z " />
<glyph glyph-name="racute" unicode="&#x155;" horiz-adv-x="375" d="M368 704 L231 703 L118 556 L244 556 L368 704 Z M198 416 L197 416 L197 488 L66 488 L66 0 L197 0 L197 227 C197 299 241 354 322 354 C329 354 343 354 356 353 L356 495 C354 496 350 496 346 496 C288 496 235 468 198 416 L198 416 Z " />
<glyph glyph-name="Rcommaaccent" unicode="&#x156;" horiz-adv-x="657" d="M448 260 C539 290 594 360 594 474 C594 610 518 710 347 710 L78 710 L78 0 L217 0 L217 243 L299 243 L458 0 L624 0 L448 260 Z M217 585 L321 585 C403 585 449 542 449 477 C449 411 402 367 315 367 L217 367 L217 585 Z M270 -53 C274 -69 276 -77 276 -91 C276 -120 261 -135 221 -146 L248 -220 C329 -224 387 -180 387 -98 C387 -80 386 -67 383 -53 L270 -53 Z " />
<glyph glyph-name="rcommaaccent" unicode="&#x157;" horiz-adv-x="375" d="M346 496 C288 496 235 468 198 416 L197 416 L197 488 L66 488 L66 0 L197 0 L197 227 C197 299 241 354 322 354 C329 354 343 354 356 353 L356 495 C354 496 350 496 346 496 L346 496 Z M75 -53 C79 -69 81 -77 81 -91 C81 -120 66 -135 26 -146 L53 -220 C134 -224 192 -180 192 -98 C192 -80 191 -67 188 -53 L75 -53 Z " />
<glyph glyph-name="Rcaron" unicode="&#x158;" horiz-adv-x="657" d="M379 782 L494 932 L374 932 L323 856 L321 856 L271 932 L150 932 L264 782 L379 782 Z M624 0 L448 260 C539 290 594 360 594 474 C594 610 518 710 347 710 L78 710 L78 0 L217 0 L217 243 L299 243 L458 0 L624 0 Z M217 585 L321 585 C403 585 449 542 449 477 C449 411 402 367 315 367 L217 367 L217 585 Z " />
<glyph glyph-name="rcaron" unicode="&#x159;" horiz-adv-x="375" d="M281 554 L396 704 L276 704 L225 628 L223 628 L173 704 L52 704 L166 554 L281 554 Z M198 416 L197 416 L197 488 L66 488 L66 0 L197 0 L197 227 C197 299 241 354 322 354 C329 354 343 354 356 353 L356 495 C354 496 350 496 346 496 C288 496 235 468 198 416 L198 416 Z " />
<glyph glyph-name="Sacute" unicode="&#x15a;" horiz-adv-x="584" d="M220 784 L346 784 L470 932 L333 931 L220 784 Z M292 -8 C408 -8 543 55 543 210 C543 347 446 379 323 427 C242 459 203 478 204 522 C204 567 240 593 289 593 C333 593 385 572 444 523 L525 629 C456 687 374 720 286 719 C158 717 58 630 58 516 C58 382 165 332 272 294 C358 265 396 246 396 194 C396 150 362 119 294 119 C238 119 170 146 117 208 L33 104 C107 27 200 -8 292 -8 L292 -8 Z " />
<glyph glyph-name="sacute" unicode="&#x15b;" horiz-adv-x="448" d="M146 556 L272 556 L396 704 L259 703 L146 556 Z M224 -8 C352 -8 414 57 414 144 C414 240 352 263 246 302 C198 320 172 334 172 354 C172 380 199 391 220 391 C256 391 299 375 337 339 L400 435 C345 478 290 496 222 496 C122 496 46 438 46 350 C46 256 116 218 196 191 C260 171 285 160 285 137 C285 113 263 97 225 97 C172 97 130 116 90 154 L26 63 C80 17 146 -8 224 -8 L224 -8 Z " />
<glyph glyph-name="Scircumflex" unicode="&#x15c;" horiz-adv-x="584" d="M289 857 L291 857 L342 782 L463 782 L346 932 L230 932 L119 782 L239 782 L289 857 Z M323 427 C242 459 203 478 204 522 C204 567 240 593 289 593 C333 593 385 572 444 523 L525 629 C456 687 374 720 286 719 C158 717 58 630 58 516 C58 382 165 332 272 294 C358 265 396 246 396 194 C396 150 362 119 294 119 C238 119 170 146 117 208 L33 104 C107 27 200 -8 292 -8 C408 -8 543 55 543 210 C543 347 446 379 323 427 L323 427 Z " />
<glyph glyph-name="scircumflex" unicode="&#x15d;" horiz-adv-x="448" d="M227 629 L229 629 L280 554 L401 554 L284 704 L168 704 L57 554 L177 554 L227 629 Z M246 302 C198 320 172 334 172 354 C172 380 199 391 220 391 C256 391 299 375 337 339 L400 435 C345 478 290 496 222 496 C122 496 46 438 46 350 C46 256 116 218 196 191 C260 171 285 160 285 137 C285 113 263 97 225 97 C172 97 130 116 90 154 L26 63 C80 17 146 -8 224 -8 C352 -8 414 57 414 144 C414 240 352 263 246 302 L246 302 Z " />
<glyph glyph-name="Scedilla" unicode="&#x15e;" horiz-adv-x="584" d="M307 -8 C419 -3 543 61 543 210 C543 347 446 379 323 427 C242 459 203 478 204 522 C204 567 240 593 289 593 C333 593 385 572 444 523 L525 629 C456 687 374 720 286 719 C158 717 58 630 58 516 C58 382 165 332 272 294 C358 265 396 246 396 194 C396 150 362 119 294 119 C238 119 170 146 117 208 L33 104 C92 42 164 8 237 -4 L221 -36 L221 -73 C275 -73 303 -87 303 -105 C303 -126 278 -133 256 -133 C232 -133 217 -131 204 -126 L204 -185 C219 -188 236 -191 265 -191 C352 -191 388 -157 388 -112 C388 -61 355 -33 295 -31 L294 -30 L307 -8 Z " />
<glyph glyph-name="scedilla" unicode="&#x15f;" horiz-adv-x="448" d="M235 -8 C355 -4 414 59 414 144 C414 240 352 263 246 302 C198 320 172 334 172 354 C172 380 199 391 220 391 C256 391 299 375 337 339 L400 435 C345 478 290 496 222 496 C122 496 46 438 46 350 C46 256 116 218 196 191 C260 171 285 160 285 137 C285 113 263 97 225 97 C172 97 130 116 90 154 L26 63 C66 29 112 6 166 -3 L149 -36 L149 -73 C203 -73 231 -87 231 -105 C231 -126 206 -133 184 -133 C160 -133 145 -131 132 -126 L132 -185 C147 -188 164 -191 193 -191 C280 -191 316 -157 316 -112 C316 -61 283 -33 223 -31 L222 -30 L235 -8 Z " />
<glyph glyph-name="Scaron" unicode="&#x160;" horiz-adv-x="584" d="M348 782 L463 932 L343 932 L292 856 L290 856 L240 932 L119 932 L233 782 L348 782 Z M323 427 C242 459 203 478 204 522 C204 567 240 593 289 593 C333 593 385 572 444 523 L525 629 C456 687 374 720 286 719 C158 717 58 630 58 516 C58 382 165 332 272 294 C358 265 396 246 396 194 C396 150 362 119 294 119 C238 119 170 146 117 208 L33 104 C107 27 200 -8 292 -8 C408 -8 543 55 543 210 C543 347 446 379 323 427 L323 427 Z " />
<glyph glyph-name="scaron" unicode="&#x161;" horiz-adv-x="448" d="M286 554 L401 704 L281 704 L230 628 L228 628 L178 704 L57 704 L171 554 L286 554 Z M246 302 C198 320 172 334 172 354 C172 380 199 391 220 391 C256 391 299 375 337 339 L400 435 C345 478 290 496 222 496 C122 496 46 438 46 350 C46 256 116 218 196 191 C260 171 285 160 285 137 C285 113 263 97 225 97 C172 97 130 116 90 154 L26 63 C80 17 146 -8 224 -8 C352 -8 414 57 414 144 C414 240 352 263 246 302 L246 302 Z " />
<glyph glyph-name="uni0162" unicode="&#x162;" horiz-adv-x="591" d="M309 0 L365 0 L365 584 L562 584 L562 710 L29 710 L29 584 L225 584 L225 0 L237 0 L219 -36 L219 -73 C273 -73 301 -87 301 -105 C301 -126 276 -133 254 -133 C230 -133 215 -131 202 -126 L202 -185 C217 -188 234 -191 263 -191 C350 -191 386 -157 386 -112 C386 -61 353 -33 293 -31 L292 -30 L309 0 Z " />
<glyph glyph-name="uni0163" unicode="&#x163;" horiz-adv-x="373" d="M210 -31 L209 -30 L221 -8 C285 -8 317 5 348 22 L314 127 C292 116 268 110 252 110 C222 110 209 130 209 172 L209 380 L342 380 L342 488 L209 488 L209 662 L79 648 L79 488 L21 488 L21 380 L79 380 L79 154 C79 74 108 25 156 4 L136 -36 L136 -73 C190 -73 218 -87 218 -105 C218 -126 193 -133 171 -133 C147 -133 132 -131 119 -126 L119 -185 C134 -188 151 -191 180 -191 C267 -191 303 -157 303 -112 C303 -61 270 -33 210 -31 L210 -31 Z " />
<glyph glyph-name="Tcaron" unicode="&#x164;" horiz-adv-x="591" d="M351 782 L466 932 L346 932 L295 856 L293 856 L243 932 L122 932 L236 782 L351 782 Z M29 710 L29 584 L225 584 L225 0 L365 0 L365 584 L562 584 L562 710 L29 710 Z " />
<glyph glyph-name="tcaron" unicode="&#x165;" horiz-adv-x="373" d="M255 580 L347 580 L411 787 L286 787 L255 580 Z M218 -8 C284 -8 316 5 348 22 L314 127 C292 116 268 110 252 110 C222 110 209 130 209 172 L209 380 L342 380 L342 488 L209 488 L209 662 L79 648 L79 488 L21 488 L21 380 L79 380 L79 154 C79 44 134 -8 218 -8 L218 -8 Z " />
<glyph glyph-name="Tbar" unicode="&#x166;" horiz-adv-x="591" d="M562 584 L562 710 L29 710 L29 584 L225 584 L225 411 L113 411 L113 300 L225 300 L225 0 L365 0 L365 300 L482 300 L482 411 L365 411 L365 584 L562 584 Z " />
<glyph glyph-name="tbar" unicode="&#x167;" horiz-adv-x="373" d="M314 127 C292 116 268 110 252 110 C222 110 209 130 209 172 L209 221 L318 221 L318 304 L209 304 L209 380 L342 380 L342 488 L209 488 L209 662 L79 648 L79 488 L21 488 L21 380 L79 380 L79 304 L29 304 L29 221 L79 221 L79 154 C79 44 134 -8 218 -8 C284 -8 316 5 348 22 L314 127 Z " />
<glyph glyph-name="Utilde" unicode="&#x168;" horiz-adv-x="713" d="M438 780 C494 780 535 831 555 905 L479 931 C466 901 446 882 422 882 C402 882 386 893 368 904 C346 916 323 931 282 931 C223 931 182 882 162 815 L240 781 C253 812 271 831 296 831 C315 831 332 821 351 810 C374 795 402 780 438 780 L438 780 Z M355 -8 C538 -8 644 109 644 294 L644 710 L503 710 L503 303 C503 190 441 124 355 124 C262 124 210 201 210 303 L210 710 L69 710 L69 294 C69 100 185 -8 355 -8 L355 -8 Z " />
<glyph glyph-name="utilde" unicode="&#x169;" horiz-adv-x="577" d="M228 603 C247 603 264 593 283 582 C306 567 334 552 370 552 C426 552 467 603 487 677 L411 703 C398 673 378 654 354 654 C334 654 318 665 300 676 C278 688 255 703 214 703 C155 703 114 654 94 587 L172 553 C185 584 203 603 228 603 L228 603 Z M384 488 L384 251 C384 157 333 109 276 109 C215 109 188 139 188 229 L188 488 L58 488 L58 194 C58 45 132 -8 237 -8 C292 -8 345 15 382 60 L384 60 L384 0 L515 0 L515 488 L384 488 Z " />
<glyph glyph-name="Umacron" unicode="&#x16a;" horiz-adv-x="713" d="M204 811 L508 811 L508 916 L204 916 L204 811 Z M355 -8 C538 -8 644 109 644 294 L644 710 L503 710 L503 303 C503 190 441 124 355 124 C262 124 210 201 210 303 L210 710 L69 710 L69 294 C69 100 185 -8 355 -8 L355 -8 Z " />
<glyph glyph-name="umacron" unicode="&#x16b;" horiz-adv-x="577" d="M440 688 L136 688 L136 583 L440 583 L440 688 Z M384 488 L384 251 C384 157 333 109 276 109 C215 109 188 139 188 229 L188 488 L58 488 L58 194 C58 45 132 -8 237 -8 C292 -8 345 15 382 60 L384 60 L384 0 L515 0 L515 488 L384 488 Z " />
<glyph glyph-name="Ubreve" unicode="&#x16c;" horiz-adv-x="713" d="M356 779 C452 779 513 843 520 929 L420 929 C418 890 392 866 356 866 C317 866 294 894 292 929 L193 929 C201 832 273 779 356 779 L356 779 Z M355 -8 C538 -8 644 109 644 294 L644 710 L503 710 L503 303 C503 190 441 124 355 124 C262 124 210 201 210 303 L210 710 L69 710 L69 294 C69 100 185 -8 355 -8 L355 -8 Z " />
<glyph glyph-name="ubreve" unicode="&#x16d;" horiz-adv-x="577" d="M288 551 C384 551 445 615 452 701 L352 701 C350 662 324 638 288 638 C249 638 226 666 224 701 L125 701 C133 604 205 551 288 551 L288 551 Z M384 488 L384 251 C384 157 333 109 276 109 C215 109 188 139 188 229 L188 488 L58 488 L58 194 C58 45 132 -8 237 -8 C292 -8 345 15 382 60 L384 60 L384 0 L515 0 L515 488 L384 488 Z " />
<glyph glyph-name="Uring" unicode="&#x16e;" horiz-adv-x="713" d="M355 761 C420 761 464 808 464 865 C464 926 416 970 355 970 C293 970 248 922 248 865 C248 805 297 761 355 761 L355 761 Z M355 829 C334 829 318 845 318 866 C318 886 334 904 355 904 C376 904 393 887 393 867 C393 846 376 829 355 829 L355 829 Z M355 -8 C538 -8 644 109 644 294 L644 710 L503 710 L503 303 C503 190 441 124 355 124 C262 124 210 201 210 303 L210 710 L69 710 L69 294 C69 100 185 -8 355 -8 L355 -8 Z " />
<glyph glyph-name="uring" unicode="&#x16f;" horiz-adv-x="577" d="M287 533 C352 533 396 580 396 637 C396 698 348 742 287 742 C225 742 180 694 180 637 C180 577 229 533 287 533 L287 533 Z M287 676 C308 676 325 659 325 639 C325 618 308 601 287 601 C266 601 250 617 250 638 C250 658 266 676 287 676 L287 676 Z M384 488 L384 251 C384 157 333 109 276 109 C215 109 188 139 188 229 L188 488 L58 488 L58 194 C58 45 132 -8 237 -8 C292 -8 345 15 382 60 L384 60 L384 0 L515 0 L515 488 L384 488 Z " />
<glyph glyph-name="Uhungarumlaut" unicode="&#x170;" horiz-adv-x="713" d="M184 784 L305 784 L429 932 L297 931 L184 784 Z M388 784 L509 784 L633 932 L501 931 L388 784 Z M355 -8 C538 -8 644 109 644 294 L644 710 L503 710 L503 303 C503 190 441 124 355 124 C262 124 210 201 210 303 L210 710 L69 710 L69 294 C69 100 185 -8 355 -8 L355 -8 Z " />
<glyph glyph-name="uhungarumlaut" unicode="&#x171;" horiz-adv-x="577" d="M362 704 L230 703 L117 556 L238 556 L362 704 Z M442 556 L566 704 L434 703 L321 556 L442 556 Z M384 251 C384 157 333 109 276 109 C215 109 188 139 188 229 L188 488 L58 488 L58 194 C58 45 132 -8 237 -8 C292 -8 345 15 382 60 L384 60 L384 0 L515 0 L515 488 L384 488 L384 251 Z " />
<glyph glyph-name="Uogonek" unicode="&#x172;" horiz-adv-x="713" d="M503 710 L503 303 C503 190 441 124 355 124 C262 124 210 201 210 303 L210 710 L69 710 L69 294 C69 117 165 12 311 -5 L311 -7 C279 -34 263 -68 263 -95 C263 -149 306 -187 376 -187 C403 -187 430 -183 449 -174 L443 -104 C433 -107 428 -110 403 -110 C377 -110 362 -96 362 -71 C362 -39 396 -11 451 4 L450 4 C574 38 644 144 644 294 L644 710 L503 710 Z " />
<glyph glyph-name="uogonek" unicode="&#x173;" horiz-adv-x="577" d="M502 0 L515 0 L515 488 L384 488 L384 251 C384 157 333 109 276 109 C215 109 188 139 188 229 L188 488 L58 488 L58 194 C58 45 132 -8 237 -8 C292 -8 345 15 382 60 L384 60 L384 1 C343 -26 322 -66 322 -98 C322 -152 365 -189 435 -189 C461 -189 488 -186 508 -177 L501 -106 C491 -110 487 -113 462 -113 C435 -113 421 -97 421 -72 C421 -42 451 -9 502 0 L502 0 Z " />
<glyph glyph-name="Wcircumflex" unicode="&#x174;" horiz-adv-x="1033" d="M516 857 L518 857 L569 782 L690 782 L573 932 L457 932 L346 782 L466 782 L516 857 Z M857 710 L718 230 L717 230 L591 710 L442 710 L316 230 L314 230 L176 710 L26 710 L250 0 L379 0 L517 505 L520 505 L653 0 L783 0 L1007 710 L857 710 Z " />
<glyph glyph-name="wcircumflex" unicode="&#x175;" horiz-adv-x="772" d="M384 629 L386 629 L437 554 L558 554 L441 704 L325 704 L214 554 L334 554 L384 629 Z M621 488 L526 191 L524 191 L438 488 L333 488 L248 191 L246 191 L151 488 L20 488 L187 0 L299 0 L385 301 L387 301 L473 0 L586 0 L752 488 L621 488 Z " />
<glyph glyph-name="Ycircumflex" unicode="&#x176;" horiz-adv-x="632" d="M315 857 L317 857 L368 782 L489 782 L372 932 L256 932 L145 782 L265 782 L315 857 Z M460 710 L317 451 L315 451 L170 710 L9 710 L244 312 L244 0 L386 0 L386 312 L623 710 L460 710 Z " />
<glyph glyph-name="ycircumflex" unicode="&#x177;" horiz-adv-x="539" d="M269 629 L271 629 L322 554 L443 554 L326 704 L210 704 L99 554 L219 554 L269 629 Z M386 488 L274 186 L273 186 L153 488 L17 488 L211 30 L125 -198 L259 -198 L522 488 L386 488 Z " />
<glyph glyph-name="Ydieresis" unicode="&#x178;" horiz-adv-x="632" d="M211 785 C255 785 292 821 292 865 C292 909 255 945 211 945 C166 945 130 909 130 865 C130 821 166 785 211 785 L211 785 Z M421 786 C464 786 501 822 501 865 C501 908 464 944 421 944 C376 944 340 908 340 865 C340 822 376 786 421 786 L421 786 Z M460 710 L317 451 L315 451 L170 710 L9 710 L244 312 L244 0 L386 0 L386 312 L623 710 L460 710 Z " />
<glyph glyph-name="Zacute" unicode="&#x179;" horiz-adv-x="624" d="M454 932 L317 931 L204 784 L330 784 L454 932 Z M230 125 L230 127 L569 603 L569 710 L65 710 L65 584 L383 584 L383 583 L51 110 L51 0 L570 0 L570 125 L230 125 Z " />
<glyph glyph-name="zacute" unicode="&#x17a;" horiz-adv-x="486" d="M389 704 L252 703 L139 556 L265 556 L389 704 Z M448 400 L448 488 L54 488 L54 381 L272 381 L272 380 L37 89 L37 0 L443 0 L443 107 L209 107 L209 109 L448 400 Z " />
<glyph glyph-name="Zdotaccent" unicode="&#x17b;" horiz-adv-x="624" d="M310 785 C355 785 392 821 392 865 C392 909 355 945 310 945 C266 945 229 909 229 865 C229 821 266 785 310 785 L310 785 Z M230 125 L230 127 L569 603 L569 710 L65 710 L65 584 L383 584 L383 583 L51 110 L51 0 L570 0 L570 125 L230 125 Z " />
<glyph glyph-name="zdotaccent" unicode="&#x17c;" horiz-adv-x="486" d="M245 557 C290 557 327 593 327 637 C327 681 290 717 245 717 C201 717 164 681 164 637 C164 593 201 557 245 557 L245 557 Z M448 400 L448 488 L54 488 L54 381 L272 381 L272 380 L37 89 L37 0 L443 0 L443 107 L209 107 L209 109 L448 400 Z " />
<glyph glyph-name="Zcaron" unicode="&#x17d;" horiz-adv-x="624" d="M367 782 L482 932 L362 932 L311 856 L309 856 L259 932 L138 932 L252 782 L367 782 Z M230 125 L230 127 L569 603 L569 710 L65 710 L65 584 L383 584 L383 583 L51 110 L51 0 L570 0 L570 125 L230 125 Z " />
<glyph glyph-name="zcaron" unicode="&#x17e;" horiz-adv-x="486" d="M302 554 L417 704 L297 704 L246 628 L244 628 L194 704 L73 704 L187 554 L302 554 Z M448 400 L448 488 L54 488 L54 381 L272 381 L272 380 L37 89 L37 0 L443 0 L443 107 L209 107 L209 109 L448 400 Z " />
<glyph glyph-name="longs" unicode="&#x17f;" horiz-adv-x="344" d="M84 0 L215 0 L215 563 C215 610 234 628 265 628 C283 628 310 621 338 607 L364 709 C342 724 297 745 238 745 C141 745 84 686 84 572 L84 488 L33 488 L33 380 L84 380 L84 0 Z " />
<glyph glyph-name="uni018F" unicode="&#x18f;" horiz-adv-x="725" d="M343 719 C249 719 172 689 129 665 L195 549 C241 575 293 588 345 588 C447 588 517 512 530 391 L50 391 C48 383 46 360 46 341 C46 121 181 -8 358 -8 C542 -8 676 140 676 353 C676 573 539 719 343 719 L343 719 Z M353 124 C268 124 202 183 187 271 L523 271 C500 179 436 124 353 124 L353 124 Z " />
<glyph glyph-name="florin" unicode="&#x192;" horiz-adv-x="549" d="M106 -154 C216 -154 274 -97 290 17 L334 360 L467 360 L482 469 L350 469 L358 542 C367 607 394 629 435 629 C460 629 486 623 511 613 L557 702 C540 717 491 745 411 745 C304 745 243 687 228 574 L214 469 L139 469 L124 360 L199 360 L159 48 C150 -17 123 -39 82 -39 C57 -39 31 -33 6 -22 L-40 -111 C-22 -128 25 -154 106 -154 L106 -154 Z " />
<glyph glyph-name="uni019D" unicode="&#x19d;" horiz-adv-x="755" d="M536 710 L536 230 L535 230 L218 710 L78 710 L78 -29 C78 -69 60 -97 28 -97 C14 -97 -1 -92 -15 -84 L-37 -188 C-5 -200 21 -206 65 -206 C160 -206 218 -144 218 -27 L218 471 L220 471 L533 0 L677 0 L677 710 L536 710 Z " />
<glyph glyph-name="Ohorn" unicode="&#x1a0;" horiz-adv-x="862" d="M727 774 L727 704 C727 653 726 614 691 595 C626 673 528 719 411 719 C196 719 49 566 49 355 C49 145 196 -8 411 -8 C620 -8 772 138 772 355 C772 418 759 474 736 524 C809 548 849 609 849 701 L849 774 L727 774 Z M412 123 C284 123 195 226 195 355 C195 484 284 587 412 587 C534 587 626 489 626 355 C626 222 534 123 412 123 L412 123 Z " />
<glyph glyph-name="ohorn" unicode="&#x1a1;" horiz-adv-x="683" d="M551 565 L551 495 C551 446 550 407 518 388 C473 455 395 496 299 496 C144 496 40 390 40 244 C40 98 144 -8 299 -8 C451 -8 559 94 559 244 C559 268 556 290 551 312 L552 313 C630 334 673 396 673 492 L673 565 L551 565 Z M299 109 C225 109 172 168 172 244 C172 321 223 379 299 379 C372 379 426 324 426 244 C426 165 370 109 299 109 L299 109 Z " />
<glyph glyph-name="Uhorn" unicode="&#x1af;" horiz-adv-x="816" d="M707 774 L707 704 C707 642 705 598 644 586 L644 710 L503 710 L503 303 C503 190 441 124 355 124 C262 124 210 201 210 303 L210 710 L69 710 L69 294 C69 100 185 -8 355 -8 C538 -8 644 109 644 294 L644 514 C761 514 829 582 829 701 L829 774 L707 774 Z " />
<glyph glyph-name="uhorn" unicode="&#x1b0;" horiz-adv-x="702" d="M570 565 L570 495 C570 436 568 393 515 379 L515 488 L384 488 L384 251 C384 157 333 109 276 109 C215 109 188 139 188 229 L188 488 L58 488 L58 194 C58 45 132 -8 237 -8 C292 -8 345 15 382 60 L384 60 L384 0 L515 0 L515 305 C627 308 692 375 692 492 L692 565 L570 565 Z " />
<glyph glyph-name="Gcaron" unicode="&#x1e6;" horiz-adv-x="753" d="M456 781 L571 931 L451 931 L400 855 L398 855 L348 931 L227 931 L341 781 L456 781 Z M396 387 L396 267 L556 267 L556 162 C510 134 463 122 412 122 C278 122 196 224 196 354 C196 499 289 586 406 586 C484 586 544 555 588 513 L688 597 C615 680 506 719 406 719 C184 719 49 562 49 354 C49 126 207 -7 412 -7 C521 -7 627 29 691 81 L691 387 L396 387 Z " />
<glyph glyph-name="gcaron" unicode="&#x1e7;" horiz-adv-x="605" d="M354 554 L469 704 L349 704 L298 628 L296 628 L246 704 L125 704 L239 554 L354 554 Z M413 488 L413 438 L410 438 C371 477 319 496 264 496 C133 496 38 393 38 249 C38 107 136 9 271 9 C330 9 379 29 413 66 L416 66 L416 17 C416 -43 369 -92 277 -92 C215 -92 167 -73 119 -46 L88 -157 C146 -189 212 -206 289 -206 C476 -206 543 -96 543 56 L543 488 L413 488 Z M295 127 C225 127 171 176 171 253 C171 327 222 377 295 377 C364 377 418 329 418 254 C418 180 367 127 295 127 L295 127 Z " />
<glyph glyph-name="uni01EA" unicode="&#x1ea;" horiz-adv-x="821" d="M475 -3 C650 24 772 161 772 355 C772 572 620 719 411 719 C196 719 49 566 49 355 C49 162 173 17 360 -5 L360 -7 C326 -34 309 -69 309 -98 C309 -152 352 -189 422 -189 C448 -189 475 -186 495 -177 L488 -106 C478 -110 474 -113 449 -113 C422 -113 408 -97 408 -72 C408 -45 433 -15 475 -3 L475 -3 Z M195 355 C195 484 284 587 412 587 C534 587 626 489 626 355 C626 222 534 123 412 123 C284 123 195 226 195 355 L195 355 Z " />
<glyph glyph-name="uni01EB" unicode="&#x1eb;" horiz-adv-x="598" d="M339 -6 C469 11 559 107 559 244 C559 394 451 496 299 496 C144 496 40 390 40 244 C40 119 116 24 235 -2 L235 -4 C198 -31 180 -68 180 -98 C180 -152 223 -189 293 -189 C319 -189 346 -186 366 -177 L359 -106 C349 -110 345 -113 320 -113 C293 -113 279 -97 279 -72 C279 -47 301 -19 339 -6 L339 -6 Z M172 244 C172 321 223 379 299 379 C372 379 426 324 426 244 C426 165 370 109 299 109 C225 109 172 168 172 244 L172 244 Z " />
<glyph glyph-name="Aringacute" unicode="&#x1fa;" horiz-adv-x="698" d="M349 761 C411 761 454 803 458 857 L624 989 L484 988 L424 942 C405 960 378 970 349 970 C287 970 242 922 242 865 C242 805 291 761 349 761 L349 761 Z M349 904 C370 904 387 887 387 867 C387 846 370 829 349 829 C328 829 312 845 312 866 C312 886 328 904 349 904 L349 904 Z M535 0 L682 0 L417 710 L282 710 L19 0 L166 0 L214 142 L487 142 L535 0 Z M255 262 L349 541 L351 541 L446 262 L255 262 Z " />
<glyph glyph-name="aringacute" unicode="&#x1fb;" horiz-adv-x="607" d="M301 534 C364 534 408 579 410 634 L577 766 L438 765 L374 717 C355 734 329 743 301 743 C239 743 194 695 194 638 C194 578 243 534 301 534 L301 534 Z M301 677 C322 677 339 660 339 640 C339 619 322 602 301 602 C280 602 264 618 264 639 C264 659 280 677 301 677 L301 677 Z M415 433 L412 433 C377 475 327 496 269 496 C138 496 39 391 39 243 C39 92 137 -8 272 -8 C335 -8 385 16 418 59 L421 59 L421 0 L545 0 L545 488 L415 488 L415 433 Z M296 109 C223 109 171 163 171 242 C171 326 227 379 297 379 C368 379 420 320 420 242 C420 162 364 109 296 109 L296 109 Z " />
<glyph glyph-name="AEacute" unicode="&#x1fc;" horiz-adv-x="956" d="M649 932 L512 931 L399 784 L525 784 L649 932 Z M572 125 L572 291 L830 291 L830 415 L572 415 L572 584 L889 584 L889 710 L362 710 L6 0 L154 0 L224 142 L434 142 L434 0 L909 0 L909 125 L572 125 Z M283 262 L432 562 L434 562 L434 262 L283 262 Z " />
<glyph glyph-name="aeacute" unicode="&#x1fd;" horiz-adv-x="793" d="M582 695 L445 694 L332 547 L458 547 L582 695 Z M766 249 C766 392 676 496 550 496 C486 496 433 472 396 430 L393 430 C364 479 314 496 250 496 C166 496 90 465 64 451 L117 354 C157 375 204 386 242 386 C288 386 313 367 313 303 L313 296 L226 296 C93 295 30 236 30 142 C30 57 86 -8 211 -8 C290 -8 351 25 384 63 L387 63 C425 20 482 -8 551 -8 C636 -8 705 31 747 84 L656 160 C634 133 600 108 559 108 C499 108 457 145 442 201 L762 202 C764 206 766 233 766 249 L766 249 Z M544 381 C590 381 624 347 637 296 L443 296 C457 351 495 381 544 381 L544 381 Z M225 95 C181 95 158 119 158 150 C158 186 188 204 240 204 L313 205 L313 167 C313 137 277 95 225 95 L225 95 Z " />
<glyph glyph-name="Oslashacute" unicode="&#x1fe;" horiz-adv-x="821" d="M594 931 L457 930 L344 783 L470 783 L594 931 Z M778 677 L711 738 L631 651 C572 695 496 719 411 719 C196 719 49 566 49 355 C49 259 80 174 134 111 L58 28 L125 -35 L203 51 C261 13 331 -8 411 -8 C620 -8 772 138 772 355 C772 447 744 527 697 588 L778 677 Z M195 355 C195 484 284 587 412 587 C459 587 501 573 536 547 L234 219 C209 257 195 304 195 355 L195 355 Z M626 355 C626 222 534 123 412 123 C369 123 331 134 299 155 L596 478 C615 443 626 401 626 355 L626 355 Z " />
<glyph glyph-name="oslashacute" unicode="&#x1ff;" horiz-adv-x="598" d="M482 704 L345 703 L232 556 L358 556 L482 704 Z M560 461 L503 514 L449 455 C407 482 356 496 299 496 C144 496 40 390 40 244 C40 179 61 122 98 78 L49 26 L106 -28 L158 28 C197 5 245 -8 299 -8 C451 -8 559 94 559 244 C559 307 540 361 507 404 L560 461 Z M172 244 C172 321 223 379 299 379 C323 379 344 373 362 363 L188 176 C178 196 172 219 172 244 L172 244 Z M426 244 C426 165 370 109 299 109 C279 109 261 113 244 121 L414 304 C422 286 426 266 426 244 L426 244 Z " />
<glyph glyph-name="Scommaaccent" unicode="&#x218;" horiz-adv-x="584" d="M292 -8 C408 -8 543 55 543 210 C543 347 446 379 323 427 C242 459 203 478 204 522 C204 567 240 593 289 593 C333 593 385 572 444 523 L525 629 C456 687 374 720 286 719 C158 717 58 630 58 516 C58 382 165 332 272 294 C358 265 396 246 396 194 C396 150 362 119 294 119 C238 119 170 146 117 208 L33 104 C107 27 200 -8 292 -8 L292 -8 Z M217 -220 C298 -224 356 -180 356 -98 C356 -80 355 -67 352 -53 L239 -53 C243 -69 245 -77 245 -91 C245 -120 230 -135 190 -146 L217 -220 Z " />
<glyph glyph-name="scommaaccent" unicode="&#x219;" horiz-adv-x="448" d="M224 -8 C352 -8 414 57 414 144 C414 240 352 263 246 302 C198 320 172 334 172 354 C172 380 199 391 220 391 C256 391 299 375 337 339 L400 435 C345 478 290 496 222 496 C122 496 46 438 46 350 C46 256 116 218 196 191 C260 171 285 160 285 137 C285 113 263 97 225 97 C172 97 130 116 90 154 L26 63 C80 17 146 -8 224 -8 L224 -8 Z M145 -220 C226 -224 284 -180 284 -98 C284 -80 283 -67 280 -53 L167 -53 C171 -69 173 -77 173 -91 C173 -120 158 -135 118 -146 L145 -220 Z " />
<glyph glyph-name="uni021A" unicode="&#x21a;" horiz-adv-x="591" d="M225 0 L365 0 L365 584 L562 584 L562 710 L29 710 L29 584 L225 584 L225 0 Z M215 -220 C296 -224 354 -180 354 -98 C354 -80 353 -67 350 -53 L237 -53 C241 -69 243 -77 243 -91 C243 -120 228 -135 188 -146 L215 -220 Z " />
<glyph glyph-name="uni021B" unicode="&#x21b;" horiz-adv-x="373" d="M218 -8 C284 -8 316 5 348 22 L314 127 C292 116 268 110 252 110 C222 110 209 130 209 172 L209 380 L342 380 L342 488 L209 488 L209 662 L79 648 L79 488 L21 488 L21 380 L79 380 L79 154 C79 44 134 -8 218 -8 L218 -8 Z M132 -220 C213 -224 271 -180 271 -98 C271 -80 270 -67 267 -53 L154 -53 C158 -69 160 -77 160 -91 C160 -120 145 -135 105 -146 L132 -220 Z " />
<glyph glyph-name="uni0232" unicode="&#x232;" horiz-adv-x="632" d="M470 916 L166 916 L166 811 L470 811 L470 916 Z M460 710 L317 451 L315 451 L170 710 L9 710 L244 312 L244 0 L386 0 L386 312 L623 710 L460 710 Z " />
<glyph glyph-name="uni0233" unicode="&#x233;" horiz-adv-x="539" d="M424 688 L120 688 L120 583 L424 583 L424 688 Z M386 488 L274 186 L273 186 L153 488 L17 488 L211 30 L125 -198 L259 -198 L522 488 L386 488 Z " />
<glyph glyph-name="uni0237" unicode="&#x237;" horiz-adv-x="257" d="M52 -206 C138 -206 196 -147 196 -29 L196 488 L65 488 L65 -24 C65 -69 46 -92 15 -92 C0 -92 -15 -87 -28 -80 L-50 -188 C-18 -201 8 -206 52 -206 L52 -206 Z " />
<glyph glyph-name="uni0259" unicode="&#x259;" horiz-adv-x="560" d="M261 496 C194 496 132 478 80 451 L131 353 C175 374 218 383 254 383 C321 383 372 350 388 287 L42 287 C40 279 39 255 39 239 C39 96 135 -8 278 -8 C417 -8 521 95 521 243 C521 401 406 496 261 496 L261 496 Z M274 107 C221 107 180 137 169 191 L387 191 C372 135 330 107 274 107 L274 107 Z " />
<glyph glyph-name="uni0272" unicode="&#x272;" horiz-adv-x="592" d="M355 496 C295 496 239 472 199 425 L197 425 L197 488 L66 488 L66 -29 C66 -69 48 -97 16 -97 C1 -97 -13 -92 -27 -84 L-49 -188 C-17 -201 10 -206 53 -206 C139 -206 197 -144 197 -27 L197 246 C197 333 242 379 308 379 C369 379 402 350 402 257 L402 0 L533 0 L533 290 C533 440 460 496 355 496 L355 496 Z " />
<glyph glyph-name="circumflex" unicode="&#x2c6;" horiz-adv-x="472" d="M287 533 L408 533 L291 683 L175 683 L64 533 L184 533 L234 608 L236 608 L287 533 Z " />
<glyph glyph-name="caron" unicode="&#x2c7;" horiz-adv-x="472" d="M288 683 L237 607 L235 607 L185 683 L64 683 L178 533 L293 533 L408 683 L288 683 Z " />
<glyph glyph-name="breve" unicode="&#x2d8;" horiz-adv-x="461" d="M230 530 C326 530 387 594 394 680 L294 680 C292 641 266 617 230 617 C191 617 168 645 166 680 L67 680 C75 583 147 530 230 530 L230 530 Z " />
<glyph glyph-name="dotaccent" unicode="&#x2d9;" horiz-adv-x="501" d="M250 536 C295 536 332 572 332 616 C332 660 295 696 250 696 C206 696 169 660 169 616 C169 572 206 536 250 536 L250 536 Z " />
<glyph glyph-name="ring" unicode="&#x2da;" horiz-adv-x="460" d="M229 513 C294 513 338 560 338 617 C338 678 290 722 229 722 C167 722 122 674 122 617 C122 557 171 513 229 513 L229 513 Z M229 581 C208 581 192 597 192 618 C192 638 208 656 229 656 C250 656 267 639 267 619 C267 598 250 581 229 581 L229 581 Z " />
<glyph glyph-name="ogonek" unicode="&#x2db;" horiz-adv-x="473" d="M273 -189 C299 -189 326 -186 346 -177 L339 -106 C329 -110 325 -113 300 -113 C273 -113 259 -97 259 -72 C259 -41 292 -6 347 1 L244 14 C188 -13 160 -61 160 -98 C160 -152 203 -189 273 -189 L273 -189 Z " />
<glyph glyph-name="tilde" unicode="&#x2dc;" horiz-adv-x="498" d="M328 531 C384 531 425 582 445 656 L369 682 C356 652 336 633 312 633 C292 633 276 644 258 655 C236 667 213 682 172 682 C113 682 72 633 52 566 L130 532 C143 563 161 582 186 582 C205 582 222 572 241 561 C264 546 292 531 328 531 L328 531 Z " />
<glyph glyph-name="hungarumlaut" unicode="&#x2dd;" horiz-adv-x="534" d="M46 535 L167 535 L291 683 L159 682 L46 535 Z M250 535 L371 535 L495 683 L363 682 L250 535 Z " />
<glyph glyph-name="uni0374" unicode="&#x374;" horiz-adv-x="283" d="M34 471 L141 471 L214 730 L83 730 L34 471 Z " />
<glyph glyph-name="uni0375" unicode="&#x375;" horiz-adv-x="278" d="M63 -155 L170 -155 L243 104 L112 104 L63 -155 Z " />
<glyph glyph-name="uni037E" unicode="&#x37e;" horiz-adv-x="252" d="M121 336 C165 336 202 371 202 415 C202 459 165 495 121 495 C76 495 40 459 40 415 C40 371 76 336 121 336 L121 336 Z M25 -133 L121 -133 L190 127 L56 127 L25 -133 Z " />
<glyph glyph-name="tonos" unicode="&#x384;" horiz-adv-x="465" d="M141 535 L260 535 L341 708 L196 708 L141 535 Z " />
<glyph glyph-name="dieresistonos" unicode="&#x385;" horiz-adv-x="566" d="M207 535 L295 535 L323 708 L212 708 L207 535 Z M101 536 C146 536 182 572 182 616 C182 660 146 696 101 696 C56 696 20 660 20 616 C20 572 56 536 101 536 L101 536 Z M418 537 C462 537 499 573 499 616 C499 659 462 695 418 695 C374 695 338 658 338 616 C338 573 374 537 418 537 L418 537 Z " />
<glyph glyph-name="Alphatonos" unicode="&#x386;" horiz-adv-x="698" d="M535 0 L682 0 L417 710 L282 710 L19 0 L166 0 L214 142 L487 142 L535 0 Z M188 709 L43 709 L-27 536 L90 536 L188 709 Z M255 262 L349 541 L351 541 L446 262 L255 262 Z " />
<glyph glyph-name="anoteleia" unicode="&#x387;" horiz-adv-x="269" d="M135 336 C179 336 216 371 216 415 C216 459 179 495 135 495 C90 495 54 459 54 415 C54 371 90 336 135 336 L135 336 Z " />
<glyph glyph-name="Epsilontonos" unicode="&#x388;" horiz-adv-x="600" d="M-192 537 L-75 537 L23 710 L-122 710 L-192 537 Z M78 0 L553 0 L553 125 L216 125 L216 290 L469 290 L469 414 L216 414 L216 584 L532 584 L532 710 L78 710 L78 0 Z " />
<glyph glyph-name="Etatonos" unicode="&#x389;" horiz-adv-x="729" d="M-192 537 L-75 537 L23 710 L-122 710 L-192 537 Z M78 0 L219 0 L219 277 L510 277 L510 0 L651 0 L651 710 L510 710 L510 403 L219 403 L219 710 L78 710 L78 0 Z " />
<glyph glyph-name="Iotatonos" unicode="&#x38a;" horiz-adv-x="307" d="M-191 537 L-74 537 L24 710 L-121 710 L-191 537 Z M83 0 L224 0 L224 710 L83 710 L83 0 Z " />
<glyph glyph-name="Omicrontonos" unicode="&#x38c;" horiz-adv-x="821" d="M411 -8 C620 -8 772 138 772 355 C772 572 620 719 411 719 C196 719 49 566 49 355 C49 145 196 -8 411 -8 L411 -8 Z M-116 537 L1 537 L99 710 L-46 710 L-116 537 Z M412 123 C284 123 195 226 195 355 C195 484 284 587 412 587 C534 587 626 489 626 355 C626 222 534 123 412 123 L412 123 Z " />
<glyph glyph-name="Upsilontonos" unicode="&#x38e;" horiz-adv-x="632" d="M-241 537 L-124 537 L-26 710 L-171 710 L-241 537 Z M460 710 L317 451 L315 451 L170 710 L9 710 L244 312 L244 0 L386 0 L386 312 L623 710 L460 710 Z " />
<glyph glyph-name="Omegatonos" unicode="&#x38f;" horiz-adv-x="764" d="M590 127 C668 193 715 285 715 390 C715 579 582 719 382 719 C182 719 48 579 48 390 C48 284 96 193 174 126 L174 125 L57 125 L57 0 L335 0 L335 125 C249 191 195 278 195 384 C195 503 270 588 382 589 C494 589 569 503 569 384 C569 278 515 191 429 125 L429 0 L707 0 L707 125 L590 125 L590 127 Z M-65 710 L-135 537 L-18 537 L80 710 L-65 710 Z " />
<glyph glyph-name="iotadieresistonos" unicode="&#x390;" horiz-adv-x="296" d="M89 556 L177 556 L205 729 L94 729 L89 556 Z M-17 557 C28 557 64 593 64 637 C64 681 28 717 -17 717 C-62 717 -98 681 -98 637 C-98 593 -62 557 -17 557 L-17 557 Z M300 558 C344 558 381 594 381 637 C381 680 344 716 300 716 C256 716 220 679 220 637 C220 594 256 558 300 558 L300 558 Z M195 -8 C232 -8 260 0 290 11 L275 116 C259 111 244 109 231 109 C208 109 200 116 200 157 L200 488 L69 488 L69 130 C69 47 102 -8 195 -8 L195 -8 Z " />
<glyph glyph-name="Alpha" unicode="&#x391;" horiz-adv-x="698" d="M535 0 L682 0 L417 710 L282 710 L19 0 L166 0 L214 142 L487 142 L535 0 Z M255 262 L349 541 L351 541 L446 262 L255 262 Z " />
<glyph glyph-name="Beta" unicode="&#x392;" horiz-adv-x="644" d="M459 377 L459 378 C537 408 566 473 566 537 C566 650 485 710 334 710 L78 710 L78 0 L372 0 C527 0 603 83 603 196 C603 290 551 354 459 377 L459 377 Z M216 586 L308 586 C390 586 424 553 424 503 C424 445 373 419 317 419 L216 419 L216 586 Z M330 124 L216 124 L216 306 L331 306 C415 306 456 270 456 214 C456 153 405 124 330 124 L330 124 Z " />
<glyph glyph-name="Gamma" unicode="&#x393;" horiz-adv-x="575" d="M78 0 L219 0 L219 585 L545 585 L545 710 L78 710 L78 0 Z " />
<glyph glyph-name="uni0394" unicode="&#x394;" horiz-adv-x="686" d="M413 710 L272 710 L35 107 L35 0 L650 0 L650 108 L413 710 Z M192 125 L342 534 L344 534 L491 125 L192 125 Z " />
<glyph glyph-name="Epsilon" unicode="&#x395;" horiz-adv-x="600" d="M78 0 L553 0 L553 125 L216 125 L216 290 L469 290 L469 414 L216 414 L216 584 L532 584 L532 710 L78 710 L78 0 Z " />
<glyph glyph-name="Zeta" unicode="&#x396;" horiz-adv-x="624" d="M230 125 L230 127 L569 603 L569 710 L65 710 L65 584 L383 584 L383 583 L51 110 L51 0 L570 0 L570 125 L230 125 Z " />
<glyph glyph-name="Eta" unicode="&#x397;" horiz-adv-x="729" d="M78 0 L219 0 L219 277 L510 277 L510 0 L651 0 L651 710 L510 710 L510 403 L219 403 L219 710 L78 710 L78 0 Z " />
<glyph glyph-name="Theta" unicode="&#x398;" horiz-adv-x="829" d="M411 -8 C620 -8 772 138 772 355 C772 572 620 719 411 719 C196 719 49 566 49 355 C49 145 196 -8 411 -8 L411 -8 Z M412 123 C284 123 195 226 195 355 C195 484 284 587 412 587 C534 587 626 489 626 355 C626 222 534 123 412 123 L412 123 Z M281 290 L548 290 L548 412 L281 412 L281 290 Z " />
<glyph glyph-name="Iota" unicode="&#x399;" horiz-adv-x="307" d="M83 0 L224 0 L224 710 L83 710 L83 0 Z " />
<glyph glyph-name="Kappa" unicode="&#x39a;" horiz-adv-x="666" d="M289 285 L478 0 L651 0 L381 397 L643 710 L465 710 L219 397 L218 397 L218 710 L78 710 L78 0 L218 0 L218 202 L288 285 L289 285 Z " />
<glyph glyph-name="Lambda" unicode="&#x39b;" horiz-adv-x="680" d="M509 0 L660 0 L408 710 L270 710 L19 0 L169 0 L338 513 L340 513 L509 0 Z " />
<glyph glyph-name="Mu" unicode="&#x39c;" horiz-adv-x="876" d="M657 710 L440 306 L438 306 L220 710 L78 710 L78 0 L218 0 L218 441 L220 441 L393 135 L484 135 L657 441 L659 441 L659 0 L798 0 L798 710 L657 710 Z " />
<glyph glyph-name="Nu" unicode="&#x39d;" horiz-adv-x="755" d="M536 710 L536 230 L535 230 L218 710 L78 710 L78 0 L218 0 L218 471 L220 471 L533 0 L677 0 L677 710 L536 710 Z " />
<glyph glyph-name="Xi" unicode="&#x39e;" horiz-adv-x="636" d="M61 582 L575 582 L575 710 L61 710 L61 582 Z M116 290 L517 290 L517 413 L116 413 L116 290 Z M54 0 L582 0 L582 128 L54 128 L54 0 Z " />
<glyph glyph-name="Omicron" unicode="&#x39f;" horiz-adv-x="821" d="M411 -8 C620 -8 772 138 772 355 C772 572 620 719 411 719 C196 719 49 566 49 355 C49 145 196 -8 411 -8 L411 -8 Z M412 123 C284 123 195 226 195 355 C195 484 284 587 412 587 C534 587 626 489 626 355 C626 222 534 123 412 123 L412 123 Z " />
<glyph glyph-name="Pi" unicode="&#x3a0;" horiz-adv-x="700" d="M78 0 L219 0 L219 584 L481 584 L481 0 L623 0 L623 710 L78 710 L78 0 Z " />
<glyph glyph-name="Rho" unicode="&#x3a1;" horiz-adv-x="624" d="M78 0 L217 0 L217 243 L328 243 C484 243 588 318 588 474 C588 610 513 710 341 710 L78 710 L78 0 Z M217 368 L217 585 L316 585 C398 585 442 542 442 477 C442 411 398 368 310 368 L217 368 Z " />
<glyph glyph-name="Sigma" unicode="&#x3a3;" horiz-adv-x="590" d="M551 585 L551 710 L47 710 L47 608 L234 356 L47 98 L47 0 L551 0 L551 125 L236 125 L236 126 L403 356 L237 583 L237 585 L551 585 Z " />
<glyph glyph-name="Tau" unicode="&#x3a4;" horiz-adv-x="591" d="M225 0 L365 0 L365 584 L562 584 L562 710 L29 710 L29 584 L225 584 L225 0 Z " />
<glyph glyph-name="Upsilon" unicode="&#x3a5;" horiz-adv-x="632" d="M460 710 L317 451 L315 451 L170 710 L9 710 L244 312 L244 0 L386 0 L386 312 L623 710 L460 710 Z " />
<glyph glyph-name="Phi" unicode="&#x3a6;" horiz-adv-x="822" d="M782 357 C782 520 672 638 483 662 L483 722 L343 722 L343 662 C151 639 41 520 41 357 C41 196 151 86 343 66 L343 0 L483 0 L483 66 C672 87 782 197 782 357 L782 357 Z M184 358 C184 451 244 519 347 539 L347 186 C244 205 184 268 184 358 L184 358 Z M479 187 L479 539 C579 518 638 450 638 358 C638 268 579 206 479 187 L479 187 Z " />
<glyph glyph-name="Chi" unicode="&#x3a7;" horiz-adv-x="702" d="M512 0 L676 0 L444 357 L669 710 L508 710 L352 465 L350 465 L194 710 L33 710 L258 357 L26 0 L190 0 L350 249 L352 249 L512 0 Z " />
<glyph glyph-name="Psi" unicode="&#x3a8;" horiz-adv-x="798" d="M605 710 L604 469 C604 338 560 285 468 281 L468 710 L329 710 L329 281 C234 285 193 340 194 469 L194 710 L57 710 L57 453 C56 262 154 159 329 157 L329 0 L468 0 L468 157 C647 159 741 265 741 453 L742 710 L605 710 Z " />
<glyph glyph-name="uni03A9" unicode="&#x3a9;" horiz-adv-x="764" d="M590 127 C668 193 715 285 715 390 C715 579 582 719 382 719 C182 719 48 579 48 390 C48 284 96 193 174 126 L174 125 L57 125 L57 0 L335 0 L335 125 C249 191 195 278 195 384 C195 503 270 588 382 589 C494 589 569 503 569 384 C569 278 515 191 429 125 L429 0 L707 0 L707 125 L590 125 L590 127 Z " />
<glyph glyph-name="Iotadieresis" unicode="&#x3aa;" horiz-adv-x="307" d="M46 785 C90 785 127 821 127 865 C127 909 90 945 46 945 C0 945 -36 909 -36 865 C-36 821 0 785 46 785 L46 785 Z M263 786 C306 786 343 822 343 865 C343 908 306 944 263 944 C218 944 182 907 182 865 C182 822 218 786 263 786 L263 786 Z M83 0 L224 0 L224 710 L83 710 L83 0 Z " />
<glyph glyph-name="Upsilondieresis" unicode="&#x3ab;" horiz-adv-x="632" d="M206 785 C250 785 287 821 287 865 C287 909 250 945 206 945 C160 945 124 909 124 865 C124 821 160 785 206 785 L206 785 Z M423 786 C466 786 503 822 503 865 C503 908 466 944 423 944 C378 944 342 907 342 865 C342 822 378 786 423 786 L423 786 Z M460 710 L317 451 L315 451 L170 710 L9 710 L244 312 L244 0 L386 0 L386 312 L623 710 L460 710 Z " />
<glyph glyph-name="alphatonos" unicode="&#x3ac;" horiz-adv-x="598" d="M440 729 L295 729 L240 556 L359 556 L440 729 Z M573 113 C561 109 551 108 543 108 C519 108 512 124 512 161 L512 272 L539 488 L416 488 L412 415 L410 415 C377 469 325 496 261 496 C131 496 38 391 38 243 C38 94 122 -8 256 -8 C321 -8 369 18 400 65 L402 65 C414 14 449 -8 501 -8 C534 -8 560 -1 587 10 L573 113 Z M278 109 C211 109 171 165 171 242 C171 326 221 379 286 379 C354 379 398 329 399 246 L399 240 C390 161 344 109 278 109 L278 109 Z " />
<glyph glyph-name="epsilontonos" unicode="&#x3ad;" horiz-adv-x="505" d="M395 729 L250 729 L195 556 L314 556 L395 729 Z M427 142 C377 112 328 105 278 105 C213 105 178 120 178 151 C178 171 198 199 256 199 L346 199 L346 299 L264 299 C208 300 188 323 188 342 C188 369 216 383 270 383 C315 384 372 375 424 354 L473 446 C400 490 309 496 250 496 C124 494 58 440 58 357 C58 319 80 280 124 255 C70 231 43 188 43 134 C43 42 122 -8 243 -8 C331 -8 403 0 482 50 L427 142 Z " />
<glyph glyph-name="etatonos" unicode="&#x3ae;" horiz-adv-x="588" d="M436 729 L291 729 L236 556 L355 556 L436 729 Z M352 496 C295 496 239 471 199 425 L198 425 L198 488 L67 488 L67 0 L198 0 L198 244 C198 332 242 379 305 379 C364 379 397 343 397 255 L397 -198 L528 -198 L528 288 C528 437 460 496 352 496 L352 496 Z " />
<glyph glyph-name="iotatonos" unicode="&#x3af;" horiz-adv-x="296" d="M77 556 L196 556 L277 729 L132 729 L77 556 Z M195 -8 C232 -8 260 0 290 11 L275 116 C259 111 244 109 231 109 C208 109 200 116 200 157 L200 488 L69 488 L69 130 C69 47 102 -8 195 -8 L195 -8 Z " />
<glyph glyph-name="upsilondieresistonos" unicode="&#x3b0;" horiz-adv-x="564" d="M232 556 L320 556 L348 729 L237 729 L232 556 Z M126 557 C171 557 207 593 207 637 C207 681 171 717 126 717 C81 717 45 681 45 637 C45 593 81 557 126 557 L126 557 Z M443 558 C487 558 524 594 524 637 C524 680 487 716 443 716 C399 716 363 679 363 637 C363 594 399 558 443 558 L443 558 Z M282 -8 C420 -8 508 72 508 238 L508 488 L377 488 L377 247 C377 151 340 109 282 109 C227 109 188 151 188 247 L188 488 L57 488 L57 238 C57 72 147 -8 282 -8 L282 -8 Z " />
<glyph glyph-name="alpha" unicode="&#x3b1;" horiz-adv-x="598" d="M573 113 C561 109 551 108 543 108 C519 108 512 124 512 161 L512 272 L539 488 L416 488 L412 415 L410 415 C377 469 325 496 261 496 C131 496 38 391 38 243 C38 94 122 -8 256 -8 C321 -8 369 18 400 65 L402 65 C414 14 449 -8 501 -8 C534 -8 560 -1 587 10 L573 113 Z M278 109 C211 109 171 165 171 242 C171 326 221 379 286 379 C354 379 398 329 399 246 L399 240 C390 161 344 109 278 109 L278 109 Z " />
<glyph glyph-name="beta" unicode="&#x3b2;" horiz-adv-x="599" d="M447 400 L447 401 C509 437 526 499 526 556 C526 660 445 745 301 745 C165 745 67 662 67 489 L67 -198 L198 -198 L198 42 L199 42 C233 9 278 -8 335 -8 C473 -8 563 79 563 220 C563 296 519 365 447 400 L447 400 Z M316 103 C247 103 198 161 198 226 L198 500 C198 596 250 629 305 629 C368 629 399 588 399 540 C399 500 383 436 292 435 L263 435 L263 329 L299 329 C384 329 431 276 431 215 C431 148 385 103 316 103 L316 103 Z " />
<glyph glyph-name="gamma" unicode="&#x3b3;" horiz-adv-x="539" d="M522 488 L383 488 L272 153 L270 153 L156 488 L17 488 L191 28 C225 -63 220 -134 221 -198 L349 -198 C348 -135 351 -63 334 -2 L522 488 Z " />
<glyph glyph-name="delta" unicode="&#x3b4;" horiz-adv-x="577" d="M397 466 C367 484 341 498 318 510 C259 542 232 560 232 590 C232 621 265 632 306 632 C355 632 414 620 465 593 L515 693 C441 736 353 745 294 745 C172 744 103 677 103 594 C103 537 131 494 174 459 C96 416 38 341 38 239 C38 92 143 -8 293 -8 C434 -8 542 86 542 237 C542 356 465 427 397 466 L397 466 Z M293 109 C220 109 171 164 171 239 C171 310 210 367 270 399 C278 394 286 389 295 385 C358 354 409 309 409 235 C409 154 356 109 293 109 L293 109 Z " />
<glyph glyph-name="epsilon" unicode="&#x3b5;" horiz-adv-x="505" d="M427 142 C377 112 328 105 278 105 C213 105 178 120 178 151 C178 171 198 199 256 199 L346 199 L346 299 L264 299 C208 300 188 323 188 342 C188 369 216 383 270 383 C315 384 372 375 424 354 L473 446 C400 490 309 496 250 496 C124 494 58 440 58 357 C58 319 80 280 124 255 C70 231 43 188 43 134 C43 42 122 -8 243 -8 C331 -8 403 0 482 50 L427 142 Z " />
<glyph glyph-name="zeta" unicode="&#x3b6;" horiz-adv-x="472" d="M471 639 L471 736 L74 736 L74 625 L292 625 C147 500 39 364 37 234 C37 86 134 41 228 14 C320 -12 337 -34 337 -63 C337 -99 306 -132 276 -164 L385 -220 C425 -179 470 -116 470 -44 C470 23 441 69 315 110 C228 140 168 160 169 235 C171 356 310 514 471 639 L471 639 Z " />
<glyph glyph-name="eta" unicode="&#x3b7;" horiz-adv-x="588" d="M352 496 C295 496 239 471 199 425 L198 425 L198 488 L67 488 L67 0 L198 0 L198 244 C198 332 242 379 305 379 C364 379 397 343 397 255 L397 -198 L528 -198 L528 288 C528 437 460 496 352 496 L352 496 Z " />
<glyph glyph-name="theta" unicode="&#x3b8;" horiz-adv-x="593" d="M296 745 C110 745 39 576 39 369 C39 103 148 -8 296 -8 C483 -8 555 157 555 369 C555 630 445 745 296 745 L296 745 Z M296 629 C372 629 412 552 421 425 L172 425 C181 553 222 629 296 629 L296 629 Z M296 107 C220 107 179 185 171 317 L421 317 C413 182 371 107 296 107 L296 107 Z " />
<glyph glyph-name="iota" unicode="&#x3b9;" horiz-adv-x="296" d="M195 -8 C232 -8 260 0 290 11 L275 116 C259 111 244 109 231 109 C208 109 200 116 200 157 L200 488 L69 488 L69 130 C69 47 102 -8 195 -8 L195 -8 Z " />
<glyph glyph-name="kappa" unicode="&#x3ba;" horiz-adv-x="581" d="M268 190 L413 0 L571 0 L358 283 L559 488 L397 488 L198 286 L197 286 L197 488 L66 488 L66 0 L197 0 L197 120 L266 190 L268 190 Z " />
<glyph glyph-name="lambda" unicode="&#x3bb;" horiz-adv-x="558" d="M404 0 L541 0 C473 197 405 390 333 583 C290 696 246 745 164 745 C124 745 86 736 55 726 L72 620 C88 625 110 629 131 629 C161 629 186 614 204 561 L231 490 L20 0 L161 0 L292 327 L293 327 C329 222 365 114 404 0 L404 0 Z " />
<glyph glyph-name="uni03BC" unicode="&#x3bc;" horiz-adv-x="582" d="M390 488 L390 244 C390 157 345 109 287 109 C226 109 193 148 193 238 L193 488 L63 488 L63 -198 L193 -198 L193 -97 C193 -61 190 -21 184 14 L185 15 C203 -1 226 -8 258 -8 C310 -8 357 17 391 61 L393 61 L400 0 L521 0 L521 488 L390 488 Z " />
<glyph glyph-name="nu" unicode="&#x3bd;" horiz-adv-x="540" d="M384 488 L271 160 L270 160 L155 488 L17 488 L209 0 L332 0 L523 488 L384 488 Z " />
<glyph glyph-name="xi" unicode="&#x3be;" horiz-adv-x="499" d="M330 108 C228 146 173 173 173 231 C173 286 225 334 326 334 L438 334 L438 443 L385 443 C261 443 205 478 205 543 C205 588 238 628 302 628 C349 628 395 616 446 589 L497 693 C423 736 343 745 290 745 C188 745 74 686 74 551 C74 479 109 430 159 398 L159 397 C84 359 40 291 40 223 C40 95 151 45 255 10 C325 -14 349 -33 349 -62 C349 -93 316 -133 287 -164 L396 -220 C434 -182 481 -110 481 -46 C481 21 445 65 330 108 L330 108 Z " />
<glyph glyph-name="omicron" unicode="&#x3bf;" horiz-adv-x="585" d="M293 -8 C442 -8 547 94 547 244 C547 394 442 496 293 496 C144 496 38 394 38 244 C38 94 144 -8 293 -8 L293 -8 Z M292 109 C224 109 170 165 170 244 C170 324 223 379 292 379 C362 379 415 324 415 244 C415 165 361 109 292 109 L292 109 Z " />
<glyph glyph-name="pi" unicode="&#x3c0;" horiz-adv-x="624" d="M602 488 L25 488 L25 377 L102 377 L102 0 L232 0 L232 377 L393 377 L393 0 L523 0 L523 377 L602 377 L602 488 Z " />
<glyph glyph-name="rho" unicode="&#x3c1;" horiz-adv-x="600" d="M304 496 C151 496 58 388 58 243 L58 -198 L189 -198 L189 44 L192 44 C228 10 276 -8 335 -8 C466 -8 563 93 563 243 C563 392 451 496 304 496 L304 496 Z M305 109 C238 109 183 162 183 242 C183 320 236 379 304 379 C375 379 431 324 431 242 C431 165 378 109 305 109 L305 109 Z " />
<glyph glyph-name="uni03C2" unicode="&#x3c2;" horiz-adv-x="510" d="M383 -220 C419 -179 467 -125 467 -46 C467 23 436 67 322 109 C221 146 167 184 167 258 C167 329 217 379 298 379 C345 379 384 357 411 327 L499 403 C449 465 370 496 294 496 C139 496 34 401 34 259 C34 105 138 49 247 8 C318 -18 334 -35 334 -64 C334 -104 305 -132 273 -164 L383 -220 Z " />
<glyph glyph-name="sigma" unicode="&#x3c3;" horiz-adv-x="602" d="M586 379 L586 488 L298 488 C144 488 40 387 40 239 C40 88 145 -8 290 -8 C440 -8 542 88 542 222 C542 287 514 338 471 377 L471 379 L586 379 Z M292 109 C229 109 172 157 172 239 C172 320 224 379 299 379 L344 379 C382 346 409 297 409 239 C409 164 364 109 292 109 L292 109 Z " />
<glyph glyph-name="tau" unicode="&#x3c4;" horiz-adv-x="470" d="M288 -8 C347 -8 388 3 428 23 L396 127 C370 115 351 109 330 109 C290 109 279 129 279 179 L279 379 L444 379 L444 488 L18 488 L18 379 L147 379 L147 155 C147 39 201 -8 288 -8 L288 -8 Z " />
<glyph glyph-name="upsilon" unicode="&#x3c5;" horiz-adv-x="564" d="M282 -8 C420 -8 508 72 508 238 L508 488 L377 488 L377 247 C377 151 340 109 282 109 C227 109 188 151 188 247 L188 488 L57 488 L57 238 C57 72 147 -8 282 -8 L282 -8 Z " />
<glyph glyph-name="phi" unicode="&#x3c6;" horiz-adv-x="719" d="M681 264 C681 398 599 496 461 496 C360 496 288 424 288 285 L288 110 C215 121 172 178 172 265 C172 332 203 410 256 473 L130 501 C78 433 42 362 42 253 C42 99 144 2 287 -3 L287 -198 L417 -198 L417 -3 C584 2 681 119 681 264 L681 264 Z M416 108 L416 276 C416 326 421 381 476 381 C522 381 550 320 550 262 C550 184 505 117 416 108 L416 108 Z " />
<glyph glyph-name="chi" unicode="&#x3c7;" horiz-adv-x="533" d="M517 -87 C510 -88 499 -91 488 -91 C464 -91 447 -75 429 -39 L332 156 L516 488 L376 488 L271 281 L270 281 L229 380 C197 454 165 496 95 496 C66 496 41 492 14 481 L31 377 C41 379 49 380 56 380 C84 380 100 365 117 330 L205 155 L11 -198 L152 -198 L265 26 L266 26 L313 -83 C347 -165 380 -206 453 -206 C485 -206 505 -202 532 -190 L517 -87 Z " />
<glyph glyph-name="psi" unicode="&#x3c8;" horiz-adv-x="725" d="M543 488 L543 246 C543 156 492 114 427 111 L427 640 L299 640 L299 111 C233 113 182 155 182 246 L182 488 L54 488 L54 235 C54 73 156 -6 298 -9 L298 -198 L428 -198 L428 -9 C569 -6 671 73 671 235 L671 488 L543 488 Z " />
<glyph glyph-name="omega" unicode="&#x3c9;" horiz-adv-x="759" d="M629 502 L511 479 C549 420 586 328 586 245 C586 155 555 109 509 109 C470 109 439 157 439 244 L439 366 L319 366 L319 244 C319 157 289 109 250 109 C204 109 173 155 173 245 C173 328 209 420 248 479 L129 502 C82 441 40 371 40 232 C40 78 130 -8 231 -8 C306 -8 352 24 378 76 L381 76 C407 24 453 -8 528 -8 C628 -8 719 78 719 232 C719 371 677 441 629 502 L629 502 Z " />
<glyph glyph-name="iotadieresis" unicode="&#x3ca;" horiz-adv-x="296" d="M28 557 C72 557 109 593 109 637 C109 681 72 717 28 717 C-18 717 -54 681 -54 637 C-54 593 -18 557 28 557 L28 557 Z M245 558 C288 558 325 594 325 637 C325 680 288 716 245 716 C200 716 164 679 164 637 C164 594 200 558 245 558 L245 558 Z M195 -8 C232 -8 260 0 290 11 L275 116 C259 111 244 109 231 109 C208 109 200 116 200 157 L200 488 L69 488 L69 130 C69 47 102 -8 195 -8 L195 -8 Z " />
<glyph glyph-name="upsilondieresis" unicode="&#x3cb;" horiz-adv-x="564" d="M171 557 C215 557 252 593 252 637 C252 681 215 717 171 717 C125 717 89 681 89 637 C89 593 125 557 171 557 L171 557 Z M388 558 C431 558 468 594 468 637 C468 680 431 716 388 716 C343 716 307 679 307 637 C307 594 343 558 388 558 L388 558 Z M282 -8 C420 -8 508 72 508 238 L508 488 L377 488 L377 247 C377 151 340 109 282 109 C227 109 188 151 188 247 L188 488 L57 488 L57 238 C57 72 147 -8 282 -8 L282 -8 Z " />
<glyph glyph-name="omicrontonos" unicode="&#x3cc;" horiz-adv-x="585" d="M233 556 L352 556 L433 729 L288 729 L233 556 Z M293 -8 C442 -8 547 94 547 244 C547 394 442 496 293 496 C144 496 38 394 38 244 C38 94 144 -8 293 -8 L293 -8 Z M292 109 C224 109 170 165 170 244 C170 324 223 379 292 379 C362 379 415 324 415 244 C415 165 361 109 292 109 L292 109 Z " />
<glyph glyph-name="upsilontonos" unicode="&#x3cd;" horiz-adv-x="564" d="M220 556 L339 556 L420 729 L275 729 L220 556 Z M282 -8 C420 -8 508 72 508 238 L508 488 L377 488 L377 247 C377 151 340 109 282 109 C227 109 188 151 188 247 L188 488 L57 488 L57 238 C57 72 147 -8 282 -8 L282 -8 Z " />
<glyph glyph-name="omegatonos" unicode="&#x3ce;" horiz-adv-x="759" d="M521 729 L376 729 L321 556 L440 556 L521 729 Z M629 502 L511 479 C549 420 586 328 586 245 C586 155 555 109 509 109 C470 109 439 157 439 244 L439 366 L319 366 L319 244 C319 157 289 109 250 109 C204 109 173 155 173 245 C173 328 209 420 248 479 L129 502 C82 441 40 371 40 232 C40 78 130 -8 231 -8 C306 -8 352 24 378 76 L381 76 C407 24 453 -8 528 -8 C628 -8 719 78 719 232 C719 371 677 441 629 502 L629 502 Z " />
<glyph glyph-name="uni03D7" unicode="&#x3d7;" horiz-adv-x="596" d="M354 283 L542 488 L384 488 L198 283 L197 283 L197 488 L66 488 L66 0 L197 0 L197 113 L264 186 L265 186 C294 104 348 38 418 -3 L418 -5 C343 -73 265 -111 183 -111 C138 -111 77 -95 30 -62 L7 -171 C56 -199 120 -216 201 -216 C345 -216 438 -149 582 8 L582 81 C454 105 401 157 354 283 L354 283 Z " />
<glyph glyph-name="Wgrave" unicode="&#x1e80;" horiz-adv-x="1033" d="M579 784 L466 931 L329 932 L452 784 L579 784 Z M857 710 L718 230 L717 230 L591 710 L442 710 L316 230 L314 230 L176 710 L26 710 L250 0 L379 0 L517 505 L520 505 L653 0 L783 0 L1007 710 L857 710 Z " />
<glyph glyph-name="wgrave" unicode="&#x1e81;" horiz-adv-x="772" d="M449 556 L336 703 L199 704 L322 556 L449 556 Z M621 488 L526 191 L524 191 L438 488 L333 488 L248 191 L246 191 L151 488 L20 488 L187 0 L299 0 L385 301 L387 301 L473 0 L586 0 L752 488 L621 488 Z " />
<glyph glyph-name="Wacute" unicode="&#x1e82;" horiz-adv-x="1033" d="M708 932 L571 931 L458 784 L584 784 L708 932 Z M857 710 L718 230 L717 230 L591 710 L442 710 L316 230 L314 230 L176 710 L26 710 L250 0 L379 0 L517 505 L520 505 L653 0 L783 0 L1007 710 L857 710 Z " />
<glyph glyph-name="wacute" unicode="&#x1e83;" horiz-adv-x="772" d="M576 704 L439 703 L326 556 L452 556 L576 704 Z M621 488 L526 191 L524 191 L438 488 L333 488 L248 191 L246 191 L151 488 L20 488 L187 0 L299 0 L385 301 L387 301 L473 0 L586 0 L752 488 L621 488 Z " />
<glyph glyph-name="Wdieresis" unicode="&#x1e84;" horiz-adv-x="1033" d="M412 785 C456 785 493 821 493 865 C493 909 456 945 412 945 C367 945 331 909 331 865 C331 821 367 785 412 785 L412 785 Z M622 786 C665 786 702 822 702 865 C702 908 665 944 622 944 C577 944 541 908 541 865 C541 822 577 786 622 786 L622 786 Z M857 710 L718 230 L717 230 L591 710 L442 710 L316 230 L314 230 L176 710 L26 710 L250 0 L379 0 L517 505 L520 505 L653 0 L783 0 L1007 710 L857 710 Z " />
<glyph glyph-name="wdieresis" unicode="&#x1e85;" horiz-adv-x="772" d="M280 557 C324 557 361 593 361 637 C361 681 324 717 280 717 C235 717 199 681 199 637 C199 593 235 557 280 557 L280 557 Z M490 558 C533 558 570 594 570 637 C570 680 533 716 490 716 C445 716 409 680 409 637 C409 594 445 558 490 558 L490 558 Z M621 488 L526 191 L524 191 L438 488 L333 488 L248 191 L246 191 L151 488 L20 488 L187 0 L299 0 L385 301 L387 301 L473 0 L586 0 L752 488 L621 488 Z " />
<glyph glyph-name="uni1E9E" unicode="&#x1e9e;" horiz-adv-x="772" d="M537 424 L537 426 L667 671 C554 700 420 719 336 719 C171 719 65 651 64 472 L64 0 L203 0 L203 465 C204 560 256 594 348 594 C381 594 429 590 480 584 L480 583 L357 348 L359 348 C401 325 439 308 478 295 C563 265 601 247 601 194 C601 150 569 119 511 119 C468 119 406 144 354 196 L290 75 C359 18 438 -8 510 -8 C612 -8 748 55 748 210 C748 345 656 378 537 424 L537 424 Z " />
<glyph glyph-name="uni1EA0" unicode="&#x1ea0;" horiz-adv-x="698" d="M682 0 L417 710 L282 710 L19 0 L166 0 L214 142 L487 142 L535 0 L682 0 Z M255 262 L349 541 L351 541 L446 262 L255 262 Z M350 -90 C305 -90 268 -126 268 -170 C268 -214 305 -250 350 -250 C394 -250 431 -214 431 -170 C431 -126 394 -90 350 -90 L350 -90 Z " />
<glyph glyph-name="uni1EA1" unicode="&#x1ea1;" horiz-adv-x="607" d="M415 488 L415 433 L412 433 C377 475 327 496 269 496 C138 496 39 391 39 243 C39 92 137 -8 272 -8 C335 -8 385 16 418 59 L421 59 L421 0 L545 0 L545 488 L415 488 Z M296 109 C223 109 171 163 171 242 C171 326 227 379 297 379 C368 379 420 320 420 242 C420 162 364 109 296 109 L296 109 Z M294 -90 C249 -90 212 -126 212 -170 C212 -214 249 -250 294 -250 C338 -250 375 -214 375 -170 C375 -126 338 -90 294 -90 L294 -90 Z " />
<glyph glyph-name="uni1EA2" unicode="&#x1ea2;" horiz-adv-x="698" d="M350 888 C366 888 379 884 379 869 C379 835 297 824 297 793 C297 782 305 773 315 763 L366 765 L373 789 C430 800 463 828 463 870 C463 915 427 949 360 949 C312 949 264 927 238 901 L283 858 C300 874 326 888 350 888 L350 888 Z M535 0 L682 0 L417 710 L282 710 L19 0 L166 0 L214 142 L487 142 L535 0 Z M255 262 L349 541 L351 541 L446 262 L255 262 Z " />
<glyph glyph-name="uni1EA3" unicode="&#x1ea3;" horiz-adv-x="607" d="M302 660 C318 660 331 656 331 641 C331 607 249 596 249 565 C249 554 257 545 267 535 L318 537 L325 561 C382 572 415 600 415 642 C415 687 379 721 312 721 C264 721 216 699 190 673 L235 630 C252 646 278 660 302 660 L302 660 Z M415 488 L415 433 L412 433 C377 475 327 496 269 496 C138 496 39 391 39 243 C39 92 137 -8 272 -8 C335 -8 385 16 418 59 L421 59 L421 0 L545 0 L545 488 L415 488 Z M296 109 C223 109 171 163 171 242 C171 326 227 379 297 379 C368 379 420 320 420 242 C420 162 364 109 296 109 L296 109 Z " />
<glyph glyph-name="uni1EA4" unicode="&#x1ea4;" horiz-adv-x="698" d="M744 959 L610 958 L497 812 L595 812 L744 959 Z M348 841 L350 841 L401 766 L522 766 L405 916 L289 916 L178 766 L298 766 L348 841 Z M282 710 L19 0 L166 0 L214 142 L487 142 L535 0 L682 0 L417 710 L282 710 Z M255 262 L349 541 L351 541 L446 262 L255 262 Z " />
<glyph glyph-name="uni1EA5" unicode="&#x1ea5;" horiz-adv-x="607" d="M667 795 L533 795 L420 648 L518 648 L667 795 Z M300 629 L302 629 L353 554 L474 554 L357 704 L241 704 L130 554 L250 554 L300 629 Z M415 433 L412 433 C377 475 327 496 269 496 C138 496 39 391 39 243 C39 92 137 -8 272 -8 C335 -8 385 16 418 59 L421 59 L421 0 L545 0 L545 488 L415 488 L415 433 Z M296 109 C223 109 171 163 171 242 C171 326 227 379 297 379 C368 379 420 320 420 242 C420 162 364 109 296 109 L296 109 Z " />
<glyph glyph-name="uni1EA6" unicode="&#x1ea6;" horiz-adv-x="698" d="M646 812 L561 959 L429 959 L550 812 L646 812 Z M349 841 L351 841 L402 766 L523 766 L406 916 L290 916 L179 766 L299 766 L349 841 Z M535 0 L682 0 L417 710 L282 710 L19 0 L166 0 L214 142 L487 142 L535 0 Z M255 262 L349 541 L351 541 L446 262 L255 262 Z " />
<glyph glyph-name="uni1EA7" unicode="&#x1ea7;" horiz-adv-x="607" d="M556 649 L471 795 L339 796 L460 649 L556 649 Z M300 629 L302 629 L353 554 L474 554 L357 704 L241 704 L130 554 L250 554 L300 629 Z M415 433 L412 433 C377 475 327 496 269 496 C138 496 39 391 39 243 C39 92 137 -8 272 -8 C335 -8 385 16 418 59 L421 59 L421 0 L545 0 L545 488 L415 488 L415 433 Z M296 109 C223 109 171 163 171 242 C171 326 227 379 297 379 C368 379 420 320 420 242 C420 162 364 109 296 109 L296 109 Z " />
<glyph glyph-name="uni1EA8" unicode="&#x1ea8;" horiz-adv-x="698" d="M569 906 C584 906 593 900 593 888 C593 854 515 843 515 812 C515 801 523 791 534 782 L584 783 L591 808 C643 819 676 847 676 888 C676 934 641 967 579 967 C530 967 482 946 456 920 L501 876 C518 893 544 906 569 906 L569 906 Z M348 841 L350 841 L401 766 L522 766 L405 916 L289 916 L178 766 L298 766 L348 841 Z M535 0 L682 0 L417 710 L282 710 L19 0 L166 0 L214 142 L487 142 L535 0 Z M255 262 L349 541 L351 541 L446 262 L255 262 Z " />
<glyph glyph-name="uni1EA9" unicode="&#x1ea9;" horiz-adv-x="607" d="M491 807 C443 807 394 785 368 759 L414 716 C430 732 457 746 481 746 C497 746 506 739 506 727 C506 693 427 682 427 652 C427 640 436 631 446 621 L496 623 L504 647 C555 659 589 687 589 728 C589 773 553 807 491 807 L491 807 Z M300 629 L302 629 L353 554 L474 554 L357 704 L241 704 L130 554 L250 554 L300 629 Z M415 433 L412 433 C377 475 327 496 269 496 C138 496 39 391 39 243 C39 92 137 -8 272 -8 C335 -8 385 16 418 59 L421 59 L421 0 L545 0 L545 488 L415 488 L415 433 Z M296 109 C223 109 171 163 171 242 C171 326 227 379 297 379 C368 379 420 320 420 242 C420 162 364 109 296 109 L296 109 Z " />
<glyph glyph-name="uni1EAA" unicode="&#x1eaa;" horiz-adv-x="698" d="M289 908 C305 908 322 900 340 892 C361 881 385 871 413 871 C460 871 497 903 515 954 L454 970 C442 948 424 934 404 934 C387 934 374 940 359 947 C338 957 314 971 281 971 C237 971 202 939 184 894 L246 872 C258 894 275 908 289 908 L289 908 Z M346 798 L350 798 L410 737 L526 737 L400 854 L292 854 L172 737 L287 737 L346 798 Z M535 0 L682 0 L417 710 L282 710 L19 0 L166 0 L214 142 L487 142 L535 0 Z M255 262 L349 541 L351 541 L446 262 L255 262 Z " />
<glyph glyph-name="uni1EAB" unicode="&#x1eab;" horiz-adv-x="607" d="M249 771 C268 771 278 761 297 750 C321 735 348 720 385 720 C440 720 482 771 502 845 L425 871 C412 841 392 822 369 822 C348 822 332 833 314 844 C293 856 275 871 233 871 C184 871 144 822 124 755 L202 721 C215 752 232 771 249 771 L249 771 Z M241 704 L130 554 L250 554 L300 629 L302 629 L353 554 L474 554 L357 704 L241 704 Z M415 488 L415 433 L412 433 C377 475 327 496 269 496 C138 496 39 391 39 243 C39 92 137 -8 272 -8 C335 -8 385 16 418 59 L421 59 L421 0 L545 0 L545 488 L415 488 Z M296 109 C223 109 171 163 171 242 C171 326 227 379 297 379 C368 379 420 320 420 242 C420 162 364 109 296 109 L296 109 Z " />
<glyph glyph-name="uni1EAC" unicode="&#x1eac;" horiz-adv-x="698" d="M348 857 L350 857 L401 782 L522 782 L405 932 L289 932 L178 782 L298 782 L348 857 Z M682 0 L417 710 L282 710 L19 0 L166 0 L214 142 L487 142 L535 0 L682 0 Z M255 262 L349 541 L351 541 L446 262 L255 262 Z M350 -90 C305 -90 268 -126 268 -170 C268 -214 305 -250 350 -250 C394 -250 431 -214 431 -170 C431 -126 394 -90 350 -90 L350 -90 Z " />
<glyph glyph-name="uni1EAD" unicode="&#x1ead;" horiz-adv-x="607" d="M300 629 L302 629 L353 554 L474 554 L357 704 L241 704 L130 554 L250 554 L300 629 Z M415 488 L415 433 L412 433 C377 475 327 496 269 496 C138 496 39 391 39 243 C39 92 137 -8 272 -8 C335 -8 385 16 418 59 L421 59 L421 0 L545 0 L545 488 L415 488 Z M296 109 C223 109 171 163 171 242 C171 326 227 379 297 379 C368 379 420 320 420 242 C420 162 364 109 296 109 L296 109 Z M294 -90 C249 -90 212 -126 212 -170 C212 -214 249 -250 294 -250 C338 -250 375 -214 375 -170 C375 -126 338 -90 294 -90 L294 -90 Z " />
<glyph glyph-name="uni1EAE" unicode="&#x1eae;" horiz-adv-x="698" d="M538 950 L399 949 L298 846 L392 846 L538 950 Z M350 738 C437 738 499 780 521 857 L436 857 C424 823 392 805 350 805 C308 805 276 823 264 857 L179 857 C202 780 263 738 350 738 L350 738 Z M535 0 L682 0 L417 710 L282 710 L19 0 L166 0 L214 142 L487 142 L535 0 Z M255 262 L349 541 L351 541 L446 262 L255 262 Z " />
<glyph glyph-name="uni1EAF" unicode="&#x1eaf;" horiz-adv-x="607" d="M465 867 L328 866 L215 719 L341 719 L465 867 Z M297 551 C393 551 454 615 461 701 L361 701 C359 662 333 638 297 638 C258 638 235 666 233 701 L134 701 C142 604 214 551 297 551 L297 551 Z M415 488 L415 433 L412 433 C377 475 327 496 269 496 C138 496 39 391 39 243 C39 92 137 -8 272 -8 C335 -8 385 16 418 59 L421 59 L421 0 L545 0 L545 488 L415 488 Z M296 109 C223 109 171 163 171 242 C171 326 227 379 297 379 C368 379 420 320 420 242 C420 162 364 109 296 109 L296 109 Z " />
<glyph glyph-name="uni1EB0" unicode="&#x1eb0;" horiz-adv-x="698" d="M402 846 L301 949 L162 950 L308 846 L402 846 Z M264 857 L180 857 C202 780 263 738 350 738 C437 738 499 780 521 857 L436 857 C424 823 392 805 350 805 C308 805 277 823 264 857 L264 857 Z M535 0 L682 0 L417 710 L282 710 L19 0 L166 0 L214 142 L487 142 L535 0 Z M255 262 L349 541 L351 541 L446 262 L255 262 Z " />
<glyph glyph-name="uni1EB1" unicode="&#x1eb1;" horiz-adv-x="607" d="M353 719 L240 866 L103 867 L226 719 L353 719 Z M301 638 C262 638 239 666 237 701 L138 701 C146 604 218 551 301 551 C397 551 458 615 465 701 L365 701 C363 662 337 638 301 638 L301 638 Z M415 488 L415 433 L412 433 C377 475 327 496 269 496 C138 496 39 391 39 243 C39 92 137 -8 272 -8 C335 -8 385 16 418 59 L421 59 L421 0 L545 0 L545 488 L415 488 Z M296 109 C223 109 171 163 171 242 C171 326 227 379 297 379 C368 379 420 320 420 242 C420 162 364 109 296 109 L296 109 Z " />
<glyph glyph-name="uni1EB2" unicode="&#x1eb2;" horiz-adv-x="698" d="M347 913 C361 913 371 910 371 897 C371 873 308 863 308 837 C308 825 317 819 333 819 L360 819 L367 832 C412 842 441 867 441 900 C441 939 409 968 355 968 C312 968 269 949 246 926 L286 887 C301 901 325 913 347 913 L347 913 Z M350 738 C437 738 498 780 521 857 L436 857 C423 822 391 805 350 805 C308 805 276 823 264 857 L179 857 C201 780 263 738 350 738 L350 738 Z M535 0 L682 0 L417 710 L282 710 L19 0 L166 0 L214 142 L487 142 L535 0 Z M255 262 L349 541 L351 541 L446 262 L255 262 Z " />
<glyph glyph-name="uni1EB3" unicode="&#x1eb3;" horiz-adv-x="607" d="M302 828 C318 828 331 824 331 809 C331 775 249 764 249 733 C249 722 257 713 267 703 L318 705 L325 729 C382 740 415 768 415 810 C415 855 379 889 312 889 C264 889 216 867 190 841 L235 798 C252 814 278 828 302 828 L302 828 Z M302 551 C398 551 459 615 466 701 L366 701 C364 662 338 638 302 638 C263 638 240 666 238 701 L139 701 C147 604 219 551 302 551 L302 551 Z M415 488 L415 433 L412 433 C377 475 327 496 269 496 C138 496 39 391 39 243 C39 92 137 -8 272 -8 C335 -8 385 16 418 59 L421 59 L421 0 L545 0 L545 488 L415 488 Z M296 109 C223 109 171 163 171 242 C171 326 227 379 297 379 C368 379 420 320 420 242 C420 162 364 109 296 109 L296 109 Z " />
<glyph glyph-name="uni1EB4" unicode="&#x1eb4;" horiz-adv-x="698" d="M290 908 C306 908 323 900 341 892 C362 881 386 871 414 871 C461 871 498 903 516 954 L455 970 C443 948 425 934 405 934 C388 934 375 940 360 947 C339 957 315 971 282 971 C238 971 203 939 185 894 L247 872 C259 894 276 908 290 908 L290 908 Z M350 738 C438 738 499 780 521 857 L437 857 C424 823 393 805 350 805 C308 805 277 823 264 857 L180 857 C202 780 264 738 350 738 L350 738 Z M535 0 L682 0 L417 710 L282 710 L19 0 L166 0 L214 142 L487 142 L535 0 Z M255 262 L349 541 L351 541 L446 262 L255 262 Z " />
<glyph glyph-name="uni1EB5" unicode="&#x1eb5;" horiz-adv-x="607" d="M249 771 C268 771 278 761 297 750 C321 735 348 720 385 720 C440 720 482 771 502 845 L425 871 C412 841 392 822 369 822 C348 822 332 833 314 844 C293 856 275 871 233 871 C184 871 144 822 124 755 L202 721 C215 752 232 771 249 771 L249 771 Z M302 638 C263 638 240 666 238 701 L139 701 C147 604 219 551 302 551 C398 551 459 615 466 701 L366 701 C364 662 338 638 302 638 L302 638 Z M415 488 L415 433 L412 433 C377 475 327 496 269 496 C138 496 39 391 39 243 C39 92 137 -8 272 -8 C335 -8 385 16 418 59 L421 59 L421 0 L545 0 L545 488 L415 488 Z M296 109 C223 109 171 163 171 242 C171 326 227 379 297 379 C368 379 420 320 420 242 C420 162 364 109 296 109 L296 109 Z " />
<glyph glyph-name="uni1EB6" unicode="&#x1eb6;" horiz-adv-x="698" d="M350 779 C446 779 507 843 514 929 L414 929 C412 890 386 866 350 866 C311 866 288 894 286 929 L187 929 C195 832 267 779 350 779 L350 779 Z M682 0 L417 710 L282 710 L19 0 L166 0 L214 142 L487 142 L535 0 L682 0 Z M255 262 L349 541 L351 541 L446 262 L255 262 Z M350 -90 C305 -90 268 -126 268 -170 C268 -214 305 -250 350 -250 C394 -250 431 -214 431 -170 C431 -126 394 -90 350 -90 L350 -90 Z " />
<glyph glyph-name="uni1EB7" unicode="&#x1eb7;" horiz-adv-x="607" d="M302 551 C398 551 459 615 466 701 L366 701 C364 662 338 638 302 638 C263 638 240 666 238 701 L139 701 C147 604 219 551 302 551 L302 551 Z M415 488 L415 433 L412 433 C377 475 327 496 269 496 C138 496 39 391 39 243 C39 92 137 -8 272 -8 C335 -8 385 16 418 59 L421 59 L421 0 L545 0 L545 488 L415 488 Z M296 109 C223 109 171 163 171 242 C171 326 227 379 297 379 C368 379 420 320 420 242 C420 162 364 109 296 109 L296 109 Z M294 -90 C249 -90 212 -126 212 -170 C212 -214 249 -250 294 -250 C338 -250 375 -214 375 -170 C375 -126 338 -90 294 -90 L294 -90 Z " />
<glyph glyph-name="uni1EB8" unicode="&#x1eb8;" horiz-adv-x="600" d="M78 0 L553 0 L553 125 L216 125 L216 290 L469 290 L469 414 L216 414 L216 584 L532 584 L532 710 L78 710 L78 0 Z M317 -90 C272 -90 235 -126 235 -170 C235 -214 272 -250 317 -250 C361 -250 398 -214 398 -170 C398 -126 361 -90 317 -90 L317 -90 Z " />
<glyph glyph-name="uni1EB9" unicode="&#x1eb9;" horiz-adv-x="560" d="M521 249 C521 392 425 496 282 496 C143 496 40 393 40 245 C40 92 148 -8 291 -8 C389 -8 460 31 502 84 L417 163 C390 130 352 107 300 108 C237 108 191 144 175 202 L518 202 C521 210 521 233 521 249 L521 249 Z M286 381 C343 381 378 347 391 296 L176 296 C191 352 233 381 286 381 L286 381 Z M292 -90 C247 -90 210 -126 210 -170 C210 -214 247 -250 292 -250 C336 -250 373 -214 373 -170 C373 -126 336 -90 292 -90 L292 -90 Z " />
<glyph glyph-name="uni1EBA" unicode="&#x1eba;" horiz-adv-x="600" d="M276 762 L327 764 L334 788 C391 799 424 827 424 869 C424 914 388 948 321 948 C273 948 225 926 199 900 L244 857 C261 873 287 887 311 887 C327 887 340 883 340 868 C340 834 258 823 258 792 C258 781 266 772 276 762 L276 762 Z M78 0 L553 0 L553 125 L216 125 L216 290 L469 290 L469 414 L216 414 L216 584 L532 584 L532 710 L78 710 L78 0 Z " />
<glyph glyph-name="uni1EBB" unicode="&#x1ebb;" horiz-adv-x="560" d="M289 660 C305 660 318 656 318 641 C318 607 236 596 236 565 C236 554 244 545 254 535 L305 537 L312 561 C369 572 402 600 402 642 C402 687 366 721 299 721 C251 721 203 699 177 673 L222 630 C239 646 265 660 289 660 L289 660 Z M521 249 C521 392 425 496 282 496 C143 496 40 393 40 245 C40 92 148 -8 291 -8 C389 -8 460 31 502 84 L417 163 C390 130 352 107 300 108 C237 108 191 144 175 202 L518 202 C521 210 521 233 521 249 L521 249 Z M286 381 C343 381 378 347 391 296 L176 296 C191 352 233 381 286 381 L286 381 Z " />
<glyph glyph-name="uni1EBC" unicode="&#x1ebc;" horiz-adv-x="600" d="M394 779 C450 779 491 830 511 904 L435 930 C422 900 402 881 378 881 C358 881 342 892 324 903 C302 915 279 930 238 930 C179 930 138 881 118 814 L196 780 C209 811 227 830 252 830 C271 830 288 820 307 809 C330 794 358 779 394 779 L394 779 Z M78 0 L553 0 L553 125 L216 125 L216 290 L469 290 L469 414 L216 414 L216 584 L532 584 L532 710 L78 710 L78 0 Z " />
<glyph glyph-name="uni1EBD" unicode="&#x1ebd;" horiz-adv-x="560" d="M230 603 C249 603 266 593 285 582 C308 567 336 552 372 552 C428 552 469 603 489 677 L413 703 C400 673 380 654 356 654 C336 654 320 665 302 676 C280 688 257 703 216 703 C157 703 116 654 96 587 L174 553 C187 584 205 603 230 603 L230 603 Z M521 249 C521 392 425 496 282 496 C143 496 40 393 40 245 C40 92 148 -8 291 -8 C389 -8 460 31 502 84 L417 163 C390 130 352 107 300 108 C237 108 191 144 175 202 L518 202 C521 210 521 233 521 249 L521 249 Z M286 381 C343 381 378 347 391 296 L176 296 C191 352 233 381 286 381 L286 381 Z " />
<glyph glyph-name="uni1EBE" unicode="&#x1ebe;" horiz-adv-x="600" d="M571 957 L458 811 L556 811 L705 958 L571 957 Z M309 840 L311 840 L362 765 L483 765 L366 915 L250 915 L139 765 L259 765 L309 840 Z M216 290 L469 290 L469 414 L216 414 L216 584 L532 584 L532 710 L78 710 L78 0 L553 0 L553 125 L216 125 L216 290 Z " />
<glyph glyph-name="uni1EBF" unicode="&#x1ebf;" horiz-adv-x="560" d="M654 795 L520 795 L407 648 L505 648 L654 795 Z M287 629 L289 629 L340 554 L461 554 L344 704 L228 704 L117 554 L237 554 L287 629 Z M282 496 C143 496 40 393 40 245 C40 92 148 -8 291 -8 C389 -8 460 31 502 84 L417 163 C390 130 352 107 300 108 C237 108 191 144 175 202 L518 202 C521 210 521 233 521 249 C521 392 425 496 282 496 L282 496 Z M286 381 C343 381 378 347 391 296 L176 296 C191 352 233 381 286 381 L286 381 Z " />
<glyph glyph-name="uni1EC0" unicode="&#x1ec0;" horiz-adv-x="600" d="M607 811 L522 958 L390 958 L511 811 L607 811 Z M310 840 L312 840 L363 765 L484 765 L367 915 L251 915 L140 765 L260 765 L310 840 Z M216 290 L469 290 L469 414 L216 414 L216 584 L532 584 L532 710 L78 710 L78 0 L553 0 L553 125 L216 125 L216 290 Z " />
<glyph glyph-name="uni1EC1" unicode="&#x1ec1;" horiz-adv-x="560" d="M543 649 L458 795 L326 796 L447 649 L543 649 Z M287 629 L289 629 L340 554 L461 554 L344 704 L228 704 L117 554 L237 554 L287 629 Z M282 496 C143 496 40 393 40 245 C40 92 148 -8 291 -8 C389 -8 460 31 502 84 L417 163 C390 130 352 107 300 108 C237 108 191 144 175 202 L518 202 C521 210 521 233 521 249 C521 392 425 496 282 496 L282 496 Z M286 381 C343 381 378 347 391 296 L176 296 C191 352 233 381 286 381 L286 381 Z " />
<glyph glyph-name="uni1EC2" unicode="&#x1ec2;" horiz-adv-x="600" d="M540 966 C491 966 443 945 417 919 L462 875 C479 892 505 905 530 905 C545 905 554 899 554 887 C554 853 476 842 476 811 C476 800 484 790 495 781 L545 782 L552 807 C604 818 637 846 637 887 C637 933 602 966 540 966 L540 966 Z M309 840 L311 840 L362 765 L483 765 L366 915 L250 915 L139 765 L259 765 L309 840 Z M216 290 L469 290 L469 414 L216 414 L216 584 L532 584 L532 710 L78 710 L78 0 L553 0 L553 125 L216 125 L216 290 Z " />
<glyph glyph-name="uni1EC3" unicode="&#x1ec3;" horiz-adv-x="560" d="M478 807 C430 807 381 785 355 759 L401 716 C417 732 444 746 468 746 C484 746 493 739 493 727 C493 693 414 682 414 652 C414 640 423 631 433 621 L483 623 L491 647 C542 659 576 687 576 728 C576 773 540 807 478 807 L478 807 Z M287 629 L289 629 L340 554 L461 554 L344 704 L228 704 L117 554 L237 554 L287 629 Z M282 496 C143 496 40 393 40 245 C40 92 148 -8 291 -8 C389 -8 460 31 502 84 L417 163 C390 130 352 107 300 108 C237 108 191 144 175 202 L518 202 C521 210 521 233 521 249 C521 392 425 496 282 496 L282 496 Z M286 381 C343 381 378 347 391 296 L176 296 C191 352 233 381 286 381 L286 381 Z " />
<glyph glyph-name="uni1EC4" unicode="&#x1ec4;" horiz-adv-x="600" d="M250 907 C266 907 283 899 301 891 C322 880 346 870 374 870 C421 870 458 902 476 953 L415 969 C403 947 385 933 365 933 C348 933 335 939 320 946 C299 956 275 970 242 970 C198 970 163 938 145 893 L207 871 C219 893 236 907 250 907 L250 907 Z M307 797 L311 797 L371 736 L487 736 L361 853 L253 853 L133 736 L248 736 L307 797 Z M216 125 L216 290 L469 290 L469 414 L216 414 L216 584 L532 584 L532 710 L78 710 L78 0 L553 0 L553 125 L216 125 Z " />
<glyph glyph-name="uni1EC5" unicode="&#x1ec5;" horiz-adv-x="560" d="M236 771 C255 771 265 761 284 750 C308 735 335 720 372 720 C427 720 469 771 489 845 L412 871 C399 841 379 822 356 822 C335 822 319 833 301 844 C280 856 262 871 220 871 C171 871 131 822 111 755 L189 721 C202 752 219 771 236 771 L236 771 Z M228 704 L117 554 L237 554 L287 629 L289 629 L340 554 L461 554 L344 704 L228 704 Z M521 249 C521 392 425 496 282 496 C143 496 40 393 40 245 C40 92 148 -8 291 -8 C389 -8 460 31 502 84 L417 163 C390 130 352 107 300 108 C237 108 191 144 175 202 L518 202 C521 210 521 233 521 249 L521 249 Z M286 381 C343 381 378 347 391 296 L176 296 C191 352 233 381 286 381 L286 381 Z " />
<glyph glyph-name="uni1EC6" unicode="&#x1ec6;" horiz-adv-x="600" d="M309 856 L311 856 L362 781 L483 781 L366 931 L250 931 L139 781 L259 781 L309 856 Z M216 125 L216 290 L469 290 L469 414 L216 414 L216 584 L532 584 L532 710 L78 710 L78 0 L553 0 L553 125 L216 125 Z M317 -90 C272 -90 235 -126 235 -170 C235 -214 272 -250 317 -250 C361 -250 398 -214 398 -170 C398 -126 361 -90 317 -90 L317 -90 Z " />
<glyph glyph-name="uni1EC7" unicode="&#x1ec7;" horiz-adv-x="560" d="M287 629 L289 629 L340 554 L461 554 L344 704 L228 704 L117 554 L237 554 L287 629 Z M521 249 C521 392 425 496 282 496 C143 496 40 393 40 245 C40 92 148 -8 291 -8 C389 -8 460 31 502 84 L417 163 C390 130 352 107 300 108 C237 108 191 144 175 202 L518 202 C521 210 521 233 521 249 L521 249 Z M286 381 C343 381 378 347 391 296 L176 296 C191 352 233 381 286 381 L286 381 Z M292 -90 C247 -90 210 -126 210 -170 C210 -214 247 -250 292 -250 C336 -250 373 -214 373 -170 C373 -126 336 -90 292 -90 L292 -90 Z " />
<glyph glyph-name="uni1EC8" unicode="&#x1ec8;" horiz-adv-x="307" d="M117 762 L168 764 L175 788 C232 799 265 827 265 869 C265 914 229 948 162 948 C114 948 66 926 40 900 L85 857 C102 873 128 887 152 887 C168 887 181 883 181 868 C181 834 99 823 99 792 C99 781 107 772 117 762 L117 762 Z M83 0 L224 0 L224 710 L83 710 L83 0 Z " />
<glyph glyph-name="uni1EC9" unicode="&#x1ec9;" horiz-adv-x="275" d="M103 535 L154 537 L161 561 C218 572 251 600 251 642 C251 687 215 721 148 721 C100 721 52 699 26 673 L71 630 C88 646 114 660 138 660 C154 660 167 656 167 641 C167 607 85 596 85 565 C85 554 93 545 103 535 L103 535 Z M72 0 L203 0 L203 488 L72 488 L72 0 Z " />
<glyph glyph-name="uni1ECA" unicode="&#x1eca;" horiz-adv-x="307" d="M83 0 L224 0 L224 710 L83 710 L83 0 Z M154 -90 C109 -90 72 -126 72 -170 C72 -214 109 -250 154 -250 C198 -250 235 -214 235 -170 C235 -126 198 -90 154 -90 L154 -90 Z " />
<glyph glyph-name="uni1ECB" unicode="&#x1ecb;" horiz-adv-x="275" d="M138 557 C183 557 220 593 220 637 C220 681 183 717 138 717 C94 717 57 681 57 637 C57 593 94 557 138 557 L138 557 Z M72 0 L203 0 L203 488 L72 488 L72 0 Z M138 -90 C93 -90 56 -126 56 -170 C56 -214 93 -250 138 -250 C182 -250 219 -214 219 -170 C219 -126 182 -90 138 -90 L138 -90 Z " />
<glyph glyph-name="uni1ECC" unicode="&#x1ecc;" horiz-adv-x="821" d="M411 -8 C620 -8 772 138 772 355 C772 572 620 719 411 719 C196 719 49 566 49 355 C49 145 196 -8 411 -8 L411 -8 Z M412 123 C284 123 195 226 195 355 C195 484 284 587 412 587 C534 587 626 489 626 355 C626 222 534 123 412 123 L412 123 Z M412 -90 C367 -90 330 -126 330 -170 C330 -214 367 -250 412 -250 C456 -250 493 -214 493 -170 C493 -126 456 -90 412 -90 L412 -90 Z " />
<glyph glyph-name="uni1ECD" unicode="&#x1ecd;" horiz-adv-x="598" d="M299 -8 C451 -8 559 94 559 244 C559 394 451 496 299 496 C144 496 40 390 40 244 C40 98 144 -8 299 -8 L299 -8 Z M299 109 C225 109 172 168 172 244 C172 321 223 379 299 379 C372 379 426 324 426 244 C426 165 370 109 299 109 L299 109 Z M300 -90 C255 -90 218 -126 218 -170 C218 -214 255 -250 300 -250 C344 -250 381 -214 381 -170 C381 -126 344 -90 300 -90 L300 -90 Z " />
<glyph glyph-name="uni1ECE" unicode="&#x1ece;" horiz-adv-x="821" d="M377 763 L428 765 L435 789 C492 800 525 828 525 870 C525 915 489 949 422 949 C374 949 326 927 300 901 L345 858 C362 874 388 888 412 888 C428 888 441 884 441 869 C441 835 359 824 359 793 C359 782 367 773 377 763 L377 763 Z M411 -8 C620 -8 772 138 772 355 C772 572 620 719 411 719 C196 719 49 566 49 355 C49 145 196 -8 411 -8 L411 -8 Z M412 123 C284 123 195 226 195 355 C195 484 284 587 412 587 C534 587 626 489 626 355 C626 222 534 123 412 123 L412 123 Z " />
<glyph glyph-name="uni1ECF" unicode="&#x1ecf;" horiz-adv-x="598" d="M265 535 L316 537 L323 561 C380 572 413 600 413 642 C413 687 377 721 310 721 C262 721 214 699 188 673 L233 630 C250 646 276 660 300 660 C316 660 329 656 329 641 C329 607 247 596 247 565 C247 554 255 545 265 535 L265 535 Z M299 -8 C451 -8 559 94 559 244 C559 394 451 496 299 496 C144 496 40 390 40 244 C40 98 144 -8 299 -8 L299 -8 Z M299 109 C225 109 172 168 172 244 C172 321 223 379 299 379 C372 379 426 324 426 244 C426 165 370 109 299 109 L299 109 Z " />
<glyph glyph-name="uni1ED0" unicode="&#x1ed0;" horiz-adv-x="821" d="M806 959 L672 958 L559 812 L657 812 L806 959 Z M410 841 L412 841 L463 766 L584 766 L467 916 L351 916 L240 766 L360 766 L410 841 Z M411 719 C196 719 49 566 49 355 C49 145 196 -8 411 -8 C620 -8 772 138 772 355 C772 572 620 719 411 719 L411 719 Z M412 123 C284 123 195 226 195 355 C195 484 284 587 412 587 C534 587 626 489 626 355 C626 222 534 123 412 123 L412 123 Z " />
<glyph glyph-name="uni1ED1" unicode="&#x1ed1;" horiz-adv-x="598" d="M665 795 L531 795 L418 648 L516 648 L665 795 Z M298 629 L300 629 L351 554 L472 554 L355 704 L239 704 L128 554 L248 554 L298 629 Z M299 496 C144 496 40 390 40 244 C40 98 144 -8 299 -8 C451 -8 559 94 559 244 C559 394 451 496 299 496 L299 496 Z M299 109 C225 109 172 168 172 244 C172 321 223 379 299 379 C372 379 426 324 426 244 C426 165 370 109 299 109 L299 109 Z " />
<glyph glyph-name="uni1ED2" unicode="&#x1ed2;" horiz-adv-x="821" d="M708 812 L623 959 L491 959 L612 812 L708 812 Z M411 841 L413 841 L464 766 L585 766 L468 916 L352 916 L241 766 L361 766 L411 841 Z M411 719 C196 719 49 566 49 355 C49 145 196 -8 411 -8 C620 -8 772 138 772 355 C772 572 620 719 411 719 L411 719 Z M412 123 C284 123 195 226 195 355 C195 484 284 587 412 587 C534 587 626 489 626 355 C626 222 534 123 412 123 L412 123 Z " />
<glyph glyph-name="uni1ED3" unicode="&#x1ed3;" horiz-adv-x="598" d="M554 649 L469 795 L337 796 L458 649 L554 649 Z M298 629 L300 629 L351 554 L472 554 L355 704 L239 704 L128 554 L248 554 L298 629 Z M299 496 C144 496 40 390 40 244 C40 98 144 -8 299 -8 C451 -8 559 94 559 244 C559 394 451 496 299 496 L299 496 Z M299 109 C225 109 172 168 172 244 C172 321 223 379 299 379 C372 379 426 324 426 244 C426 165 370 109 299 109 L299 109 Z " />
<glyph glyph-name="uni1ED4" unicode="&#x1ed4;" horiz-adv-x="821" d="M631 906 C646 906 655 900 655 888 C655 854 577 843 577 812 C577 801 585 791 596 782 L646 783 L653 808 C705 819 738 847 738 888 C738 934 703 967 641 967 C592 967 544 946 518 920 L563 876 C580 893 606 906 631 906 L631 906 Z M410 841 L412 841 L463 766 L584 766 L467 916 L351 916 L240 766 L360 766 L410 841 Z M411 719 C196 719 49 566 49 355 C49 145 196 -8 411 -8 C620 -8 772 138 772 355 C772 572 620 719 411 719 L411 719 Z M412 123 C284 123 195 226 195 355 C195 484 284 587 412 587 C534 587 626 489 626 355 C626 222 534 123 412 123 L412 123 Z " />
<glyph glyph-name="uni1ED5" unicode="&#x1ed5;" horiz-adv-x="598" d="M489 807 C441 807 392 785 366 759 L412 716 C428 732 455 746 479 746 C495 746 504 739 504 727 C504 693 425 682 425 652 C425 640 434 631 444 621 L494 623 L502 647 C553 659 587 687 587 728 C587 773 551 807 489 807 L489 807 Z M298 629 L300 629 L351 554 L472 554 L355 704 L239 704 L128 554 L248 554 L298 629 Z M299 496 C144 496 40 390 40 244 C40 98 144 -8 299 -8 C451 -8 559 94 559 244 C559 394 451 496 299 496 L299 496 Z M299 109 C225 109 172 168 172 244 C172 321 223 379 299 379 C372 379 426 324 426 244 C426 165 370 109 299 109 L299 109 Z " />
<glyph glyph-name="uni1ED6" unicode="&#x1ed6;" horiz-adv-x="821" d="M351 908 C367 908 384 900 402 892 C423 881 447 871 475 871 C522 871 559 903 577 954 L516 970 C504 948 486 934 466 934 C449 934 436 940 421 947 C400 957 376 971 343 971 C299 971 264 939 246 894 L308 872 C320 894 337 908 351 908 L351 908 Z M408 798 L412 798 L472 737 L588 737 L462 854 L354 854 L234 737 L349 737 L408 798 Z M411 719 C196 719 49 566 49 355 C49 145 196 -8 411 -8 C620 -8 772 138 772 355 C772 572 620 719 411 719 L411 719 Z M412 123 C284 123 195 226 195 355 C195 484 284 587 412 587 C534 587 626 489 626 355 C626 222 534 123 412 123 L412 123 Z " />
<glyph glyph-name="uni1ED7" unicode="&#x1ed7;" horiz-adv-x="598" d="M247 771 C266 771 276 761 295 750 C319 735 346 720 383 720 C438 720 480 771 500 845 L423 871 C410 841 390 822 367 822 C346 822 330 833 312 844 C291 856 273 871 231 871 C182 871 142 822 122 755 L200 721 C213 752 230 771 247 771 L247 771 Z M239 704 L128 554 L248 554 L298 629 L300 629 L351 554 L472 554 L355 704 L239 704 Z M299 496 C144 496 40 390 40 244 C40 98 144 -8 299 -8 C451 -8 559 94 559 244 C559 394 451 496 299 496 L299 496 Z M299 109 C225 109 172 168 172 244 C172 321 223 379 299 379 C372 379 426 324 426 244 C426 165 370 109 299 109 L299 109 Z " />
<glyph glyph-name="uni1ED8" unicode="&#x1ed8;" horiz-adv-x="821" d="M410 857 L412 857 L463 782 L584 782 L467 932 L351 932 L240 782 L360 782 L410 857 Z M411 719 C196 719 49 566 49 355 C49 145 196 -8 411 -8 C620 -8 772 138 772 355 C772 572 620 719 411 719 L411 719 Z M412 123 C284 123 195 226 195 355 C195 484 284 587 412 587 C534 587 626 489 626 355 C626 222 534 123 412 123 L412 123 Z M412 -90 C367 -90 330 -126 330 -170 C330 -214 367 -250 412 -250 C456 -250 493 -214 493 -170 C493 -126 456 -90 412 -90 L412 -90 Z " />
<glyph glyph-name="uni1ED9" unicode="&#x1ed9;" horiz-adv-x="598" d="M298 629 L300 629 L351 554 L472 554 L355 704 L239 704 L128 554 L248 554 L298 629 Z M299 496 C144 496 40 390 40 244 C40 98 144 -8 299 -8 C451 -8 559 94 559 244 C559 394 451 496 299 496 L299 496 Z M299 109 C225 109 172 168 172 244 C172 321 223 379 299 379 C372 379 426 324 426 244 C426 165 370 109 299 109 L299 109 Z M300 -90 C255 -90 218 -126 218 -170 C218 -214 255 -250 300 -250 C344 -250 381 -214 381 -170 C381 -126 344 -90 300 -90 L300 -90 Z " />
<glyph glyph-name="uni1EDA" unicode="&#x1eda;" horiz-adv-x="862" d="M603 932 L466 931 L353 784 L479 784 L603 932 Z M727 774 L727 704 C727 653 726 614 691 595 C626 673 528 719 411 719 C196 719 49 566 49 355 C49 145 196 -8 411 -8 C620 -8 772 138 772 355 C772 418 759 474 736 524 C809 548 849 609 849 701 L849 774 L727 774 Z M412 123 C284 123 195 226 195 355 C195 484 284 587 412 587 C534 587 626 489 626 355 C626 222 534 123 412 123 L412 123 Z " />
<glyph glyph-name="uni1EDB" unicode="&#x1edb;" horiz-adv-x="683" d="M485 704 L348 703 L235 556 L361 556 L485 704 Z M551 565 L551 495 C551 446 550 407 518 388 C473 455 395 496 299 496 C144 496 40 390 40 244 C40 98 144 -8 299 -8 C451 -8 559 94 559 244 C559 268 556 290 551 312 L552 313 C630 334 673 396 673 492 L673 565 L551 565 Z M299 109 C225 109 172 168 172 244 C172 321 223 379 299 379 C372 379 426 324 426 244 C426 165 370 109 299 109 L299 109 Z " />
<glyph glyph-name="uni1EDC" unicode="&#x1edc;" horiz-adv-x="862" d="M482 784 L369 931 L232 932 L355 784 L482 784 Z M727 774 L727 704 C727 653 726 614 691 595 C626 673 528 719 411 719 C196 719 49 566 49 355 C49 145 196 -8 411 -8 C620 -8 772 138 772 355 C772 418 759 474 736 524 C809 548 849 609 849 701 L849 774 L727 774 Z M412 123 C284 123 195 226 195 355 C195 484 284 587 412 587 C534 587 626 489 626 355 C626 222 534 123 412 123 L412 123 Z " />
<glyph glyph-name="uni1EDD" unicode="&#x1edd;" horiz-adv-x="683" d="M378 556 L265 703 L128 704 L251 556 L378 556 Z M551 565 L551 495 C551 446 550 407 518 388 C473 455 395 496 299 496 C144 496 40 390 40 244 C40 98 144 -8 299 -8 C451 -8 559 94 559 244 C559 268 556 290 551 312 L552 313 C630 334 673 396 673 492 L673 565 L551 565 Z M299 109 C225 109 172 168 172 244 C172 321 223 379 299 379 C372 379 426 324 426 244 C426 165 370 109 299 109 L299 109 Z " />
<glyph glyph-name="uni1EDE" unicode="&#x1ede;" horiz-adv-x="862" d="M412 888 C428 888 441 884 441 869 C441 835 359 824 359 793 C359 782 367 773 377 763 L428 765 L435 789 C492 800 525 828 525 870 C525 915 489 949 422 949 C374 949 326 927 300 901 L345 858 C362 874 388 888 412 888 L412 888 Z M727 774 L727 704 C727 653 726 614 691 595 C626 673 528 719 411 719 C196 719 49 566 49 355 C49 145 196 -8 411 -8 C620 -8 772 138 772 355 C772 418 759 474 736 524 C809 548 849 609 849 701 L849 774 L727 774 Z M412 123 C284 123 195 226 195 355 C195 484 284 587 412 587 C534 587 626 489 626 355 C626 222 534 123 412 123 L412 123 Z " />
<glyph glyph-name="uni1EDF" unicode="&#x1edf;" horiz-adv-x="683" d="M300 660 C316 660 329 656 329 641 C329 607 247 596 247 565 C247 554 255 545 265 535 L316 537 L323 561 C380 572 413 600 413 642 C413 687 377 721 310 721 C262 721 214 699 188 673 L233 630 C250 646 276 660 300 660 L300 660 Z M551 565 L551 495 C551 446 550 407 518 388 C473 455 395 496 299 496 C144 496 40 390 40 244 C40 98 144 -8 299 -8 C451 -8 559 94 559 244 C559 268 556 290 551 312 L552 313 C630 334 673 396 673 492 L673 565 L551 565 Z M299 109 C225 109 172 168 172 244 C172 321 223 379 299 379 C372 379 426 324 426 244 C426 165 370 109 299 109 L299 109 Z " />
<glyph glyph-name="uni1EE0" unicode="&#x1ee0;" horiz-adv-x="862" d="M353 831 C372 831 389 821 408 810 C431 795 459 780 495 780 C551 780 592 831 612 905 L536 931 C523 901 503 882 479 882 C459 882 443 893 425 904 C403 916 380 931 339 931 C280 931 239 882 219 815 L297 781 C310 812 328 831 353 831 L353 831 Z M727 774 L727 704 C727 653 726 614 691 595 C626 673 528 719 411 719 C196 719 49 566 49 355 C49 145 196 -8 411 -8 C620 -8 772 138 772 355 C772 418 759 474 736 524 C809 548 849 609 849 701 L849 774 L727 774 Z M412 123 C284 123 195 226 195 355 C195 484 284 587 412 587 C534 587 626 489 626 355 C626 222 534 123 412 123 L412 123 Z " />
<glyph glyph-name="uni1EE1" unicode="&#x1ee1;" horiz-adv-x="683" d="M241 603 C260 603 277 593 296 582 C319 567 347 552 383 552 C439 552 480 603 500 677 L424 703 C411 673 391 654 367 654 C347 654 331 665 313 676 C291 688 268 703 227 703 C168 703 127 654 107 587 L185 553 C198 584 216 603 241 603 L241 603 Z M551 565 L551 495 C551 446 550 407 518 388 C473 455 395 496 299 496 C144 496 40 390 40 244 C40 98 144 -8 299 -8 C451 -8 559 94 559 244 C559 268 556 290 551 312 L552 313 C630 334 673 396 673 492 L673 565 L551 565 Z M299 109 C225 109 172 168 172 244 C172 321 223 379 299 379 C372 379 426 324 426 244 C426 165 370 109 299 109 L299 109 Z " />
<glyph glyph-name="uni1EE2" unicode="&#x1ee2;" horiz-adv-x="862" d="M727 774 L727 704 C727 653 726 614 691 595 C626 673 528 719 411 719 C196 719 49 566 49 355 C49 145 196 -8 411 -8 C620 -8 772 138 772 355 C772 418 759 474 736 524 C809 548 849 609 849 701 L849 774 L727 774 Z M412 123 C284 123 195 226 195 355 C195 484 284 587 412 587 C534 587 626 489 626 355 C626 222 534 123 412 123 L412 123 Z M412 -90 C367 -90 330 -126 330 -170 C330 -214 367 -250 412 -250 C456 -250 493 -214 493 -170 C493 -126 456 -90 412 -90 L412 -90 Z " />
<glyph glyph-name="uni1EE3" unicode="&#x1ee3;" horiz-adv-x="683" d="M551 565 L551 495 C551 446 550 407 518 388 C473 455 395 496 299 496 C144 496 40 390 40 244 C40 98 144 -8 299 -8 C451 -8 559 94 559 244 C559 268 556 290 551 312 L552 313 C630 334 673 396 673 492 L673 565 L551 565 Z M299 109 C225 109 172 168 172 244 C172 321 223 379 299 379 C372 379 426 324 426 244 C426 165 370 109 299 109 L299 109 Z M300 -90 C255 -90 218 -126 218 -170 C218 -214 255 -250 300 -250 C344 -250 381 -214 381 -170 C381 -126 344 -90 300 -90 L300 -90 Z " />
<glyph glyph-name="uni1EE4" unicode="&#x1ee4;" horiz-adv-x="713" d="M355 -8 C538 -8 644 109 644 294 L644 710 L503 710 L503 303 C503 190 441 124 355 124 C262 124 210 201 210 303 L210 710 L69 710 L69 294 C69 100 185 -8 355 -8 L355 -8 Z M356 -90 C311 -90 274 -126 274 -170 C274 -214 311 -250 356 -250 C400 -250 437 -214 437 -170 C437 -126 400 -90 356 -90 L356 -90 Z " />
<glyph glyph-name="uni1EE5" unicode="&#x1ee5;" horiz-adv-x="577" d="M384 488 L384 251 C384 157 333 109 276 109 C215 109 188 139 188 229 L188 488 L58 488 L58 194 C58 45 132 -8 237 -8 C292 -8 345 15 382 60 L384 60 L384 0 L515 0 L515 488 L384 488 Z M293 -90 C248 -90 211 -126 211 -170 C211 -214 248 -250 293 -250 C337 -250 374 -214 374 -170 C374 -126 337 -90 293 -90 L293 -90 Z " />
<glyph glyph-name="uni1EE6" unicode="&#x1ee6;" horiz-adv-x="713" d="M321 763 L372 765 L379 789 C436 800 469 828 469 870 C469 915 433 949 366 949 C318 949 270 927 244 901 L289 858 C306 874 332 888 356 888 C372 888 385 884 385 869 C385 835 303 824 303 793 C303 782 311 773 321 763 L321 763 Z M355 -8 C538 -8 644 109 644 294 L644 710 L503 710 L503 303 C503 190 441 124 355 124 C262 124 210 201 210 303 L210 710 L69 710 L69 294 C69 100 185 -8 355 -8 L355 -8 Z " />
<glyph glyph-name="uni1EE7" unicode="&#x1ee7;" horiz-adv-x="577" d="M288 660 C304 660 317 656 317 641 C317 607 235 596 235 565 C235 554 243 545 253 535 L304 537 L311 561 C368 572 401 600 401 642 C401 687 365 721 298 721 C250 721 202 699 176 673 L221 630 C238 646 264 660 288 660 L288 660 Z M384 488 L384 251 C384 157 333 109 276 109 C215 109 188 139 188 229 L188 488 L58 488 L58 194 C58 45 132 -8 237 -8 C292 -8 345 15 382 60 L384 60 L384 0 L515 0 L515 488 L384 488 Z " />
<glyph glyph-name="uni1EE8" unicode="&#x1ee8;" horiz-adv-x="816" d="M527 932 L390 931 L277 784 L403 784 L527 932 Z M707 774 L707 704 C707 642 705 598 644 586 L644 710 L503 710 L503 303 C503 190 441 124 355 124 C262 124 210 201 210 303 L210 710 L69 710 L69 294 C69 100 185 -8 355 -8 C538 -8 644 109 644 294 L644 514 C761 514 829 582 829 701 L829 774 L707 774 Z " />
<glyph glyph-name="uni1EE9" unicode="&#x1ee9;" horiz-adv-x="702" d="M471 704 L334 703 L221 556 L347 556 L471 704 Z M570 565 L570 495 C570 436 568 393 515 379 L515 488 L384 488 L384 251 C384 157 333 109 276 109 C215 109 188 139 188 229 L188 488 L58 488 L58 194 C58 45 132 -8 237 -8 C292 -8 345 15 382 60 L384 60 L384 0 L515 0 L515 305 C627 308 692 375 692 492 L692 565 L570 565 Z " />
<glyph glyph-name="uni1EEA" unicode="&#x1eea;" horiz-adv-x="816" d="M438 784 L325 931 L188 932 L311 784 L438 784 Z M707 774 L707 704 C707 642 705 598 644 586 L644 710 L503 710 L503 303 C503 190 441 124 355 124 C262 124 210 201 210 303 L210 710 L69 710 L69 294 C69 100 185 -8 355 -8 C538 -8 644 109 644 294 L644 514 C761 514 829 582 829 701 L829 774 L707 774 Z " />
<glyph glyph-name="uni1EEB" unicode="&#x1eeb;" horiz-adv-x="702" d="M373 556 L260 703 L123 704 L246 556 L373 556 Z M570 565 L570 495 C570 436 568 393 515 379 L515 488 L384 488 L384 251 C384 157 333 109 276 109 C215 109 188 139 188 229 L188 488 L58 488 L58 194 C58 45 132 -8 237 -8 C292 -8 345 15 382 60 L384 60 L384 0 L515 0 L515 305 C627 308 692 375 692 492 L692 565 L570 565 Z " />
<glyph glyph-name="uni1EEC" unicode="&#x1eec;" horiz-adv-x="816" d="M356 888 C372 888 385 884 385 869 C385 835 303 824 303 793 C303 782 311 773 321 763 L372 765 L379 789 C436 800 469 828 469 870 C469 915 433 949 366 949 C318 949 270 927 244 901 L289 858 C306 874 332 888 356 888 L356 888 Z M707 774 L707 704 C707 642 705 598 644 586 L644 710 L503 710 L503 303 C503 190 441 124 355 124 C262 124 210 201 210 303 L210 710 L69 710 L69 294 C69 100 185 -8 355 -8 C538 -8 644 109 644 294 L644 514 C761 514 829 582 829 701 L829 774 L707 774 Z " />
<glyph glyph-name="uni1EED" unicode="&#x1eed;" horiz-adv-x="702" d="M288 660 C304 660 317 656 317 641 C317 607 235 596 235 565 C235 554 243 545 253 535 L304 537 L311 561 C368 572 401 600 401 642 C401 687 365 721 298 721 C250 721 202 699 176 673 L221 630 C238 646 264 660 288 660 L288 660 Z M570 565 L570 495 C570 436 568 393 515 379 L515 488 L384 488 L384 251 C384 157 333 109 276 109 C215 109 188 139 188 229 L188 488 L58 488 L58 194 C58 45 132 -8 237 -8 C292 -8 345 15 382 60 L384 60 L384 0 L515 0 L515 305 C627 308 692 375 692 492 L692 565 L570 565 Z " />
<glyph glyph-name="uni1EEE" unicode="&#x1eee;" horiz-adv-x="816" d="M297 831 C316 831 333 821 352 810 C375 795 403 780 439 780 C495 780 536 831 556 905 L480 931 C467 901 447 882 423 882 C403 882 387 893 369 904 C347 916 324 931 283 931 C224 931 183 882 163 815 L241 781 C254 812 272 831 297 831 L297 831 Z M707 774 L707 704 C707 642 705 598 644 586 L644 710 L503 710 L503 303 C503 190 441 124 355 124 C262 124 210 201 210 303 L210 710 L69 710 L69 294 C69 100 185 -8 355 -8 C538 -8 644 109 644 294 L644 514 C761 514 829 582 829 701 L829 774 L707 774 Z " />
<glyph glyph-name="uni1EEF" unicode="&#x1eef;" horiz-adv-x="702" d="M229 603 C248 603 265 593 284 582 C307 567 335 552 371 552 C427 552 468 603 488 677 L412 703 C399 673 379 654 355 654 C335 654 319 665 301 676 C279 688 256 703 215 703 C156 703 115 654 95 587 L173 553 C186 584 204 603 229 603 L229 603 Z M570 565 L570 495 C570 436 568 393 515 379 L515 488 L384 488 L384 251 C384 157 333 109 276 109 C215 109 188 139 188 229 L188 488 L58 488 L58 194 C58 45 132 -8 237 -8 C292 -8 345 15 382 60 L384 60 L384 0 L515 0 L515 305 C627 308 692 375 692 492 L692 565 L570 565 Z " />
<glyph glyph-name="uni1EF0" unicode="&#x1ef0;" horiz-adv-x="816" d="M707 774 L707 704 C707 642 705 598 644 586 L644 710 L503 710 L503 303 C503 190 441 124 355 124 C262 124 210 201 210 303 L210 710 L69 710 L69 294 C69 100 185 -8 355 -8 C538 -8 644 109 644 294 L644 514 C761 514 829 582 829 701 L829 774 L707 774 Z M356 -90 C311 -90 274 -126 274 -170 C274 -214 311 -250 356 -250 C400 -250 437 -214 437 -170 C437 -126 400 -90 356 -90 L356 -90 Z " />
<glyph glyph-name="uni1EF1" unicode="&#x1ef1;" horiz-adv-x="702" d="M570 565 L570 495 C570 436 568 393 515 379 L515 488 L384 488 L384 251 C384 157 333 109 276 109 C215 109 188 139 188 229 L188 488 L58 488 L58 194 C58 45 132 -8 237 -8 C292 -8 345 15 382 60 L384 60 L384 0 L515 0 L515 305 C627 308 692 375 692 492 L692 565 L570 565 Z M293 -90 C248 -90 211 -126 211 -170 C211 -214 248 -250 293 -250 C337 -250 374 -214 374 -170 C374 -126 337 -90 293 -90 L293 -90 Z " />
<glyph glyph-name="Ygrave" unicode="&#x1ef2;" horiz-adv-x="632" d="M391 784 L278 931 L141 932 L264 784 L391 784 Z M460 710 L317 451 L315 451 L170 710 L9 710 L244 312 L244 0 L386 0 L386 312 L623 710 L460 710 Z " />
<glyph glyph-name="ygrave" unicode="&#x1ef3;" horiz-adv-x="539" d="M352 555 L239 702 L102 703 L225 555 L352 555 Z M386 488 L274 186 L273 186 L153 488 L17 488 L211 30 L125 -198 L259 -198 L522 488 L386 488 Z " />
<glyph glyph-name="uni1EF4" unicode="&#x1ef4;" horiz-adv-x="632" d="M244 0 L386 0 L386 312 L623 710 L460 710 L317 451 L315 451 L170 710 L9 710 L244 312 L244 0 Z M316 -90 C271 -90 234 -126 234 -170 C234 -214 271 -250 316 -250 C360 -250 397 -214 397 -170 C397 -126 360 -90 316 -90 L316 -90 Z " />
<glyph glyph-name="uni1EF5" unicode="&#x1ef5;" horiz-adv-x="539" d="M386 488 L274 186 L273 186 L153 488 L17 488 L211 30 L125 -198 L259 -198 L522 488 L386 488 Z M413 -90 C368 -90 331 -126 331 -170 C331 -214 368 -250 413 -250 C457 -250 494 -214 494 -170 C494 -126 457 -90 413 -90 L413 -90 Z " />
<glyph glyph-name="uni1EF6" unicode="&#x1ef6;" horiz-adv-x="632" d="M317 888 C333 888 346 884 346 869 C346 835 264 824 264 793 C264 782 272 773 282 763 L333 765 L340 789 C397 800 430 828 430 870 C430 915 394 949 327 949 C279 949 231 927 205 901 L250 858 C267 874 293 888 317 888 L317 888 Z M460 710 L317 451 L315 451 L170 710 L9 710 L244 312 L244 0 L386 0 L386 312 L623 710 L460 710 Z " />
<glyph glyph-name="uni1EF7" unicode="&#x1ef7;" horiz-adv-x="539" d="M271 660 C287 660 300 656 300 641 C300 607 218 596 218 565 C218 554 226 545 236 535 L287 537 L294 561 C351 572 384 600 384 642 C384 687 348 721 281 721 C233 721 185 699 159 673 L204 630 C221 646 247 660 271 660 L271 660 Z M386 488 L274 186 L273 186 L153 488 L17 488 L211 30 L125 -198 L259 -198 L522 488 L386 488 Z " />
<glyph glyph-name="uni1EF8" unicode="&#x1ef8;" horiz-adv-x="632" d="M258 831 C277 831 294 821 313 810 C336 795 364 780 400 780 C456 780 497 831 517 905 L441 931 C428 901 408 882 384 882 C364 882 348 893 330 904 C308 916 285 931 244 931 C185 931 144 882 124 815 L202 781 C215 812 233 831 258 831 L258 831 Z M460 710 L317 451 L315 451 L170 710 L9 710 L244 312 L244 0 L386 0 L386 312 L623 710 L460 710 Z " />
<glyph glyph-name="uni1EF9" unicode="&#x1ef9;" horiz-adv-x="539" d="M212 603 C231 603 248 593 267 582 C290 567 318 552 354 552 C410 552 451 603 471 677 L395 703 C382 673 362 654 338 654 C318 654 302 665 284 676 C262 688 239 703 198 703 C139 703 98 654 78 587 L156 553 C169 584 187 603 212 603 L212 603 Z M386 488 L274 186 L273 186 L153 488 L17 488 L211 30 L125 -198 L259 -198 L522 488 L386 488 Z " />
<glyph glyph-name="uni2002" unicode="&#x2002;" horiz-adv-x="467" d="" />
<glyph glyph-name="uni2003" unicode="&#x2003;" horiz-adv-x="934" d="" />
<glyph glyph-name="uni2009" unicode="&#x2009;" horiz-adv-x="28" d="" />
<glyph glyph-name="endash" unicode="&#x2013;" horiz-adv-x="564" d="M49 242 L516 242 L516 354 L49 354 L49 242 Z " />
<glyph glyph-name="emdash" unicode="&#x2014;" horiz-adv-x="1031" d="M49 242 L982 242 L982 354 L49 354 L49 242 Z " />
<glyph glyph-name="uni2015" unicode="&#x2015;" horiz-adv-x="1194" d="M49 242 L1145 242 L1145 354 L49 354 L49 242 Z " />
<glyph glyph-name="quoteleft" unicode="&#x2018;" horiz-adv-x="227" d="M194 709 L93 709 L30 449 L164 449 L194 709 Z " />
<glyph glyph-name="quoteright" unicode="&#x2019;" horiz-adv-x="227" d="M33 450 L134 450 L197 710 L63 710 L33 450 Z " />
<glyph glyph-name="quotesinglbase" unicode="&#x201a;" horiz-adv-x="244" d="M25 -133 L121 -133 L190 127 L56 127 L25 -133 Z " />
<glyph glyph-name="quotedblleft" unicode="&#x201c;" horiz-adv-x="415" d="M194 710 L93 710 L29 450 L164 450 L194 710 Z M382 710 L281 710 L218 450 L352 450 L382 710 Z " />
<glyph glyph-name="quotedblright" unicode="&#x201d;" horiz-adv-x="415" d="M33 450 L134 450 L197 710 L63 710 L33 450 Z M221 450 L322 450 L386 710 L251 710 L221 450 Z " />
<glyph glyph-name="quotedblbase" unicode="&#x201e;" horiz-adv-x="432" d="M26 -78 L127 -78 L190 182 L56 182 L26 -78 Z M214 -78 L315 -78 L379 182 L244 182 L214 -78 Z " />
<glyph glyph-name="dagger" unicode="&#x2020;" horiz-adv-x="393" d="M197 227 L235 290 L230 417 L230 525 L250 525 L343 521 L343 596 L250 591 L231 591 L235 686 L160 686 L163 591 L144 591 L50 595 L50 521 L144 525 L164 525 L165 417 L159 290 L197 227 Z " />
<glyph glyph-name="daggerdbl" unicode="&#x2021;" horiz-adv-x="393" d="M160 54 L234 54 L229 148 L249 148 L343 145 L343 218 L249 214 L230 214 L229 273 L234 370 L230 467 L230 525 L248 525 L343 521 L343 595 L249 590 L229 590 L234 686 L159 686 L163 590 L144 590 L50 594 L50 521 L144 525 L164 525 L164 467 L159 370 L164 273 L164 214 L144 214 L50 218 L50 144 L144 148 L164 148 L160 54 Z " />
<glyph glyph-name="bullet" unicode="&#x2022;" horiz-adv-x="424" d="M212 199 C278 199 330 251 330 316 C330 381 278 434 212 434 C147 434 94 381 94 316 C94 251 147 199 212 199 L212 199 Z " />
<glyph glyph-name="ellipsis" unicode="&#x2026;" horiz-adv-x="1000" d="M166 -8 C210 -8 247 27 247 71 C247 115 210 151 166 151 C121 151 85 115 85 71 C85 27 121 -8 166 -8 L166 -8 Z M500 -8 C544 -8 581 27 581 71 C581 115 544 151 500 151 C455 151 419 115 419 71 C419 27 455 -8 500 -8 L500 -8 Z M834 -8 C878 -8 915 27 915 71 C915 115 878 151 834 151 C789 151 753 115 753 71 C753 27 789 -8 834 -8 L834 -8 Z " />
<glyph glyph-name="perthousand" unicode="&#x2030;" horiz-adv-x="1469" d="M402 -23 L717 683 L619 725 L304 19 L402 -23 Z M240 320 C361 320 442 410 442 520 C442 640 352 719 240 719 C120 719 39 629 39 520 C39 400 129 320 240 320 L240 320 Z M241 413 C187 413 143 456 143 519 C143 578 183 624 241 624 C296 624 340 583 340 519 C340 460 300 413 241 413 L241 413 Z M777 -8 C899 -8 979 82 979 191 C979 310 889 390 777 390 C657 390 576 300 576 191 C576 72 667 -8 777 -8 L777 -8 Z M1228 -8 C1349 -8 1430 82 1430 191 C1430 310 1338 390 1228 390 C1106 390 1026 300 1026 191 C1026 72 1117 -8 1228 -8 L1228 -8 Z M778 85 C724 85 680 127 680 190 C680 248 719 295 778 295 C833 295 877 253 877 190 C877 132 837 85 778 85 L778 85 Z M1228 85 C1174 85 1130 127 1130 190 C1130 248 1169 295 1228 295 C1283 295 1327 253 1327 190 C1327 132 1288 85 1228 85 L1228 85 Z " />
<glyph glyph-name="guilsinglleft" unicode="&#x2039;" horiz-adv-x="308" d="M285 39 L165 247 L287 458 L160 458 L40 247 L158 39 L285 39 Z " />
<glyph glyph-name="guilsinglright" unicode="&#x203a;" horiz-adv-x="305" d="M24 39 L151 39 L269 247 L149 458 L22 458 L144 247 L24 39 Z " />
<glyph glyph-name="fraction" unicode="&#x2044;" horiz-adv-x="234" d="M24 -23 L338 683 L240 725 L-75 19 L24 -23 Z " />
<glyph glyph-name="uni2070" unicode="&#x2070;" horiz-adv-x="411" d="" />
<glyph glyph-name="dong" unicode="&#x20ab;" horiz-adv-x="609" d="M609 638 L550 638 L550 736 L419 736 L419 638 L320 638 L320 554 L419 554 L419 433 L416 433 C380 475 329 496 269 496 C138 496 39 391 39 243 C39 92 138 -8 273 -8 C338 -8 389 16 423 59 L425 59 L425 0 L550 0 L550 554 L609 554 L609 638 Z M297 109 C224 109 172 163 172 242 C172 326 227 379 297 379 C372 379 426 320 426 242 C426 162 369 109 297 109 L297 109 Z M74 -166 L548 -166 L548 -52 L74 -52 L74 -166 Z " />
<glyph glyph-name="Euro" unicode="&#x20ac;" horiz-adv-x="605" d="M505 153 C472 131 435 117 390 117 C319 117 256 163 227 237 L451 237 L451 304 L211 304 C210 313 210 322 210 332 C210 342 211 352 212 362 L451 362 L451 429 L228 429 C257 502 319 547 390 547 C429 547 465 536 497 514 L576 614 C518 654 453 672 390 672 C226 672 114 570 80 429 L13 429 L13 362 L69 362 C68 352 68 342 68 332 C68 322 68 313 69 304 L13 304 L13 237 L78 237 C116 77 249 -7 390 -7 C466 -7 530 17 581 52 L505 153 Z " />
<glyph glyph-name="uni20BA" unicode="&#x20ba;" horiz-adv-x="573" d="M446 267 C407 153 361 110 273 110 L229 110 L229 254 L372 323 L339 395 L229 342 L229 405 L371 474 L338 546 L229 493 L229 710 L88 710 L88 425 L-11 377 L22 305 L88 337 L88 274 L-11 226 L22 153 L88 185 L88 0 L283 0 C412 0 501 57 555 227 L446 267 Z " />
<glyph glyph-name="uni2113" unicode="&#x2113;" horiz-adv-x="463" d="M400 123 C375 88 334 52 289 52 C246 52 194 76 193 197 L193 218 C302 321 374 423 374 533 C374 615 333 679 258 679 C163 679 91 618 90 450 L88 190 C65 169 35 148 10 127 L35 92 C54 106 74 122 90 136 C102 47 156 -9 265 -9 C336 -9 398 26 441 96 L400 123 Z M271 615 C306 615 329 589 329 525 C329 446 277 364 193 277 L193 456 C192 577 235 615 271 615 L271 615 Z " />
<glyph glyph-name="uni2116" unicode="&#x2116;" horiz-adv-x="1114" d="M900 409 C993 409 1061 472 1061 562 C1061 652 993 714 900 714 C806 714 740 651 740 562 C740 473 806 409 900 409 L900 409 Z M536 230 L535 230 L218 710 L78 710 L78 0 L218 0 L218 471 L220 471 L533 0 L677 0 L677 710 L536 710 L536 230 Z M900 630 C938 630 965 603 965 562 C965 522 936 494 900 494 C862 494 836 523 836 562 C836 602 862 630 900 630 L900 630 Z M751 263 L1054 263 L1054 352 L751 352 L751 263 Z " />
<glyph glyph-name="trademark" unicode="&#x2122;" horiz-adv-x="688" d="M105 387 L185 387 L185 639 L269 639 L269 710 L21 710 L21 639 L105 639 L105 387 Z M312 387 L390 387 L390 563 L454 448 L505 448 L568 563 L568 387 L647 387 L647 710 L565 710 L479 541 L393 710 L312 710 L312 387 Z " />
<glyph glyph-name="uni2126" unicode="&#x2126;" horiz-adv-x="764" d="M590 127 C668 193 715 285 715 390 C715 579 582 719 382 719 C182 719 48 579 48 390 C48 284 96 193 174 126 L174 125 L57 125 L57 0 L335 0 L335 125 C249 191 195 278 195 384 C195 503 270 588 382 589 C494 589 569 503 569 384 C569 278 515 191 429 125 L429 0 L707 0 L707 125 L590 125 L590 127 Z " />
<glyph glyph-name="estimated" unicode="&#x212e;" horiz-adv-x="794" d="M397 -10 C504 -10 605 36 667 109 L608 109 C558 55 485 25 398 25 C342 25 281 41 235 77 L235 302 L744 302 L744 311 C744 488 594 632 397 632 C206 632 50 493 50 311 C50 134 201 -10 397 -10 L397 -10 Z M234 343 L235 544 C278 577 339 596 398 596 C454 596 515 578 559 547 L559 343 L234 343 Z " />
<glyph glyph-name="partialdiff" unicode="&#x2202;" horiz-adv-x="589" d="M281 694 C229 694 157 680 90 653 L126 546 C170 560 221 579 262 579 C355 578 391 498 404 401 L403 399 C364 428 313 443 261 443 C149 443 48 363 48 219 C48 83 157 -9 292 -9 C429 -9 541 90 541 296 C541 441 504 694 281 694 L281 694 Z M294 117 C227 117 183 165 183 224 C183 291 226 331 291 331 C339 331 383 303 411 265 C410 172 359 117 294 117 L294 117 Z " />
<glyph glyph-name="emptyset" unicode="&#x2205;" horiz-adv-x="726" d="M613 509 L659 555 L605 609 L560 564 C507 607 439 633 364 633 C187 633 50 489 50 318 C50 244 75 175 118 121 L68 71 L121 18 L171 68 C223 27 289 2 362 2 C539 2 677 147 677 318 C677 389 653 456 613 509 L613 509 Z M154 317 C154 433 244 529 364 529 C410 529 452 514 486 490 L192 195 C168 229 154 272 154 317 L154 317 Z M362 106 C318 106 278 119 245 142 L538 434 C560 401 572 361 572 318 C572 203 481 106 362 106 L362 106 Z " />
<glyph glyph-name="uni2206" unicode="&#x2206;" horiz-adv-x="686" d="M413 710 L272 710 L35 107 L35 0 L650 0 L650 108 L413 710 Z M192 125 L342 534 L344 534 L491 125 L192 125 Z " />
<glyph glyph-name="product" unicode="&#x220f;" horiz-adv-x="699" d="M78 -105 L218 -105 L218 584 L481 584 L481 -105 L622 -105 L622 710 L78 710 L78 -105 Z " />
<glyph glyph-name="summation" unicode="&#x2211;" horiz-adv-x="615" d="M570 584 L570 710 L50 710 L50 608 L270 317 L50 22 L50 -76 L570 -76 L570 50 L235 50 L235 53 L424 317 L235 582 L235 584 L570 584 Z " />
<glyph glyph-name="minus" unicode="&#x2212;" horiz-adv-x="572" d="M49 220 L523 220 L523 334 L49 334 L49 220 Z " />
<glyph glyph-name="radical" unicode="&#x221a;" horiz-adv-x="735" d="M695 822 L392 176 L390 176 L251 609 L32 609 L32 500 L146 500 L313 0 L399 0 L789 822 L695 822 Z " />
<glyph glyph-name="infinity" unicode="&#x221e;" horiz-adv-x="771" d="M552 450 C487 450 433 413 385 355 C334 420 280 450 220 450 C131 450 53 384 53 278 C53 181 125 107 220 107 C284 107 338 142 384 202 C436 136 491 107 552 107 C641 107 719 173 719 278 C719 376 646 450 552 450 L552 450 Z M228 207 C189 207 158 233 158 278 C158 325 189 351 228 351 C269 351 298 318 328 278 C294 232 264 207 228 207 L228 207 Z M546 207 C505 207 473 239 443 278 C477 325 510 351 546 351 C582 351 613 325 613 278 C613 233 582 207 546 207 L546 207 Z " />
<glyph glyph-name="integral" unicode="&#x222b;" horiz-adv-x="421" d="M54 -173 C125 -169 186 -121 200 -26 L278 488 C292 578 295 597 360 597 C371 597 381 597 395 596 L410 689 C402 688 370 704 304 702 C234 699 173 652 158 554 L80 41 C66 -45 63 -67 -3 -67 L-11 -67 L-26 -167 C-3 -171 21 -174 54 -173 L54 -173 Z " />
<glyph glyph-name="uni2236" unicode="&#x2236;" horiz-adv-x="273" d="M134 395 C178 395 215 430 215 474 C215 518 178 554 134 554 C89 554 53 518 53 474 C53 430 89 395 134 395 L134 395 Z M134 50 C178 50 215 85 215 129 C215 173 178 209 134 209 C89 209 53 173 53 129 C53 85 89 50 134 50 L134 50 Z " />
<glyph glyph-name="approxequal" unicode="&#x2248;" horiz-adv-x="593" d="M411 309 C469 309 515 347 539 376 L501 463 C475 440 440 420 397 420 C328 420 275 470 195 470 C130 470 69 422 54 406 L90 319 C116 335 160 358 208 358 C285 358 342 309 411 309 L411 309 Z M411 87 C469 87 515 125 539 154 L501 242 C475 219 440 199 397 199 C328 199 275 249 195 249 C129 249 69 201 54 184 L90 98 C116 115 160 137 208 137 C285 137 342 87 411 87 L411 87 Z " />
<glyph glyph-name="notequal" unicode="&#x2260;" horiz-adv-x="590" d="M532 335 L532 449 L425 449 L464 532 L381 565 L327 449 L58 449 L58 335 L274 335 L220 219 L58 219 L58 105 L167 105 L132 31 L215 -1 L265 105 L532 105 L532 219 L318 219 L372 335 L532 335 Z " />
<glyph glyph-name="lessequal" unicode="&#x2264;" horiz-adv-x="585" d="M520 166 L520 289 L225 414 L520 537 L520 663 L56 460 L56 366 L520 166 Z M522 0 L522 114 L55 114 L55 0 L522 0 Z " />
<glyph glyph-name="greaterequal" unicode="&#x2265;" horiz-adv-x="585" d="M65 166 L529 366 L529 460 L65 663 L65 537 L360 414 L65 289 L65 166 Z M63 0 L530 0 L530 114 L63 114 L63 0 Z " />
<glyph glyph-name="uni2713" unicode="&#x2713;" horiz-adv-x="572" d="M209 115 L592 740 L506 793 L191 279 L89 385 L17 315 L209 115 Z " />
<glyph glyph-name="uni2715" unicode="&#x2715;" horiz-adv-x="366" d="M90 113 L184 206 L276 113 L348 184 L255 277 L348 370 L275 443 L182 350 L90 442 L18 370 L111 278 L18 185 L90 113 Z " />
</font>
</svg>
